<svg id="Calque_1" data-name="Calque 1" xmlns="http://www.w3.org/2000/svg" viewBox="0 0 1080 1080"><defs><style>.cls-1{fill:#6e6e6e;}</style></defs><path class="cls-1" d="M192.9,173.12a19.77,19.77,0,1,0,19.76,19.77A19.8,19.8,0,0,0,192.9,173.12Zm0,0a19.77,19.77,0,1,0,19.76,19.77A19.8,19.8,0,0,0,192.9,173.12Zm0,0a19.77,19.77,0,1,0,19.76,19.77A19.8,19.8,0,0,0,192.9,173.12Zm0,0a19.77,19.77,0,1,0,19.76,19.77A19.8,19.8,0,0,0,192.9,173.12Zm0,0a19.77,19.77,0,1,0,19.76,19.77A19.8,19.8,0,0,0,192.9,173.12Zm0,0a19.77,19.77,0,1,0,19.76,19.77A19.8,19.8,0,0,0,192.9,173.12Zm0,0a19.77,19.77,0,1,0,19.76,19.77A19.8,19.8,0,0,0,192.9,173.12Zm0,0a19.77,19.77,0,1,0,19.76,19.77A19.8,19.8,0,0,0,192.9,173.12Zm0,0a19.77,19.77,0,1,0,19.76,19.77A19.8,19.8,0,0,0,192.9,173.12Zm0,0a19.77,19.77,0,1,0,19.76,19.77A19.8,19.8,0,0,0,192.9,173.12ZM963.83,58.06H116.18a58.2,58.2,0,0,0-58.13,58.12V691.5a58.2,58.2,0,0,0,58.13,58.12H443.53V829h-95.3a19.8,19.8,0,0,0-19.62,17.31L309.43,999.72a19.77,19.77,0,0,0,19.62,22.22H751a19.75,19.75,0,0,0,19.61-22.22L751.4,846.3A19.8,19.8,0,0,0,731.78,829h-95.3V749.62H963.83A58.19,58.19,0,0,0,1022,691.5V116.18A58.19,58.19,0,0,0,963.83,58.06ZM97.6,116.18a18.6,18.6,0,0,1,18.58-18.59H520.23V595h-37.9l-.56-8.41a134.44,134.44,0,0,0-80.36-114.44l-10.88-4.8,7.57-9.17a115.65,115.65,0,1,0-178.37,0l7.57,9.17-10.89,4.8a134.44,134.44,0,0,0-80.34,114.44l-.56,8.41H97.6Zm173,384.14h76.72A95.17,95.17,0,0,1,442,585l1.11,10H174.74l1.12-10A95.16,95.16,0,0,1,270.55,500.32ZM232.79,384.66a76.13,76.13,0,1,1,76.12,76.12A76.22,76.22,0,0,1,232.79,384.66ZM714.33,868.52l14.24,113.89H351.45l14.22-113.89h77.86v18.59a19.79,19.79,0,0,0,19.76,19.77H616.72a19.79,19.79,0,0,0,19.76-19.77V868.52Zm-231.28-1.17V749.62H597V867.35ZM982.41,691.5a18.6,18.6,0,0,1-18.58,18.59H116.18A18.6,18.6,0,0,1,97.6,691.5V634.56H982.41ZM732.73,500.32h76.72A95.15,95.15,0,0,1,904.14,585l1.12,10H636.92L638,585A95.16,95.16,0,0,1,732.73,500.32ZM695,384.66a76.13,76.13,0,1,1,76.13,76.12A76.21,76.21,0,0,1,695,384.66ZM982.41,595H944.5l-.55-8.41a134.49,134.49,0,0,0-80.36-114.44l-10.88-4.8,7.57-9.17a115.67,115.67,0,1,0-178.37,0l7.57,9.17-10.88,4.8a134.48,134.48,0,0,0-80.37,114.44l-.55,8.41H559.77V97.59H963.83a18.6,18.6,0,0,1,18.58,18.59ZM192.9,212.66a19.77,19.77,0,1,0-19.78-19.77A19.79,19.79,0,0,0,192.9,212.66Zm0-39.54a19.77,19.77,0,1,0,19.76,19.77A19.8,19.8,0,0,0,192.9,173.12Zm0,0a19.77,19.77,0,1,0,19.76,19.77A19.8,19.8,0,0,0,192.9,173.12Zm0,0a19.77,19.77,0,1,0,19.76,19.77A19.8,19.8,0,0,0,192.9,173.12Zm0,0a19.77,19.77,0,1,0,19.76,19.77A19.8,19.8,0,0,0,192.9,173.12Zm0,0a19.77,19.77,0,1,0,19.76,19.77A19.8,19.8,0,0,0,192.9,173.12Zm0,0a19.77,19.77,0,1,0,19.76,19.77A19.8,19.8,0,0,0,192.9,173.12Zm0,0a19.77,19.77,0,1,0,19.76,19.77A19.8,19.8,0,0,0,192.9,173.12Zm0,0a19.77,19.77,0,1,0,19.76,19.77A19.8,19.8,0,0,0,192.9,173.12Z"/><path class="cls-1" d="M212.66,192.89a19.77,19.77,0,1,1-19.76-19.77A19.79,19.79,0,0,1,212.66,192.89Z"/></svg>