<?xml version="1.0" encoding="UTF-8"?>
<svg width="252px" height="186px" viewBox="0 0 252 186" version="1.1" xmlns="http://www.w3.org/2000/svg" xmlns:xlink="http://www.w3.org/1999/xlink">
    <title>Group 195</title>
    <defs>
        <polygon id="path-1" points="0 185 252 185 252 0 0 0"></polygon>
    </defs>
    <g id="TABLEAU-DE-BORD" stroke="none" stroke-width="1" fill="none" fill-rule="evenodd">
        <g id="Accueil" transform="translate(-880.000000, -2778.000000)">
            <g id="Group-29" transform="translate(161.000000, 2687.000000)">
                <g id="Group-193" transform="translate(719.000000, 91.347561)">
                    <mask id="mask-2" fill="white">
                        <use xlink:href="#path-1"></use>
                    </mask>
                    <g id="Clip-14"></g>
                    <path d="M126,173.757784 C179.969328,173.757784 223.72056,176.274372 223.72056,179.378892 C223.72056,182.483412 179.969328,185 126,185 C72.030672,185 28.27944,182.483412 28.27944,179.378892 C28.27944,176.274372 72.030672,173.757784 126,173.757784" id="Fill-44" fill="#F5F5F5" mask="url(#mask-2)"></path>
                    <path d="M82.656,23.0306528 C78.8508,19.5100118 72.576,18.8346843 70.22736,22.499329 C67.87872,26.1639736 69.21936,30.0371752 64.40112,34.0990713 C61.12512,36.8748658 63.5544,45.3810125 82.24272,44.6014065 C91.08792,44.2339489 88.09416,35.1666846 87.85728,30.8813346 C87.6204,26.5959845 87.60528,21.3522654 82.656,23.0306528" id="Fill-45" fill="#263238" mask="url(#mask-2)"></path>
                    <polygon id="Fill-46" fill="#B55B52" mask="url(#mask-2)" points="75.29256 172.516373 70.76664 172.690171 70.68096 167.863566 75.20688 167.689768"></polygon>
                    <path d="M70.4844,171.766561 L75.6,171.766561 C75.785976,171.764575 75.94776,171.890702 75.98808,172.069465 L76.87512,176.066808 C76.950216,176.426817 76.714848,176.778385 76.349952,176.852869 C76.302072,176.862304 76.253688,176.866773 76.2048,176.866277 C74.4156,176.836483 73.54872,176.732204 71.29584,176.732204 C69.90984,176.732204 66.31632,176.876208 64.40112,176.876208 C62.48592,176.876208 62.244,175.009126 63.0252,174.840294 C66.5532,174.080551 68.60448,173.037766 69.73344,172.039671 C69.940584,171.859419 70.208208,171.762092 70.4844,171.766561" id="Fill-47" fill="#263238" mask="url(#mask-2)"></path>
                    <polygon id="Fill-48" fill="#000000" mask="url(#mask-2)" points="70.68096 167.868531 70.72128 170.113002 75.2472 169.919342 75.20688 167.694734"></polygon>
                    <path d="M64.008,75.3039779 C63,80.6569412 64.1592,106.820915 65.6964,118.375966 C67.74264,133.719804 69.85944,169.348293 69.85944,169.348293 L75.90744,168.990767 C75.90744,168.990767 77.41944,131.470367 76.18464,119.150607 C76.8852,103.295308 78.61896,75.6019165 78.61896,75.6019165 L64.008,75.3039779 Z" id="Fill-49" fill="#4C76BA" mask="url(#mask-2)"></path>
                    <path d="M77.616,92.8575263 C77.82768,88.840321 74.93976,85.2700236 73.77552,92.8575263 C73.03968,97.6791658 74.56176,106.13069 76.5576,112.099393 C76.86504,105.887374 77.25816,98.970233 77.616,92.8575263" id="Fill-50" fill="#000000" mask="url(#mask-2)"></path>
                    <polygon id="Fill-51" fill="#B55B52" mask="url(#mask-2)" points="108.54648 157.505234 105.60312 160.276063 101.61648 156.065198 104.5548 153.299334"></polygon>
                    <path d="M104.832,160.350548 L107.856,156.268789 C107.958312,156.121309 108.158904,156.078108 108.31464,156.169476 L111.84264,158.215321 C112.199976,158.448706 112.297248,158.923422 112.059864,159.275486 C112.054824,159.282934 112.049784,159.290383 112.04424,159.297831 C110.97072,160.703108 110.38104,161.323814 109.05552,163.121376 C108.23904,164.223749 107.29656,165.743236 106.17264,167.272654 C105.04872,168.802072 103.51152,167.704665 103.84416,166.964784 C105.35616,163.642769 104.71608,162.719159 104.63544,161.135119 C104.609736,160.859029 104.678784,160.58294 104.832,160.350548" id="Fill-52" fill="#263238" mask="url(#mask-2)"></path>
                    <polygon id="Fill-53" fill="#000000" mask="url(#mask-2)" points="101.61648 156.070163 103.6728 158.235184 106.59096 155.444492 104.55984 153.299334"></polygon>
                    <path d="M71.02368,75.4479815 C71.02368,75.4479815 77.53536,109.214355 79.2288,122.323653 C80.2368,130.154472 102.4632,158.329531 102.4632,158.329531 L106.25832,154.391776 C106.25832,154.391776 98.12376,133.764494 88.326,121.52915 C87.93792,107.188372 89.59104,83.581705 83.9664,75.7111606 L71.02368,75.4479815 Z" id="Fill-54" fill="#4C76BA" mask="url(#mask-2)"></path>
                    <path d="M65.30832,49.5571183 C65.30832,52.4570539 65.17224,55.3023674 64.95552,58.1774748 C64.7388,61.0525821 64.45152,63.9127926 63.9828,66.7928656 L63.89712,67.3341207 L63.7812,67.9448948 C63.694008,68.3456222 63.598248,68.737908 63.49392,69.1217522 C63.27216,69.8814956 62.98992,70.6114451 62.73792,71.3165665 C62.186544,72.6990015 61.560576,74.0516427 60.86304,75.3685312 C59.489136,77.9432172 57.924216,80.4146178 56.18088,82.7623738 C55.768608,83.3076015 54.985392,83.4203216 54.432,83.014132 C53.961264,82.6690198 53.797968,82.0478178 54.03888,81.5209631 L54.03888,81.4911692 C55.22328,78.9686225 56.3724,76.3815224 57.37536,73.8192506 C57.87936,72.5381147 58.32792,71.2420818 58.71096,69.9708772 C58.8924,69.3352749 59.05368,68.7046382 59.17968,68.0888984 C59.2452,67.7810286 59.29056,67.4781243 59.33592,67.1801857 L59.38632,66.7382435 L59.43672,66.2416792 C59.69376,63.4907129 59.84496,60.7000215 59.98608,57.9043644 C60.1272,55.1087073 60.19272,52.288222 60.27336,49.5173932 L60.27336,49.492565 C60.295536,48.1215509 61.442136,47.0276197 62.83368,47.0491469 C64.225224,47.0713174 65.335536,48.2010012 65.31336,49.5720152 L65.30832,49.5571183 Z" id="Fill-55" fill="#B55B52" mask="url(#mask-2)"></path>
                    <path d="M63.66528,45.9272332 C57.47616,47.7098991 58.27248,58.8031458 58.27248,58.8031458 L67.07232,61.1369981 C67.07232,61.1369981 68.53392,53.0132059 68.40288,50.0983734 C68.27184,47.0693311 67.07736,44.9490015 63.66528,45.9272332" id="Fill-56" fill="#4C76BA" mask="url(#mask-2)"></path>
                    <path d="M54.69408,80.8803951 L51.59448,83.4774265 L55.93896,85.2253328 C55.93896,85.2253328 57.28464,83.2043161 56.65968,81.2875778 L54.69408,80.8803951 Z" id="Fill-57" fill="#B55B52" mask="url(#mask-2)"></path>
                    <path d="M52.14384,87.4400097 L54.12456,87.6833262 C54.577152,87.7389414 55.011096,87.488673 55.18296,87.0725521 L55.93896,85.2253328 L51.59448,83.4774265 L51.26688,86.3426025 C51.204888,86.8833611 51.595488,87.3729735 52.14384,87.4400097" id="Fill-58" fill="#B55B52" mask="url(#mask-2)"></path>
                    <path d="M61.6644,48.8122718 C61.3872,59.9353124 63.9828,68.0541389 64.01304,75.3039779 L83.9664,75.7111606 C83.82024,68.4513904 83.88072,63.7141668 87.05088,50.7041819 C87.598224,48.4532559 86.190048,46.1914054 83.905416,45.6521366 C83.778912,45.6218461 83.6514,45.5980111 83.52288,45.5796382 C82.3284,45.4058407 81.00288,45.2419744 79.6572,45.1525929 C76.641768,44.8774962 73.609704,44.8144326 70.5852,44.9638984 C68.45832,45.1128677 66.17016,45.4207376 64.5372,45.6640541 C62.937,45.8984325 61.731432,47.2197901 61.6644,48.8122718" id="Fill-59" fill="#4C76BA" mask="url(#mask-2)"></path>
                    <path d="M80.262,59.0911531 L74.34504,59.051428 C74.119752,59.0608627 73.92924,58.8890514 73.919664,58.6670872 C73.918656,58.6462315 73.9191773,58.6253758 73.92168,58.6045201 L74.24928,55.8436225 C74.293128,55.5893816 74.5164,55.4026734 74.77848,55.4016803 L80.6904,55.4414054 C80.912664,55.4289913 81.103176,55.5963335 81.115776,55.8158149 C81.117288,55.8381603 81.11628,55.8610023 81.11376,55.8833476 L80.78616,58.6492109 C80.744328,58.9029552 80.522568,59.0896634 80.262,59.0911531" id="Fill-60" fill="#FFFFFF" mask="url(#mask-2)"></path>
                    <path d="M70.61544,44.9688641 C70.61544,44.9688641 67.3596,47.2133348 70.80192,52.8443741 C73.627848,50.1361123 76.59036,47.5688748 79.67736,45.1525929 L70.61544,44.9688641 Z" id="Fill-61" fill="#FFFFFF" mask="url(#mask-2)"></path>
                    <path d="M78.99192,35.0822686 C78.36192,37.9424791 77.67648,43.1961295 79.67736,45.1525929 C76.530888,46.3736445 73.629864,48.1359513 71.10936,50.3565869 C68.8968,46.3542785 70.60536,44.9638984 70.60536,44.9638984 C73.87128,44.2687084 73.84104,41.8901653 73.32192,39.6456947 L78.99192,35.0822686 Z" id="Fill-62" fill="#B55B52" mask="url(#mask-2)"></path>
                    <path d="M78.37704,35.5788329 C78.298416,37.2880073 77.849856,38.9604359 77.0616,40.4848883 C76.51224,41.532639 75.0456,41.9745813 73.56888,42.0589972 C73.617768,41.2471146 73.537632,40.4332457 73.332,39.6456947 L78.37704,35.5788329 Z" id="Fill-63" fill="#000000" mask="url(#mask-2)"></path>
                    <path d="M83.7144,31.5814902 C82.2024,36.1598132 81.6984,38.1262079 78.6744,39.9138394 C74.1636,42.6002523 68.78592,39.7946639 68.85648,34.8737116 C68.92704,30.444358 71.37648,23.7059802 76.45176,23.0157559 C80.08812,22.4968461 83.462904,24.9806608 83.98908,28.5633723 C84.138264,29.5768601 84.044016,30.610707 83.7144,31.5814902" id="Fill-64" fill="#B55B52" mask="url(#mask-2)"></path>
                    <path d="M71.3916,25.5680964 C73.9116,26.2682521 80.05032,26.7896446 81.28008,26.0646607 C80.12592,27.8125671 81.22464,32.5895158 83.0088,33.7465106 C85.41288,31.8446693 85.94712,27.2464838 83.72448,24.9672536 C81.50184,22.6880234 74.47608,19.9618853 71.3916,25.5680964" id="Fill-65" fill="#263238" mask="url(#mask-2)"></path>
                    <path d="M84.42,34.3821129 C84.098448,35.2635146 83.42964,35.9795603 82.56528,36.3683702 C81.42624,36.8649345 80.67024,35.911531 80.83152,34.7545362 C80.97768,33.7167168 81.7488,32.2021956 82.96848,32.182333 C83.853504,32.1942506 84.56112,32.9112895 84.549024,33.7832564 C84.546,33.9893306 84.502152,34.1924254 84.42,34.3821129" id="Fill-66" fill="#B55B52" mask="url(#mask-2)"></path>
                    <path d="M84.28896,74.5640971 L85.15584,76.3467629 C85.22136,76.4808353 85.05504,76.6198733 84.8232,76.6149077 L63.89208,76.1828967 C63.71568,76.1828967 63.56952,76.0885495 63.55944,75.9743397 L63.41328,74.2115364 C63.41328,74.092361 63.56448,73.9930481 63.76104,73.9930481 L83.97144,74.4101621 C84.09744,74.4027137 84.217896,74.4613082 84.28896,74.5640971" id="Fill-67" fill="#263238" mask="url(#mask-2)"></path>
                    <path d="M81.53208,76.7340831 L82.07136,76.7340831 C82.1772,76.7340831 82.26288,76.679461 82.25784,76.6149077 L82.0512,74.3207805 C82.0512,74.2562272 81.9504,74.1966395 81.84456,74.1966395 L81.30024,74.1966395 C81.1944,74.1966395 81.11376,74.2462959 81.1188,74.3158149 L81.3204,76.6049764 C81.33048,76.679461 81.4212,76.7340831 81.53208,76.7340831" id="Fill-68" fill="#407BFF" mask="url(#mask-2)"></path>
                    <path d="M65.40912,76.4063507 L65.95344,76.4063507 C66.05928,76.4063507 66.14496,76.3566942 66.13992,76.2871752 L65.93328,73.9930481 C65.93328,73.9284947 65.83248,73.8738727 65.72664,73.868907 L65.18232,73.868907 C65.07648,73.868907 64.9908,73.9185635 65.00088,73.9880825 L65.20248,76.2772439 C65.21256,76.3467629 65.30328,76.401385 65.40912,76.4063507" id="Fill-69" fill="#2B4F9E" mask="url(#mask-2)"></path>
                    <path d="M73.46808,76.5702169 L74.0124,76.5702169 C74.11824,76.5702169 74.20392,76.5205604 74.19888,76.4510414 L73.99224,74.16188 C73.99224,74.092361 73.89144,74.0377389 73.7856,74.0377389 L73.24128,74.0377389 C73.13544,74.0377389 73.0548,74.092361 73.05984,74.1569143 L73.26144,76.4510414 C73.27152,76.5106292 73.36224,76.5702169 73.46808,76.5702169" id="Fill-70" fill="#2B4F9E" mask="url(#mask-2)"></path>
                    <path d="M76.46184,31.1991357 C76.36104,31.5765246 76.0788,31.834738 75.8268,31.7701847 C75.5748,31.7056313 75.45384,31.348105 75.5496,30.9707161 C75.64536,30.5933272 75.93264,30.3351138 76.18464,30.3996672 C76.43664,30.4642205 76.5576,30.8217468 76.46184,31.1991357" id="Fill-71" fill="#263238" mask="url(#mask-2)"></path>
                    <path d="M72.11736,30.1066942 C72.0216,30.4890487 71.73936,30.7422965 71.48736,30.6777432 C71.23536,30.6131898 71.10936,30.2606292 71.21016,29.8782746 C71.31096,29.4959201 71.58816,29.247638 71.84016,29.3072257 C72.09216,29.3668134 72.21816,29.7293053 72.11736,30.1066942" id="Fill-72" fill="#263238" mask="url(#mask-2)"></path>
                    <path d="M71.946,29.3568821 L71.0892,28.8603178 C71.0892,28.8603178 71.38152,29.6945458 71.946,29.3568821" id="Fill-73" fill="#263238" mask="url(#mask-2)"></path>
                    <path d="M73.08,31.0452008 C72.51552,31.823317 71.845704,32.521983 71.0892,33.1208396 C71.412768,33.4982285 71.88804,33.7162202 72.38952,33.7167168 L73.08,31.0452008 Z" id="Fill-74" fill="#A02724" mask="url(#mask-2)"></path>
                    <path d="M73.32192,35.2014441 C73.285632,35.1706571 73.270008,35.1229869 73.2816,35.077303 C73.300752,35.0172187 73.365768,34.9834523 73.426752,35.0023218 C73.427256,35.0028183 73.427256,35.0028183 73.42776,35.0028183 C74.382336,35.2977775 75.422592,35.1279525 76.23,34.5459792 C76.278888,34.5047643 76.351968,34.5102265 76.3938,34.5583933 C76.435632,34.60656 76.430088,34.6785618 76.3812,34.7197767 C75.516336,35.3628275 74.386872,35.548046 73.3572,35.216341 L73.32192,35.2014441 Z" id="Fill-75" fill="#263238" mask="url(#mask-2)"></path>
                    <path d="M78.83064,29.456195 C78.799896,29.4293805 78.774696,29.3976004 78.75504,29.3618478 C78.543864,28.815627 78.078672,28.4034786 77.50512,28.2545093 C77.378616,28.2326605 77.293944,28.1134851 77.31612,27.9888474 C77.338296,27.8642098 77.459256,27.780787 77.58576,27.8026358 C78.315048,27.9804058 78.912288,28.4948465 79.18848,29.1830846 C79.234344,29.3037497 79.172352,29.4383187 79.04988,29.483506 C78.9768,29.510817 78.894648,29.5003892 78.83064,29.456195" id="Fill-76" fill="#263238" mask="url(#mask-2)"></path>
                    <path d="M71.26056,27.6933917 L71.23032,27.6635978 C71.140104,27.5742162 71.140104,27.4302126 71.23032,27.340831 C71.770104,26.8417839 72.518544,26.626275 73.24632,26.7598508 C73.370304,26.7906377 73.4454,26.9152754 73.414152,27.0374302 C73.413648,27.0394165 73.413144,27.0409062 73.41264,27.0428924 C73.380384,27.1650472 73.254384,27.2380422 73.1304,27.2067586 C72.547272,27.0985076 71.946504,27.2742914 71.5176,27.6784947 C71.443008,27.7341099 71.3412,27.7400687 71.26056,27.6933917" id="Fill-77" fill="#263238" mask="url(#mask-2)"></path>
                    <path d="M87.04584,49.0903479 C88.51248,51.0021205 89.88336,52.92879 91.21392,54.9299442 C91.87416,55.9230728 92.52936,56.9162014 93.14928,57.9887803 C93.81708,59.0737734 94.416336,60.197995 94.94352,61.3554864 C95.103288,61.7164886 95.24088,62.0859325 95.3568,62.4628248 C95.440968,62.7533149 95.49792,63.0507569 95.52816,63.3516749 C95.536728,63.47234 95.536728,63.5935017 95.52816,63.7141668 L95.52816,63.9376208 C95.519088,64.0359405 95.503968,64.1337637 95.4828,64.2305937 L95.44752,64.3845287 L95.44752,64.4540477 L95.44752,64.5086697 L95.4072,64.6179139 C95.17032,65.2137911 94.98384,65.8146339 94.7016,66.3906485 C94.190544,67.5709819 93.576672,68.7061279 92.86704,69.7821827 C92.13624,70.8686654 91.280448,71.8682494 90.3168,72.7615686 C89.825904,73.2154284 89.298216,73.6285699 88.73928,73.9980137 C88.452,74.1817425 88.15968,74.3605057 87.85728,74.5243719 L87.37848,74.7527915 C87.19704,74.8322418 87.066,74.8868639 86.80392,74.9812111 L85.84632,72.7168778 C85.91436,72.6513313 85.986936,72.5897574 86.06304,72.533149 L86.34024,72.2947982 C86.52672,72.1309319 86.70816,71.9521688 86.88456,71.76844 C87.243408,71.3890648 87.58008,70.9893306 87.89256,70.57172 C88.507944,69.7186225 89.044704,68.8128892 89.49528,67.8654445 C89.70696,67.3688802 89.9388,66.9021097 90.1152,66.3757516 C90.2916,65.8493934 90.48816,65.3826229 90.64944,64.8860586 C90.81072,64.3894943 90.93672,63.8432736 91.09296,63.3268467 L91.09296,63.2324995 L91.09296,63.182843 L91.09296,63.2275338 L91.09296,63.3268467 C91.09296,63.3864344 91.06776,63.475816 91.06272,63.5105755 C91.0602,63.5488109 91.0602,63.5865498 91.06272,63.6247853 L91.06272,63.7687889 L91.06272,63.7985828 C91.06272,63.7489263 90.9216,63.4807816 90.81576,63.2722246 C90.35712,62.4230996 89.74224,61.4448679 89.11224,60.511327 C88.48224,59.5777861 87.82704,58.619417 87.15672,57.6809105 C85.82112,55.7989317 84.4452,53.8970904 83.09448,52.0300086 L87.04584,49.0903479 Z" id="Fill-78" fill="#B55B52" mask="url(#mask-2)"></path>
                    <path d="M88.13952,74.3952652 L84.25368,77.1015407 L82.50984,73.1886139 C82.50984,73.1886139 84.86856,71.9422375 86.72832,72.7764655 L88.13952,74.3952652 Z" id="Fill-79" fill="#B55B52" mask="url(#mask-2)"></path>
                    <path d="M81.5472,77.4243075 L80.57448,76.0885495 C80.190432,75.5527566 80.308872,74.8133723 80.8416,74.4200934 L82.50984,73.1886139 L84.25368,77.1015407 L83.1852,77.7520399 C82.636848,78.0837449 81.921168,77.9407344 81.5472,77.4243075" id="Fill-80" fill="#B55B52" mask="url(#mask-2)"></path>
                    <path d="M79.26912,47.9085248 C77.94864,53.0777593 86.09328,61.9265353 86.09328,61.9265353 L92.94264,54.9200129 C92.94264,54.9200129 89.8128,48.3355701 85.72536,46.2698626 C82.87272,44.8298261 79.85376,45.6292946 79.26912,47.9085248" id="Fill-81" fill="#4C76BA" mask="url(#mask-2)"></path>
                    <path d="M76.29048,30.4493236 L75.43368,29.9527593 C75.43368,29.9527593 75.72096,30.7869873 76.29048,30.4493236" id="Fill-82" fill="#263238" mask="url(#mask-2)"></path>
                    <path d="M67.536,61.7179783 C67.460904,61.7174817 67.393368,61.6722944 67.36464,61.6037685 C67.330368,61.5119041 67.377744,61.4101084 67.47048,61.3753489 L68.25672,61.0774104 C69.764688,60.5287068 70.76916,59.1159813 70.77672,57.5319412 L70.83216,50.2721709 C70.870464,48.9398889 69.805512,47.8290745 68.45328,47.7913356 C67.486104,47.7640246 66.59352,48.300314 66.1752,49.1598669 L62.76816,55.6152029 C62.018712,57.0100521 62.219304,58.7157505 63.27216,59.9055186 L63.82656,60.526224 C63.900144,60.5932601 63.904176,60.7064768 63.836136,60.7789752 C63.768096,60.8514736 63.653184,60.8554461 63.5796,60.7884099 C63.570528,60.7794718 63.56196,60.770037 63.5544,60.7596092 L63,60.0842817 C61.837776,58.7912283 61.610976,56.9236499 62.43048,55.3967146 L65.83752,48.9413786 C66.553704,47.5867511 68.24916,47.060393 69.624072,47.7660108 C70.56,48.2461885 71.143632,49.2025714 71.13456,50.2423771 L71.07912,57.5021473 C71.070552,59.2262186 69.984432,60.7665611 68.34744,61.3753489 L67.5612,61.6683219 L67.536,61.7179783 Z" id="Fill-83" fill="#263238" mask="url(#mask-2)"></path>
                    <path d="M70.95816,51.8909706 C70.860888,51.8884878 70.78176,51.81301 70.77672,51.7171731 C70.581672,50.1495195 69.133176,49.0342361 67.541544,49.2264065 C66.726576,49.3252228 65.992248,49.75922 65.52,50.4211402 C65.471112,50.5075424 65.360736,50.538826 65.27304,50.4906592 C65.185344,50.4424925 65.153592,50.3337449 65.20248,50.2473427 C66.213,48.7755261 68.243616,48.3896956 69.737472,49.3853071 C70.533792,49.9161343 71.052408,50.7657559 71.15472,51.7072418 C71.15472,51.805065 71.077104,51.8855084 70.97832,51.8909706 L70.95816,51.8909706 Z" id="Fill-84" fill="#263238" mask="url(#mask-2)"></path>
                    <path d="M68.99256,47.9234217 C68.93208,47.9224286 68.875632,47.8931313 68.84136,47.8439714 C68.65488,47.4367887 68.65488,46.9700183 68.84136,46.5628355 C69.106464,45.7514494 69.731424,45.1029364 70.53984,44.8000322 C70.62804,44.7657693 70.727328,44.8089704 70.762104,44.8958691 C70.763616,44.9003382 70.765128,44.9048073 70.76664,44.9092764 C70.79688,45.0011408 70.747992,45.0999571 70.65576,45.1327303 C69.963768,45.412296 69.431544,45.9768896 69.1992,46.6770453 C69.047496,46.987398 69.027336,47.3449243 69.14376,47.6701739 C69.198192,47.7531002 69.174,47.863834 69.089832,47.917463 C69.089328,47.9179595 69.088824,47.9179595 69.08832,47.9184561 C69.057072,47.9273942 69.024312,47.9293805 68.99256,47.9234217" id="Fill-85" fill="#263238" mask="url(#mask-2)"></path>
                    <path d="M67.12272,61.4448679 C67.03704,61.7676347 67.12272,62.0755046 67.36464,62.1301267 C67.60656,62.1847488 67.82832,61.9612948 67.90896,61.6335624 C67.9896,61.3058299 67.87872,60.9979601 67.662,60.9483036 C67.44528,60.8986472 67.20336,61.1171355 67.12272,61.4448679" id="Fill-86" fill="#263238" mask="url(#mask-2)"></path>
                    <path d="M81.42624,52.8692023 C81.58752,53.6190144 82.13184,54.1354413 82.6308,54.0311628 C83.12976,53.9268843 83.40192,53.2267286 83.2356,52.4818821 C83.06928,51.7370356 82.53,51.2106775 82.03104,51.3199216 C81.53208,51.4291658 81.25992,52.1392527 81.42624,52.8692023" id="Fill-87" fill="#263238" mask="url(#mask-2)"></path>
                    <path d="M83.00376,52.635817 C82.906488,52.6387964 82.825344,52.5633187 82.82232,52.4669852 C82.82232,52.4669852 82.82232,52.4669852 82.82232,52.4669852 C82.71648,49.7209845 81.65808,46.3095877 79.59672,45.3015622 C79.508016,45.2573679 79.472232,45.1511032 79.51608,45.0632113 C79.557912,44.9763125 79.662744,44.9390702 79.750944,44.9802851 C79.753464,44.9812782 79.75548,44.9827679 79.758,44.983761 C81.96552,46.0613056 83.06928,49.5124275 83.18016,52.4322257 C83.188728,52.5250832 83.118672,52.6070163 83.024424,52.6154579 C83.019384,52.6159545 83.01384,52.6159545 83.0088,52.6159545 L83.00376,52.635817 Z" id="Fill-88" fill="#263238" mask="url(#mask-2)"></path>
                    <path d="M80.88696,52.9337556 C80.9928,53.5743236 81.46152,54.0311628 81.93528,53.9566781 C82.40904,53.8821935 82.71144,53.3012132 82.6056,52.6556796 C82.49976,52.010146 82.026,51.5582725 81.55224,51.6327571 C81.07848,51.7072418 80.78112,52.288222 80.88696,52.9337556" id="Fill-89" fill="#FFFFFF" mask="url(#mask-2)"></path>
                    <path d="M80.84664,52.9883777 C80.99784,53.7828806 81.4212,54.3688265 81.78912,54.2993075 C82.15704,54.2297885 82.32336,53.5345985 82.17216,52.7400956 C82.02096,51.9455927 81.5976,51.3596468 81.22968,51.4291658 C80.86176,51.4986848 80.6904,52.1938748 80.84664,52.9883777" id="Fill-90" fill="#263238" mask="url(#mask-2)"></path>
                    <path d="M63.31248,60.5063614 C63.23184,60.8340938 63.34272,61.1419637 63.55944,61.1916201 C63.77616,61.2412766 64.01808,61.0277539 64.10376,60.6950558 C64.18944,60.3623577 64.07352,60.0644192 63.8568,60.0097971 C63.64008,59.955175 63.39816,60.1835946 63.31248,60.5063614" id="Fill-91" fill="#263238" mask="url(#mask-2)"></path>
                    <path d="M118.52064,20.0711295 C115.33032,20.6322472 114.92712,20.3442399 114.8868,18.0848722 C114.84648,15.8255046 113.68728,12.0565815 115.30008,10.8747584 C115.649352,10.5480191 116.201232,10.5624195 116.532864,10.9070351 C116.636688,11.0147896 116.710272,11.1473722 116.74656,11.2918725 C116.951184,10.7769353 117.530784,10.5122665 118.062,10.6910296 C118.12752,10.2242592 118.20312,9.02753919 119.07,8.70477239 C119.93688,8.38200558 120.7332,9.15664591 120.7332,9.15664591 C120.7332,9.15664591 120.66768,7.31439231 121.92768,7.49315546 C122.697792,7.61431716 123.31368,8.18784894 123.48,8.93815761 C123.48,8.93815761 124.20576,7.89537256 125.18856,8.30752094 C126.17136,8.71966932 125.96472,9.93128624 125.96472,9.93128624 C125.96472,9.93128624 127.008,9.43472192 127.78416,9.9958396 C128.56032,10.5569573 127.99584,11.4557387 127.99584,11.4557387 C127.99584,11.4557387 128.70144,9.66810715 130.04712,10.6562701 C131.25672,11.5500859 130.158,12.9503973 130.158,12.9503973 C130.158,12.9503973 131.48856,12.7368746 131.81112,13.3973051 C132.89976,15.6467415 128.75184,18.1593569 128.61576,21.9580739 C122.2452,24.3316513 118.52064,20.0711295 118.52064,20.0711295" id="Fill-92" fill="#263238" mask="url(#mask-2)"></path>
                    <path d="M95.52816,80.4434185 L93.40128,80.0560983 L90.58896,82.7027861 C90.279504,82.9932763 90.109152,83.3989693 90.12024,83.8200558 L90.16056,85.9850762 C90.17064,86.7522681 90.770904,87.3858842 91.54656,87.4499409 L92.52432,87.5343569 C93.258648,87.6028828 93.936024,87.1390917 94.12704,86.4369498 L94.63104,84.6691808 C94.63104,84.6691808 97.40808,81.4365471 95.52816,80.4434185" id="Fill-93" fill="#FFB573" mask="url(#mask-2)"></path>
                    <path d="M117.00864,40.8473803 C115.58232,44.4871967 114.16104,48.14191 112.79016,51.8065546 C111.41928,55.4711993 110.05848,59.1507408 108.78336,62.7706947 L108.55656,63.4410565 L108.40032,63.8780331 C108.33984,64.0418993 108.27936,64.2107312 108.22392,64.3398379 C107.98704,64.9307494 107.75016,65.4173824 107.51328,65.9089811 C107.03952,66.9021097 106.56072,67.7909598 106.07688,68.6897412 C105.10416,70.4773728 104.1012,72.2004509 103.08816,73.9185635 C101.07216,77.3597541 99.05616,80.7214945 96.9696,84.1328913 L90.55368,80.200102 C92.67048,76.957537 94.71168,73.6106936 96.6672,70.2688158 C97.62984,68.5904284 98.57736,66.9070754 99.45936,65.2386193 C99.89784,64.4043912 100.3212,63.5701632 100.69416,62.7557977 C100.87056,62.3635119 101.04696,61.9612948 101.16288,61.6335624 C101.2032,61.5392152 101.21832,61.4746618 101.24352,61.4101084 L101.32416,61.151895 L101.556,60.4269111 C102.77064,56.6132972 104.04576,52.92879 105.27552,49.1896607 L108.9648,38.0119981 L117.00864,40.8473803 Z" id="Fill-94" fill="#407BFF" mask="url(#mask-2)"></path>
                    <path d="M117.00864,40.8473803 C115.58232,44.4871967 114.16104,48.14191 112.79016,51.8065546 C111.41928,55.4711993 110.05848,59.1507408 108.78336,62.7706947 L108.55656,63.4410565 L108.40032,63.8780331 C108.33984,64.0418993 108.27936,64.2107312 108.22392,64.3398379 C107.98704,64.9307494 107.75016,65.4173824 107.51328,65.9089811 C107.03952,66.9021097 106.56072,67.7909598 106.07688,68.6897412 C105.10416,70.4773728 104.1012,72.2004509 103.08816,73.9185635 C101.07216,77.3597541 99.05616,80.7214945 96.9696,84.1328913 L90.55368,80.200102 C92.67048,76.957537 94.71168,73.6106936 96.6672,70.2688158 C97.62984,68.5904284 98.57736,66.9070754 99.45936,65.2386193 C99.89784,64.4043912 100.3212,63.5701632 100.69416,62.7557977 C100.87056,62.3635119 101.04696,61.9612948 101.16288,61.6335624 C101.2032,61.5392152 101.21832,61.4746618 101.24352,61.4101084 L101.32416,61.151895 L101.556,60.4269111 C102.77064,56.6132972 104.04576,52.92879 105.27552,49.1896607 L108.9648,38.0119981 L117.00864,40.8473803 Z" id="Fill-95" fill="#ADCBF5" mask="url(#mask-2)"></path>
                    <polygon id="Fill-96" fill="#FFB573" mask="url(#mask-2)" points="97.78608 173.752818 93.2652 173.971307 95.40216 162.371564 99.70128 163.34483"></polygon>
                    <polygon id="Fill-97" fill="#FFB573" mask="url(#mask-2)" points="130.21848 173.92165 125.6976 173.92165 125.71272 163.608009 130.22856 163.608009"></polygon>
                    <path d="M125.2692,173.405173 L130.77792,173.405173 C130.960872,173.402244 131.118624,173.530854 131.15088,173.708128 L131.87664,177.680642 C131.938128,178.054058 131.68008,178.406123 131.301072,178.466207 C131.262768,178.472662 131.224464,178.475145 131.18616,178.475145 C129.41208,178.445351 128.12184,178.341073 125.88912,178.341073 C124.51824,178.341073 120.34512,178.480111 118.47024,178.480111 C116.59536,178.480111 116.40384,176.632891 117.18504,176.464059 C120.71304,175.714247 123.36912,174.681394 124.52328,173.693231 C124.727904,173.510495 124.993008,173.408203 125.2692,173.405173" id="Fill-98" fill="#263238" mask="url(#mask-2)"></path>
                    <polygon id="Fill-99" fill="#000000" mask="url(#mask-2)" points="95.40216 162.37653 94.41432 167.739425 98.71344 168.712691 99.70128 163.349796"></polygon>
                    <polygon id="Fill-100" fill="#000000" mask="url(#mask-2)" points="125.70768 168.921248 130.22856 168.921248 130.22856 163.608009 125.70768 163.608009"></polygon>
                    <path d="M133.86744,40.7182736 C130.33944,56.3550837 131.27688,71.7883026 130.89888,75.1301804 L106.7724,73.5610371 C104.2524,54.6915933 107.06472,42.6548744 108.6624,37.7190251 C109.192608,36.0555347 110.656728,34.8473937 112.41216,34.6254295 C115.999632,34.2381093 119.612808,34.1268789 123.21792,34.2927314 C125.658792,34.436735 128.081016,34.7987304 130.45536,35.3752416 C132.893208,35.9249383 134.41932,38.3149023 133.86744,40.7182736" id="Fill-101" fill="#2B4F9E" mask="url(#mask-2)"></path>
                    <path d="M126.59472,23.696049 C125.7984,26.6406753 124.85592,31.8546006 126.37296,34.4913571 C126.60984,34.9035055 126.15624,35.2560661 126.13608,35.7327679 C126.08064,37.192667 124.07472,37.6296435 120.48624,37.6495061 C116.89776,37.6693687 115.36056,36.1945727 116.33832,34.8041926 C116.488008,34.5921597 116.715816,34.4461697 116.97336,34.3970099 C120.33504,33.6571291 120.40056,31.0600977 119.94192,28.5822418 L126.59472,23.696049 Z" id="Fill-102" fill="#FFB573" mask="url(#mask-2)"></path>
                    <path d="M120.2292,36.8401063 C121.17168,38.1316701 121.769928,39.6362599 121.968,41.2148379 C125.55144,39.5563131 127.26,35.5291765 127.26,35.5291765 L126.18144,34.3920442 C126.18144,34.3920442 122.19984,35.1319251 120.2292,36.8401063" id="Fill-103" fill="#000000" mask="url(#mask-2)"></path>
                    <path d="M119.8764,36.8550032 C118.556928,37.9131818 117.443592,39.1987868 116.59032,40.6487546 C114.08544,39.1193365 114.912,34.7595018 114.912,34.7595018 L116.9532,34.3622504 C116.9532,34.3622504 117.86544,35.1915128 119.8764,36.8550032" id="Fill-104" fill="#000000" mask="url(#mask-2)"></path>
                    <path d="M120.03768,36.7457591 L119.26656,36.8202437 L117.9612,37.6693687 C117.87804,38.1808299 117.970272,38.7052018 118.22328,39.1590616 C118.981296,39.3050515 119.75544,39.3566942 120.52656,39.3129966 C121.044168,39.0667007 121.45644,38.648097 121.6908,38.1311735 L120.7332,36.9245222 L120.03768,36.7457591 Z" id="Fill-105" fill="#263238" mask="url(#mask-2)"></path>
                    <path d="M120.03768,36.7457591 C121.005864,37.9394997 121.74876,39.2951202 122.23008,40.7480674 C125.81352,39.0895426 127.90008,35.1269594 127.90008,35.1269594 L126.17136,33.6372665 C126.17136,33.6372665 122.00832,35.0475091 120.03768,36.7457591" id="Fill-106" fill="#2B4F9E" mask="url(#mask-2)"></path>
                    <path d="M120.03768,36.7457591 C118.654704,37.6053119 117.4446,38.7096709 116.46936,40.003221 C113.94936,38.4787685 114.912,34.3721817 114.912,34.3721817 L116.9532,33.9749302 C116.9532,33.9749302 118.03176,35.0921999 120.03768,36.7457591" id="Fill-107" fill="#2B4F9E" mask="url(#mask-2)"></path>
                    <path d="M123.8832,25.6872718 L119.952,28.5772761 C120.070944,29.174643 120.136968,29.780948 120.14856,30.3897359 C121.5648,30.2854574 123.60096,28.9000429 123.84792,27.4500752 C123.96636,26.8690949 123.978456,26.2722246 123.8832,25.6872718" id="Fill-108" fill="#000000" mask="url(#mask-2)"></path>
                    <path d="M127.31544,18.8297187 C126.74592,23.2143816 126.64008,25.7816191 124.23096,27.9218113 C120.6072,31.0948572 115.22952,28.7212798 114.4584,24.2571666 C113.76288,20.2399613 114.8112,13.7449002 119.30184,12.2800354 C122.504256,11.2163947 125.9748,12.9121618 127.054368,16.0668349 C127.35828,16.9551884 127.447488,17.9011434 127.31544,18.8297187" id="Fill-109" fill="#FFB573" mask="url(#mask-2)"></path>
                    <path d="M126.2268,22.7923019 C125.2188,21.8339328 125.8488,17.2456785 126.35784,15.9297831 C123.83784,16.168134 115.6932,16.1582027 116.00064,13.9435259 C116.30808,11.728849 119.2716,9.8468703 124.11504,11.4011166 C128.14704,12.6971495 129.15504,14.6784411 129.15504,16.2972407 C129.21552,19.6242216 126.2268,22.7923019 126.2268,22.7923019" id="Fill-110" fill="#263238" mask="url(#mask-2)"></path>
                    <path d="M128.87784,22.8419583 C128.39904,23.7432226 127.581552,24.4240122 126.59976,24.738834 C125.31456,25.1311198 124.67952,23.9641937 125.0424,22.7128516 C125.36496,21.5906163 126.4284,20.0264387 127.7136,20.1853393 C128.9988,20.3442399 129.46752,21.7246886 128.87784,22.8419583" id="Fill-111" fill="#FFB573" mask="url(#mask-2)"></path>
                    <path d="M92.94264,166.378838 L100.41696,168.002604 C100.41696,168.002604 107.68464,139.941754 109.84176,126.226648 C110.502,122.055508 112.03416,116.101702 113.43024,109.840026 C115.1892,101.944653 117.40176,93.403747 119.21616,86.7150258 C121.13136,79.6687782 122.55264,74.6038222 122.55264,74.6038222 L106.7724,73.5759341 C106.7724,73.5759341 99.42912,110.277002 97.94736,123.788517 C96.40008,137.831356 92.94264,166.378838 92.94264,166.378838" id="Fill-112" fill="#263238" mask="url(#mask-2)"></path>
                    <path d="M113.43024,109.830094 C115.1892,101.934722 117.40176,93.3938158 119.21616,86.7050945 L117.558,83.2291443 C113.64192,87.8372611 112.63896,102.093623 113.43024,109.830094" id="Fill-113" fill="#000000" mask="url(#mask-2)"></path>
                    <path d="M114.29208,74.0526358 C114.29208,74.0526358 117.558,111.558138 118.82808,124.543295 C120.23928,138.764897 124.02432,167.898325 124.02432,167.898325 L131.61456,167.898325 C131.61456,167.898325 131.95728,136.872987 130.60656,123.138018 C130.41504,96.1348508 130.89384,75.135146 130.89384,75.135146 L114.29208,74.0526358 Z" id="Fill-114" fill="#263238" mask="url(#mask-2)"></path>
                    <polygon id="Fill-115" fill="#2B4F9E" mask="url(#mask-2)" points="123.05664 168.072123 132.804 168.072123 132.804 165.201981 122.67864 164.650795"></polygon>
                    <polygon id="Fill-116" fill="#2B4F9E" mask="url(#mask-2)" points="91.96488 166.349044 100.87056 168.285645 101.5056 165.450263 92.1816 163.136273"></polygon>
                    <path d="M120.8088,19.6142903 C120.8088,19.9718166 120.57192,20.2498926 120.33504,20.2349957 C120.09816,20.2200988 119.92176,19.9171945 119.94696,19.5596682 C119.97216,19.2021419 120.18384,18.9240659 120.42072,18.9389629 C120.6576,18.9538598 120.834,19.256764 120.8088,19.6142903" id="Fill-117" fill="#263238" mask="url(#mask-2)"></path>
                    <path d="M116.69616,19.3660082 C116.69616,19.7235345 116.45928,20.0016105 116.2224,19.9867135 C115.98552,19.9718166 115.80912,19.6689124 115.83432,19.3113861 C115.85952,18.9538598 116.0712,18.6757838 116.30808,18.6906807 C116.54496,18.7055776 116.72136,18.9886193 116.69616,19.3660082" id="Fill-118" fill="#263238" mask="url(#mask-2)"></path>
                    <path d="M117.63864,19.6142903 C117.130608,20.6794208 116.477928,21.6720528 115.69824,22.5638823 C116.298,23.1994846 117.41184,23.0008589 117.41184,23.0008589 L117.63864,19.6142903 Z" id="Fill-119" fill="#ED893E" mask="url(#mask-2)"></path>
                    <path d="M118.88352,24.0585409 C119.709072,24.012857 120.479184,23.6359647 121.01544,23.0157559 C121.054248,22.9755341 121.054248,22.9119739 121.01544,22.8717522 C120.973104,22.8325236 120.906576,22.8325236 120.86424,22.8717522 C120.257424,23.5540316 119.35728,23.9115579 118.44,23.835087 C118.38204,23.8291282 118.330128,23.8713362 118.32408,23.9284411 C118.32408,23.9289376 118.32408,23.9289376 118.32408,23.9294342 C118.321056,23.9880288 118.365408,24.0381818 118.42488,24.043644 C118.577088,24.0575478 118.730304,24.0625134 118.88352,24.0585409" id="Fill-120" fill="#263238" mask="url(#mask-2)"></path>
                    <path d="M121.81176,18.3728795 C121.847544,18.368907 121.881816,18.3569895 121.91256,18.33812 C122.011848,18.2745598 122.04108,18.1439634 121.97808,18.0451471 C121.61268,17.4656565 120.985704,17.0957161 120.29472,17.0520185 C120.17628,17.0698948 120.095136,17.1791389 120.11328,17.295335 C120.127896,17.3876959 120.20148,17.4596978 120.29472,17.4740981 C120.840552,17.5138233 121.333464,17.809279 121.62024,18.268601 C121.658544,18.3366303 121.733136,18.3768521 121.81176,18.3728795" id="Fill-121" fill="#263238" mask="url(#mask-2)"></path>
                    <path d="M114.66504,17.8415557 C114.736104,17.8365901 114.800112,17.7978581 114.8364,17.7372772 C115.096968,17.2690171 115.569216,16.9517125 116.10648,16.8831866 C116.222904,16.8727588 116.311104,16.7749356 116.30808,16.6597327 C116.300016,16.5435366 116.199216,16.4556447 116.08128,16.4611069 C115.394832,16.54304 114.79104,16.9482365 114.46344,17.5485828 C114.406992,17.6488888 114.442776,17.7750161 114.54408,17.8316244 C114.58188,17.8485076 114.62472,17.8519836 114.66504,17.8415557" id="Fill-122" fill="#263238" mask="url(#mask-2)"></path>
                    <path d="M124.62408,173.871994 C123.85296,174.025929 123.26328,173.996135 123.0264,173.792543 C122.917032,173.696707 122.867136,173.55171 122.89536,173.410189 C122.89536,173.330739 122.93568,173.300945 122.96592,173.286048 C123.23304,173.156941 124.04952,173.53433 124.62408,173.871994 M123.74208,174.179864 C124.143264,174.170429 124.542432,174.117297 124.93152,174.020963 C124.973352,174.011528 125.005104,173.978259 125.01216,173.936547 C125.023248,173.896822 125.00712,173.854614 124.97184,173.832269 C124.81056,173.72799 123.38928,172.83914 122.8752,173.097353 C122.7618,173.155948 122.68872,173.269165 122.68368,173.395292 C122.647392,173.603352 122.72148,173.814889 122.88024,173.95641 C123.132744,174.126731 123.43716,174.205685 123.74208,174.179864" id="Fill-123" fill="#407BFF" mask="url(#mask-2)"></path>
                    <path d="M124.06968,172.218435 C124.159392,172.219428 124.245576,172.253194 124.3116,172.312782 C124.63416,172.580927 124.75008,173.330739 124.78536,173.708128 C124.3368,173.360533 123.77736,172.620652 123.858,172.327679 C123.858,172.302851 123.858,172.238297 124.01928,172.2234 L124.06968,172.2234 L124.06968,172.218435 Z M124.90632,174.025929 C124.92396,174.032881 124.94412,174.032881 124.96176,174.025929 C124.996536,174.007059 125.018208,173.97081 125.0172,173.931581 C125.0172,173.876959 124.96176,172.590858 124.45272,172.168778 C124.328232,172.06152 124.16292,172.01236 123.99912,172.034706 C123.8328,172.035202 123.688656,172.148419 123.65136,172.307816 C123.53544,172.804381 124.39728,173.797509 124.85592,174.030894 C124.873056,174.03437 124.890192,174.032384 124.90632,174.025929 L124.90632,174.025929 Z" id="Fill-124" fill="#407BFF" mask="url(#mask-2)"></path>
                    <path d="M92.58984,172.009878 L97.89192,173.499571 C98.066304,173.54873 98.180712,173.71359 98.16408,173.891856 L97.77096,177.89913 C97.721568,178.277016 97.370784,178.544664 96.98724,178.496001 C96.95196,178.491532 96.917688,178.48458 96.88392,178.475145 C95.18544,177.978581 93.97584,177.526707 91.84392,176.925864 C90.52344,176.558407 86.22432,175.03892 84.65688,173.986204 C83.08944,172.933487 84.01176,171.309722 84.75264,171.607661 C88.08408,172.938453 90.42768,172.72493 91.80864,172.104225 C92.049552,171.982567 92.326248,171.949297 92.58984,172.009878" id="Fill-125" fill="#263238" mask="url(#mask-2)"></path>
                    <path d="M91.83888,172.287954 C91.05264,172.228366 90.4932,172.039671 90.32688,171.791389 C90.257832,171.665759 90.257832,171.514803 90.32688,171.389172 C90.35712,171.309722 90.39744,171.294825 90.43272,171.289859 C90.72,171.225306 91.3752,171.811252 91.83888,172.307816 L91.83888,172.287954 Z M90.90144,172.347541 C91.291032,172.442882 91.689696,172.498 92.09088,172.511408 C92.135232,172.514387 92.17656,172.490552 92.19672,172.45182 C92.220912,172.417557 92.220912,172.371873 92.19672,172.33761 C92.07072,172.198572 90.9468,170.967093 90.38736,171.071371 C90.260856,171.098682 90.157536,171.189057 90.1152,171.309722 C90.026496,171.498416 90.0396,171.718394 90.15048,171.895668 C90.342504,172.124584 90.607104,172.283485 90.90144,172.347541 L90.90144,172.347541 Z" id="Fill-126" fill="#407BFF" mask="url(#mask-2)"></path>
                    <path d="M91.75824,170.545013 C91.844424,170.568848 91.918512,170.62347 91.96488,170.698948 C92.2068,171.046543 92.106,171.801321 92.04048,172.188641 C91.7028,171.736767 91.38024,170.877711 91.53648,170.614532 C91.53648,170.589704 91.58184,170.535082 91.72296,170.554944 L91.75824,170.545013 Z M92.06568,172.506442 C92.085336,172.511408 92.106504,172.511408 92.12616,172.506442 C92.165976,172.496511 92.19672,172.46622 92.2068,172.426992 C92.2068,172.377335 92.51928,171.125993 92.15136,170.579772 C92.060136,170.445203 91.915488,170.354829 91.7532,170.33149 C91.592424,170.287296 91.422072,170.357312 91.33992,170.500322 C91.08792,170.94723 91.6524,172.119122 92.02032,172.486579 C92.033424,172.497007 92.049048,172.503463 92.06568,172.506442 L92.06568,172.506442 Z" id="Fill-127" fill="#407BFF" mask="url(#mask-2)"></path>
                    <path d="M126.67032,34.1040369 C126.475272,34.0732499 126.291816,34.2038464 126.260568,34.3965133 C126.255528,34.4243209 126.25452,34.4531216 126.25704,34.4814258 C126.43344,37.1430105 122.22504,41.9298905 121.21704,56.2657022 C120.61728,64.9853715 120.06792,92.1722676 120.47112,106.314419 C120.492288,106.988753 121.064832,107.518588 121.74876,107.497859 C121.850568,107.494256 121.950864,107.478862 122.04864,107.451551 C129.48768,105.405706 133.00056,110.366384 134.43192,104.516856 C134.35632,97.5103339 132.20424,72.3543859 132.75864,66.3906485 C133.31304,60.4269111 135.61632,44.2240176 136.19088,39.9039081 C136.69992,36.1498819 128.75184,34.4764602 126.67032,34.1040369" id="Fill-128" fill="#407BFF" mask="url(#mask-2)"></path>
                    <path d="M126.67032,34.1040369 C126.475272,34.0732499 126.291816,34.2038464 126.260568,34.3965133 C126.255528,34.4243209 126.25452,34.4531216 126.25704,34.4814258 C126.43344,37.1430105 122.22504,41.9298905 121.21704,56.2657022 C120.61728,64.9853715 120.06792,92.1722676 120.47112,106.314419 C120.492288,106.988753 121.064832,107.518588 121.74876,107.497859 C121.850568,107.494256 121.950864,107.478862 122.04864,107.451551 C129.48768,105.405706 133.00056,110.366384 134.43192,104.516856 C134.35632,97.5103339 132.20424,72.3543859 132.75864,66.3906485 C133.31304,60.4269111 135.61632,44.2240176 136.19088,39.9039081 C136.69992,36.1498819 128.75184,34.4764602 126.67032,34.1040369" id="Fill-129" fill="#ADCBF5" mask="url(#mask-2)"></path>
                    <path d="M131.57424,46.2549656 C131.24664,48.4696425 131.12064,57.4177314 133.2828,61.722944 C133.64568,58.7435581 134.11944,55.2030545 134.57808,51.7916577 L131.57424,46.2549656 Z" id="Fill-130" fill="#2B4F9E" mask="url(#mask-2)"></path>
                    <path d="M134.66376,84.9522225 L132.51672,85.2005046 L130.61664,88.5423824 C130.405968,88.9083503 130.36212,89.3448304 130.49568,89.7440681 L131.18112,91.7998443 C131.422032,92.5288007 132.185088,92.9583289 132.94512,92.7929729 L133.90272,92.5943472 C134.629488,92.4488539 135.142056,91.8053065 135.11232,91.0748604 L135.05184,89.2475038 C135.05184,89.2475038 136.75536,85.3693365 134.66376,84.9522225" id="Fill-131" fill="#FFB573" mask="url(#mask-2)"></path>
                    <path d="M135.84312,38.235452 C136.52856,40.2217093 137.1636,42.1831383 137.7936,44.1693955 C138.4236,46.1556528 139.0536,48.14191 139.64832,50.1281673 C140.24304,52.1144245 140.8176,54.1453726 141.3468,56.2160457 C141.60888,57.2538651 141.8508,58.3016158 142.08264,59.399023 C142.18848,59.9502094 142.29432,60.511327 142.38,61.1072042 C142.42032,61.4150741 142.46568,61.6981157 142.49088,62.0407451 L142.53624,62.5373094 L142.56144,63.0984271 C142.57152,63.2871215 142.57152,63.475816 142.56144,63.6645104 C142.56144,63.8631361 142.56144,64.0518306 142.53624,64.2057655 L142.49088,64.7023298 L142.43544,65.1492377 C142.36488,65.7500805 142.27416,66.2963013 142.18344,66.842522 C142.002,67.9250322 141.79032,68.9678173 141.5736,70.000671 C141.14016,72.0663786 140.65632,74.0873953 140.16744,76.0984808 C139.67856,78.1095662 139.15944,80.1156861 138.65544,82.1168402 L137.14344,88.1203028 L129.84552,86.168805 C130.97448,82.2906377 132.00264,78.3429515 132.9552,74.4200934 C133.41888,72.4338362 133.85232,70.4873041 134.2404,68.5457376 C134.43192,67.552609 134.61336,66.6091368 134.7444,65.6755959 C134.82,65.2088254 134.88048,64.7470206 134.9208,64.3299066 C134.960112,64.0001879 134.973216,63.6684829 134.96112,63.336778 L134.96112,63.128221 L134.92584,62.8600762 C134.92584,62.6912444 134.86536,62.4677904 134.83512,62.2741303 C134.76456,61.8570163 134.67384,61.4150741 134.57304,60.9632006 C134.3664,60.0594535 134.11944,59.1259126 133.85232,58.1874061 C133.34832,56.3054273 132.70824,54.3986204 132.05808,52.5017447 C130.77288,48.7079933 129.3264,44.8894138 127.83456,41.1751127 L135.84312,38.235452 Z" id="Fill-132" fill="#407BFF" mask="url(#mask-2)"></path>
                    <path d="M135.84312,38.235452 C136.52856,40.2217093 137.1636,42.1831383 137.7936,44.1693955 C138.4236,46.1556528 139.0536,48.14191 139.64832,50.1281673 C140.24304,52.1144245 140.8176,54.1453726 141.3468,56.2160457 C141.60888,57.2538651 141.8508,58.3016158 142.08264,59.399023 C142.18848,59.9502094 142.29432,60.511327 142.38,61.1072042 C142.42032,61.4150741 142.46568,61.6981157 142.49088,62.0407451 L142.53624,62.5373094 L142.56144,63.0984271 C142.57152,63.2871215 142.57152,63.475816 142.56144,63.6645104 C142.56144,63.8631361 142.56144,64.0518306 142.53624,64.2057655 L142.49088,64.7023298 L142.43544,65.1492377 C142.36488,65.7500805 142.27416,66.2963013 142.18344,66.842522 C142.002,67.9250322 141.79032,68.9678173 141.5736,70.000671 C141.14016,72.0663786 140.65632,74.0873953 140.16744,76.0984808 C139.67856,78.1095662 139.15944,80.1156861 138.65544,82.1168402 L137.14344,88.1203028 L129.84552,86.168805 C130.97448,82.2906377 132.00264,78.3429515 132.9552,74.4200934 C133.41888,72.4338362 133.85232,70.4873041 134.2404,68.5457376 C134.43192,67.552609 134.61336,66.6091368 134.7444,65.6755959 C134.82,65.2088254 134.88048,64.7470206 134.9208,64.3299066 C134.960112,64.0001879 134.973216,63.6684829 134.96112,63.336778 L134.96112,63.128221 L134.92584,62.8600762 C134.92584,62.6912444 134.86536,62.4677904 134.83512,62.2741303 C134.76456,61.8570163 134.67384,61.4150741 134.57304,60.9632006 C134.3664,60.0594535 134.11944,59.1259126 133.85232,58.1874061 C133.34832,56.3054273 132.70824,54.3986204 132.05808,52.5017447 C130.77288,48.7079933 129.3264,44.8894138 127.83456,41.1751127 L135.84312,38.235452 Z" id="Fill-133" fill="#ADCBF5" mask="url(#mask-2)"></path>
                    <path d="M116.86752,33.7315958 C117.190584,33.7291309 117.454176,33.9853581 117.4567,34.3031592 C117.4572,34.436735 117.411336,34.5663383 117.32616,34.6701202 C116.12664,36.0406377 115.37064,37.9226165 113.94936,43.9608385 C112.23576,51.245437 108.5868,87.8968488 107.90136,105.85758 C107.888256,106.427636 107.408448,106.880006 106.829856,106.867365 C106.77492,106.865606 106.720488,106.860143 106.66656,106.850709 C103.10832,106.205175 100.66896,107.903425 100.28088,105.653989 C99.85248,103.171167 101.45016,79.4552555 104.43888,68.3024211 C103.97016,58.41086 105.6636,38.5681501 109.04544,35.9313936 C110.88,34.4665289 114.78096,33.7663732 116.86752,33.7315958" id="Fill-134" fill="#407BFF" mask="url(#mask-2)"></path>
                    <path d="M116.86752,33.7315958 C117.190584,33.7291309 117.454176,33.9853581 117.4567,34.3031592 C117.4572,34.436735 117.411336,34.5663383 117.32616,34.6701202 C116.12664,36.0406377 115.37064,37.9226165 113.94936,43.9608385 C112.23576,51.245437 108.5868,87.8968488 107.90136,105.85758 C107.888256,106.427636 107.408448,106.880006 106.829856,106.867365 C106.77492,106.865606 106.720488,106.860143 106.66656,106.850709 C103.10832,106.205175 100.66896,107.903425 100.28088,105.653989 C99.85248,103.171167 101.45016,79.4552555 104.43888,68.3024211 C103.97016,58.41086 105.6636,38.5681501 109.04544,35.9313936 C110.88,34.4665289 114.78096,33.7663732 116.86752,33.7315958" id="Fill-135" fill="#ADCBF5" mask="url(#mask-2)"></path>
                    <path d="M118.82808,38.652566 C118.82808,38.652566 114.47352,50.7041819 112.94136,60.8043 C112.8204,63.5503006 114.14592,68.8685044 115.21944,71.1874597 C117.46224,66.3757516 118.86336,63.5403693 119.08512,60.8043 C119.44296,56.6877818 120.03264,38.7320163 120.03264,38.7320163 L118.82808,38.652566 Z" id="Fill-136" fill="#263238" mask="url(#mask-2)"></path>
                    <path d="M127.9404,52.9883777 C127.829016,52.9849018 127.741824,52.8930374 127.745352,52.7832967 C127.747872,52.7132811 127.787688,52.6497209 127.84968,52.6159545 L128.67624,52.1889092 C130.25628,51.3879509 131.167512,49.7070807 130.9644,47.9681125 L130.06728,39.9634958 C129.904488,38.4966448 128.565864,37.4374732 127.077552,37.5978634 C126.063,37.7071076 125.196624,38.3680347 124.83576,39.3080309 L121.93272,46.8309802 C121.29264,48.4631871 121.744224,50.3158686 123.06672,51.4837878 L123.76224,52.1044932 C123.838848,52.1814607 123.838848,52.3051052 123.76224,52.3825693 C123.683616,52.458047 123.558624,52.458047 123.48,52.3825693 L122.78448,51.7668295 C121.343544,50.485197 120.856176,48.4597112 121.55976,46.6770453 L124.488,39.1689929 C125.104896,37.586939 126.906192,36.7969052 128.51244,37.4042033 C129.597048,37.814862 130.360104,38.7861418 130.49064,39.9237707 L131.38776,47.9234217 C131.604984,49.8292356 130.60152,51.6690063 128.86776,52.5414698 L128.0412,52.9635495 C128.011464,52.9824189 127.97568,52.9913571 127.9404,52.9883777" id="Fill-137" fill="#263238" mask="url(#mask-2)"></path>
                    <path d="M130.44024,41.7114123 C130.340952,41.7123953 130.25628,41.6398969 130.24368,41.5425703 C130.002768,40.2182333 128.879352,39.2241116 127.51704,39.1292678 C126.39816,38.9902298 124.87608,39.3378248 124.26624,40.7877926 C124.23096,40.8915745 124.116552,40.9476863 124.010712,40.9129268 C123.905376,40.8781673 123.848424,40.7654472 123.884208,40.6611687 C123.886728,40.6537202 123.889752,40.6462717 123.89328,40.6388233 C124.811064,38.8899238 126.994392,38.2051616 128.769984,39.1094052 C129.717504,39.5925623 130.400928,40.4625429 130.6368,41.4879482 C130.65192,41.5932199 130.577328,41.6910431 130.47048,41.7064365 L130.44024,41.7114123 Z" id="Fill-138" fill="#263238" mask="url(#mask-2)"></path>
                    <path d="M127.72872,37.6048153 L127.72872,37.6048153 C127.62036,37.5998497 127.536696,37.5089784 127.541736,37.4022171 C127.541736,37.4002308 127.54224,37.3982446 127.54224,37.3962583 C127.60272,36.4279579 127.4616,34.6651546 126.53424,34.2083154 C126.435456,34.1576659 126.397152,34.0374973 126.44856,33.9401707 C126.499968,33.8428441 126.621936,33.8051052 126.72072,33.8557548 C128.06136,34.5360479 127.9404,37.1281136 127.92024,37.4210865 C127.9152,37.5223857 127.831536,37.6023325 127.72872,37.6048153" id="Fill-139" fill="#263238" mask="url(#mask-2)"></path>
                    <path d="M124.07472,52.303119 C124.02432,52.6755422 123.78744,52.9486526 123.54048,52.9138931 C123.29352,52.8791336 123.13224,52.5613324 123.18264,52.1938748 C123.23304,51.8264172 123.46488,51.5483412 123.71184,51.5831007 C123.9588,51.6178602 124.12008,51.9356614 124.07472,52.303119" id="Fill-140" fill="#263238" mask="url(#mask-2)"></path>
                    <path d="M112.35672,44.2538115 C112.0392,45.0433487 111.34872,45.5200505 110.84472,45.3164591 C110.34072,45.1128677 110.14416,44.3233305 110.46168,43.5139306 C110.7792,42.7045308 111.46968,42.2476916 111.97368,42.451283 C112.47768,42.6548744 112.6692,43.4642742 112.35672,44.2538115" id="Fill-141" fill="#263238" mask="url(#mask-2)"></path>
                    <path d="M110.69856,43.7423502 L110.65824,43.7423502 C110.54988,43.7200048 110.480328,43.6157263 110.502,43.508965 C111.16728,40.2465375 113.91912,35.0673717 116.34336,33.5776788 C116.427528,33.5061735 116.55504,33.5151117 116.627616,33.5980379 C116.700696,33.6814607 116.69112,33.8065949 116.606952,33.8785967 C116.591328,33.8915074 116.573688,33.9024318 116.55504,33.9103769 C114.21144,35.3653103 111.54528,40.3657129 110.89512,43.578484 C110.877984,43.6723347 110.795328,43.7413571 110.69856,43.7423502" id="Fill-142" fill="#263238" mask="url(#mask-2)"></path>
                    <path d="M112.93128,44.4176777 C112.69944,45.0979708 112.10472,45.5200505 111.60072,45.3561842 C111.09672,45.192318 110.86992,44.5020936 111.09672,43.8168349 C111.32352,43.1315761 111.92328,42.7144621 112.42728,42.8783283 C112.93128,43.0421945 113.16312,43.7324189 112.93128,44.4176777" id="Fill-143" fill="#FFFFFF" mask="url(#mask-2)"></path>
                    <path d="M112.96656,44.4871967 C112.65912,45.3263904 112.0896,45.8974393 111.70152,45.7584013 C111.31344,45.6193633 111.24792,44.8248604 111.5604,43.9807011 C111.87288,43.1365418 112.43736,42.5704584 112.82544,42.7094965 C113.21352,42.8485345 113.27904,43.6430374 112.96656,44.4871967" id="Fill-144" fill="#263238" mask="url(#mask-2)"></path>
                    <path d="M128.38896,52.8493397 C128.3436,53.2167973 128.10168,53.4899077 127.85472,53.4601138 C127.60776,53.4303199 127.44648,53.1025875 127.49688,52.7351299 C127.54728,52.3676723 127.78416,52.0945619 128.03112,52.1243558 C128.27808,52.1541497 128.43936,52.4769165 128.38896,52.8493397" id="Fill-145" fill="#263238" mask="url(#mask-2)"></path>
                    <path d="M156.96576,31.3332081 C158.64912,35.8668402 154.1736,38.1460704 151.24032,44.8248604 C148.30704,51.5036504 155.3832,59.468542 166.2444,59.6423395 C177.1056,59.816137 177.44832,49.5670496 175.76496,42.2129321 C174.0816,34.8588147 177.59952,33.6620947 176.8536,28.0459523 C175.896,20.6670067 165.10536,15.0756925 160.82136,21.8488297 C157.01112,21.4962691 155.49408,27.3706249 156.96576,31.3332081" id="Fill-146" fill="#263238" mask="url(#mask-2)"></path>
                    <path d="M189.13608,92.360962 L189.13608,91.7849474 C189.126,91.5083611 189.05544,91.2377335 188.92944,90.9904445 L187.10496,87.4449753 L184.968,87.0477239 C183.456,88.6516266 184.968,91.8495008 184.968,91.8495008 L184.968,92.360962 C184.968504,93.2220045 185.548608,93.9777754 186.38928,94.2131469 L186.67656,94.2975628 C187.723368,94.5696801 188.796384,93.9539403 189.072576,92.9225762 C189.121464,92.739344 189.143136,92.550153 189.13608,92.360962" id="Fill-147" fill="#FFC3BD" mask="url(#mask-2)"></path>
                    <path d="M180.0792,46.75153 L180.86544,52.1839435 L181.692,57.6014602 C181.96416,59.4139199 182.25144,61.2164484 182.54376,63.0239425 L183.41568,68.4066996 L183.52152,68.9380234 C183.5568,69.1118209 183.61728,69.3352749 183.66264,69.5289349 L183.81384,70.139709 L183.99024,70.7703457 C184.21704,71.6045738 184.49424,72.4685957 184.73616,73.3226863 C185.24016,75.0358332 185.81976,76.7688426 186.38928,78.4919208 C187.54848,81.9331114 188.75808,85.3891991 190.04832,88.7856989 L182.92176,91.2685205 L179.35344,80.771151 C178.76376,79.0182789 178.164,77.2654069 177.59448,75.4777754 C177.31224,74.578994 177.03,73.6901439 176.76288,72.7615686 L176.55624,72.0713442 L176.35968,71.351326 C176.29416,71.1030438 176.2236,70.8845555 176.16312,70.6114451 L175.97664,69.7970797 L174.92328,64.3348722 C174.587112,62.5338335 174.236328,60.7332913 173.86992,58.9322525 L172.79136,53.5296328 L171.66744,48.1667382 L180.0792,46.75153 Z" id="Fill-148" fill="#407BFF" mask="url(#mask-2)"></path>
                    <path d="M180.0792,46.75153 L180.86544,52.1839435 L181.692,57.6014602 C181.96416,59.4139199 182.25144,61.2164484 182.54376,63.0239425 L183.41568,68.4066996 L183.52152,68.9380234 C183.5568,69.1118209 183.61728,69.3352749 183.66264,69.5289349 L183.81384,70.139709 L183.99024,70.7703457 C184.21704,71.6045738 184.49424,72.4685957 184.73616,73.3226863 C185.24016,75.0358332 185.81976,76.7688426 186.38928,78.4919208 C187.54848,81.9331114 188.75808,85.3891991 190.04832,88.7856989 L182.92176,91.2685205 L179.35344,80.771151 C178.76376,79.0182789 178.164,77.2654069 177.59448,75.4777754 C177.31224,74.578994 177.03,73.6901439 176.76288,72.7615686 L176.55624,72.0713442 L176.35968,71.351326 C176.29416,71.1030438 176.2236,70.8845555 176.16312,70.6114451 L175.97664,69.7970797 L174.92328,64.3348722 C174.587112,62.5338335 174.236328,60.7332913 173.86992,58.9322525 L172.79136,53.5296328 L171.66744,48.1667382 L180.0792,46.75153 Z" id="Fill-149" fill="#ADCBF5" mask="url(#mask-2)"></path>
                    <path d="M178.9452,46.3344159 C179.18208,48.9811037 178.9704,55.5655465 176.274,71.8876154 L157.626,71.8876154 C157.92336,64.796677 157.94352,60.2779418 154.854,46.7465643 C154.570248,45.5165745 155.352456,44.2925435 156.600864,44.0129778 C156.64824,44.0025499 156.69612,43.9931152 156.744,43.9856667 C158.564952,43.6912041 160.40052,43.4935715 162.24264,43.3947552 C165.06504,43.1961295 167.898024,43.1961295 170.71992,43.3947552 C173.03832,43.6033122 175.55328,44.0154606 177.07536,44.288571 C178.094448,44.4792517 178.859016,45.3159625 178.9452,46.3344159" id="Fill-150" fill="#263238" mask="url(#mask-2)"></path>
                    <path d="M163.06416,33.9898271 C163.5984,36.6762401 164.13264,41.602158 162.22248,43.3947552 C162.22248,43.3947552 164.61144,46.2549656 168.27048,46.2549656 C171.92952,46.2549656 170.7048,43.3947552 170.7048,43.3947552 C167.6808,42.6797026 167.74128,40.4550945 168.27048,38.3695244 L163.06416,33.9898271 Z" id="Fill-151" fill="#FFC3BD" mask="url(#mask-2)"></path>
                    <path d="M165.186,35.7774587 L168.26544,38.3645587 C168.134904,38.8526814 168.047208,39.351232 168.00336,39.8542517 C166.83912,39.6903854 165.01464,38.7121537 164.76264,37.4657773 C164.64672,36.8748658 165.0852,36.0555347 165.186,35.7774587" id="Fill-152" fill="#000000" mask="url(#mask-2)"></path>
                    <path d="M159.85368,28.7163142 C160.56432,33.1555991 160.77096,35.0475091 163.28088,37.1231479 C167.06088,40.2465375 172.43856,38.4142152 173.08872,33.8557548 C173.67336,29.7541336 172.40832,23.1796221 167.80176,21.8240015 C164.512656,20.8383213 161.03556,22.6661746 160.035624,25.9067533 C159.754392,26.8164591 159.6924,27.7783042 159.85368,28.7163142" id="Fill-153" fill="#FFC3BD" mask="url(#mask-2)"></path>
                    <path d="M160.60464,31.9141883 C163.18512,29.3966073 164.07216,25.8958289 163.83024,24.4657236 C166.31496,25.1460167 168.13944,24.182682 168.02856,23.765568 C169.78248,25.4538866 172.96272,26.7896446 172.60488,24.9722192 C172.24704,23.1547939 169.89336,19.8029848 164.9844,20.9997047 C160.07544,22.1964247 158.18544,27.1620679 158.256,29.178119 C158.32656,31.1941701 160.60464,31.9141883 160.60464,31.9141883" id="Fill-154" fill="#263238" mask="url(#mask-2)"></path>
                    <path d="M166.32,29.2178441 C166.35528,29.5853017 166.57704,29.8584121 166.824,29.8385495 C167.07096,29.8186869 167.23224,29.5008858 167.19696,29.1383938 C167.16168,28.7759019 166.93488,28.4978259 166.69296,28.5176884 C166.45104,28.537551 166.32,28.8553522 166.32,29.2178441" id="Fill-155" fill="#263238" mask="url(#mask-2)"></path>
                    <path d="M170.50824,28.8255583 C170.54352,29.1880502 170.77032,29.4661263 171.01224,29.441298 C171.25416,29.4164698 171.42048,29.1086 171.3852,28.746108 C171.34992,28.3836161 171.12312,28.10554 170.8812,28.1254026 C170.63928,28.1452652 170.47296,28.4630664 170.50824,28.8255583" id="Fill-156" fill="#263238" mask="url(#mask-2)"></path>
                    <path d="M170.7804,28.1551965 L171.64224,27.8224984 C171.64224,27.8224984 171.24912,28.5474823 170.7804,28.1551965" id="Fill-157" fill="#263238" mask="url(#mask-2)"></path>
                    <path d="M169.28856,29.6001986 C169.695792,30.3996672 170.2134,31.139548 170.82576,31.7999785 C170.470944,32.1028828 169.9992,32.2369551 169.53552,32.1674361 L169.28856,29.6001986 Z" id="Fill-158" fill="#ED847E" mask="url(#mask-2)"></path>
                    <path d="M167.66064,33.7663732 C167.843592,33.7787873 168.027048,33.7787873 168.21,33.7663732 C168.269472,33.7584282 168.311808,33.7057924 168.30576,33.6471978 C168.303744,33.5925757 168.256872,33.5498712 168.200928,33.5518574 C168.1974,33.5518574 168.193368,33.552354 168.18984,33.5528505 C167.25996,33.6591153 166.333608,33.3234378 165.69504,32.6491035 C165.64968,32.6083852 165.579624,32.6118612 165.538296,32.656552 C165.506544,32.6913115 165.500496,32.7424576 165.52368,32.7831759 C166.074552,33.3785565 166.843656,33.7326068 167.66064,33.7663732" id="Fill-159" fill="#263238" mask="url(#mask-2)"></path>
                    <path d="M158.85576,32.3263367 C159.192432,33.1302743 159.837048,33.7708423 160.65,34.1090026 C161.72856,34.5459792 162.40896,33.6124383 162.22248,32.5547563 C162.05616,31.5616277 161.29008,30.1861445 160.15104,30.2060071 C159.31692,30.2462288 158.673816,30.9448948 158.71464,31.7667087 C158.724216,31.9603688 158.772096,32.1505529 158.85576,32.3263367" id="Fill-160" fill="#FFC3BD" mask="url(#mask-2)"></path>
                    <path d="M164.8836,27.3110371 C164.972304,27.3418241 165.071592,27.3140165 165.13056,27.2415181 C165.7656,26.4718435 167.06088,26.5463281 167.07096,26.5463281 C167.189904,26.5522869 167.292216,26.464395 167.3028,26.3477024 C167.313888,26.232996 167.228712,26.1312003 167.112288,26.1202759 C167.10876,26.1197794 167.104728,26.1192828 167.1012,26.1192828 C167.04072,26.1192828 165.564,26.0299012 164.79288,26.9733734 C164.718288,27.0657344 164.731392,27.1998067 164.82312,27.2762776 L164.8836,27.3110371 Z" id="Fill-161" fill="#263238" mask="url(#mask-2)"></path>
                    <path d="M172.02528,26.8591636 C172.144728,26.8661155 172.247544,26.7767339 172.2546,26.6590482 C172.25964,26.5820807 172.22184,26.5085892 172.15632,26.4668778 C171.58428,26.0691298 170.852472,25.9673341 170.19072,26.1937674 C170.080344,26.2414376 170.028936,26.3670684 170.0748,26.4768091 C170.120664,26.5860533 170.247168,26.6376959 170.357544,26.5930052 C170.359056,26.592012 170.360568,26.5915155 170.36208,26.5910189 C170.887752,26.4187111 171.464832,26.5056098 171.9144,26.8244041 C171.947664,26.8457564 171.985968,26.8576739 172.02528,26.8591636" id="Fill-162" fill="#263238" mask="url(#mask-2)"></path>
                    <polygon id="Fill-163" fill="#FFC3BD" mask="url(#mask-2)" points="187.86096 174.686359 192.5028 174.467871 191.12688 164.139333 186.49008 164.362787"></polygon>
                    <polygon id="Fill-164" fill="#000000" mask="url(#mask-2)" points="191.12688 164.144299 191.83752 169.467468 187.19568 169.685957 186.48504 164.362787"></polygon>
                    <path d="M176.274,71.8876154 C176.274,71.8876154 182.11536,106.771258 184.49424,120.372155 C186.97392,134.514306 192.55824,167.799012 192.55824,167.799012 L186.41952,168.792141 C186.41952,168.792141 178.14384,135.472676 174.82752,121.618531 C171.22896,106.498148 162.50976,86.2234271 162.60048,71.9273406 L176.274,71.8876154 Z" id="Fill-165" fill="#2B4F9E" mask="url(#mask-2)"></path>
                    <path d="M166.89456,82.593542 C166.0176,81.3372343 164.3292,79.574431 163.03392,78.1244632 C164.20824,87.0129644 167.56992,97.3266051 170.63928,107.039403 C171.45576,99.6405948 170.99208,88.4182414 166.89456,82.593542" id="Fill-166" fill="#000000" mask="url(#mask-2)"></path>
                    <polygon id="Fill-167" fill="#FFC3BD" mask="url(#mask-2)" points="159.22368 173.986204 163.82016 173.986204 164.1276 163.498765 159.52608 163.498765"></polygon>
                    <path d="M164.03688,173.300932 L158.87088,173.300932 C158.685912,173.299455 158.52816,173.433031 158.50296,173.61378 L157.91328,177.635951 C157.871448,178.039658 158.169816,178.40066 158.579568,178.441379 C158.604264,178.443861 158.629464,178.445351 158.65416,178.445351 C160.45344,178.410592 161.32032,178.306313 163.59336,178.306313 C164.98944,178.306313 167.87736,178.450317 169.80768,178.450317 C171.738,178.450317 171.82368,176.573304 171.03744,176.399506 C167.43384,175.639763 165.99744,174.587046 164.80296,173.579021 C164.588256,173.401747 164.317104,173.303428 164.03688,173.300932" id="Fill-168" fill="#263238" mask="url(#mask-2)"></path>
                    <polygon id="Fill-169" fill="#000000" mask="url(#mask-2)" points="164.12256 163.503731 163.96632 168.911316 159.36984 168.911316 159.52608 163.503731"></polygon>
                    <path d="M171.02736,71.8876154 C171.02736,71.8876154 169.16256,107.218166 167.90256,120.972998 C166.58712,135.283981 165.00456,167.714596 165.00456,167.714596 L158.7852,167.714596 C158.7852,167.714596 157.6764,135.408122 158.10984,121.295764 C158.57856,105.902271 154.82376,86.183702 157.35888,71.8876154 L171.02736,71.8876154 Z" id="Fill-170" fill="#2B4F9E" mask="url(#mask-2)"></path>
                    <polygon id="Fill-171" fill="#263238" mask="url(#mask-2)" points="158.24592 167.933085 165.5388 168.067157 165.64968 163.68746 158.21568 164.144299"></polygon>
                    <path d="M166.58208,173.171838 C166.651632,173.169852 166.720176,173.183756 166.78368,173.211563 C166.827024,173.233909 166.85424,173.277606 166.85424,173.325773 C166.87692,173.453887 166.82904,173.583986 166.72824,173.668402 C166.45104,173.916685 165.69504,173.961375 164.67696,173.792543 C165.271176,173.479708 165.915792,173.269661 166.58208,173.171838 Z M165.76056,174.110345 C166.153176,174.146097 166.546296,174.047778 166.8744,173.832269 C167.025096,173.700183 167.09868,173.50255 167.07096,173.30591 C167.0634,173.187232 166.99536,173.08047 166.88952,173.022869 C166.32504,172.714999 164.49048,173.638609 164.28384,173.747853 C164.244528,173.769702 164.222352,173.812903 164.2284,173.857097 C164.234448,173.902284 164.26872,173.938037 164.31408,173.946478 C164.789856,174.046288 165.2742,174.101406 165.76056,174.110345 L165.76056,174.110345 Z" id="Fill-172" fill="#407BFF" mask="url(#mask-2)"></path>
                    <path d="M165.43296,172.114156 L165.49848,172.114156 C165.69504,172.114156 165.71016,172.208503 165.71016,172.238297 C165.7656,172.546167 165.02976,173.310876 164.47032,173.643574 C164.513664,173.130127 164.717784,172.642501 165.05496,172.248228 C165.160296,172.15984 165.294864,172.11217 165.43296,172.114156 M164.33424,173.951444 L164.3796,173.951444 C164.92896,173.708128 166.01256,172.729896 165.92688,172.218435 C165.92688,172.094294 165.82104,171.945324 165.51864,171.91553 C165.299904,171.890702 165.080664,171.957242 164.91384,172.099259 C164.33928,172.570995 164.23344,173.792543 164.2284,173.8422 C164.224368,173.880932 164.242008,173.918671 164.27376,173.941513 C164.292912,173.949458 164.313576,173.952934 164.33424,173.951444" id="Fill-173" fill="#407BFF" mask="url(#mask-2)"></path>
                    <path d="M192.44736,173.300945 L187.28136,173.300945 C187.125624,173.29151 186.992064,173.408203 186.982488,173.561145 C186.980976,173.579021 186.981984,173.596401 186.984,173.61378 L187.24608,177.635951 C187.30908,178.086832 187.691616,178.427971 188.15328,178.445351 C189.94752,178.410592 190.79424,178.306313 193.06224,178.306313 C194.46336,178.306313 197.38152,178.450317 199.31184,178.450317 C201.24216,178.450317 200.9448,176.573304 200.10816,176.399506 C196.34328,175.639763 194.70024,174.587046 193.27392,173.579021 C193.033512,173.405223 192.745224,173.308393 192.44736,173.300945" id="Fill-174" fill="#263238" mask="url(#mask-2)"></path>
                    <path d="M194.99256,173.171838 C195.062112,173.168859 195.13116,173.182763 195.19416,173.211563 C195.238512,173.233412 195.267744,173.27711 195.26976,173.325773 C195.2874,173.45339 195.240528,173.581504 195.14376,173.668402 C194.86152,173.916685 194.10552,173.961375 193.08744,173.792543 C193.68216,173.480701 194.326272,173.270654 194.99256,173.171838 M194.17104,174.110345 C194.565168,174.145601 194.9598,174.047778 195.28992,173.832269 C195.439104,173.699189 195.512184,173.50255 195.48648,173.30591 C195.477408,173.186735 195.406848,173.079974 195.3,173.022869 C194.73552,172.714999 192.906,173.638609 192.69936,173.747853 C192.658032,173.768212 192.63384,173.811909 192.63888,173.857097 C192.647448,173.900795 192.680712,173.935554 192.72456,173.946478 C193.200336,174.046288 193.68468,174.101406 194.17104,174.110345" id="Fill-175" fill="#407BFF" mask="url(#mask-2)"></path>
                    <path d="M193.84344,172.114156 L193.90896,172.114156 C194.10552,172.114156 194.12064,172.208503 194.12568,172.238297 C194.17608,172.546167 193.44024,173.310876 192.8808,173.643574 C192.92616,173.130623 193.129776,172.643494 193.46544,172.248228 C193.57128,172.160337 193.705344,172.113163 193.84344,172.114156 Z M192.74976,173.951444 L192.79512,173.951444 C193.33944,173.708128 194.42304,172.729896 194.33736,172.218435 C194.33736,172.094294 194.23152,171.945324 193.92912,171.91553 C193.711896,171.890702 193.494168,171.957738 193.32936,172.099259 C192.74976,172.570995 192.64392,173.792543 192.63888,173.8422 C192.637872,173.880435 192.654504,173.917181 192.68424,173.941513 C192.704904,173.949954 192.727584,173.95343 192.74976,173.951444 L192.74976,173.951444 Z" id="Fill-176" fill="#407BFF" mask="url(#mask-2)"></path>
                    <polygon id="Fill-177" fill="#263238" mask="url(#mask-2)" points="185.90544 169.075183 193.1076 167.933085 192.29616 164.139333 185.15952 165.797858"></polygon>
                    <path d="M166.60728,28.5474823 L167.46912,28.2147842 C167.46912,28.2147842 167.08104,28.9397681 166.60728,28.5474823" id="Fill-178" fill="#263238" mask="url(#mask-2)"></path>
                    <path d="M157.3236,70.8100709 L156.84984,72.4586644 C156.78432,72.5828055 156.93552,72.7168778 157.15224,72.7168778 L176.36472,72.7168778 C176.53608,72.7168778 176.67216,72.6324619 176.68224,72.5281834 L176.8536,70.8845555 C176.8536,70.7703457 176.71752,70.6710329 176.53608,70.6710329 L157.63104,70.6710329 C157.511088,70.660605 157.39416,70.7137374 157.3236,70.8100709" id="Fill-179" fill="#263238" mask="url(#mask-2)"></path>
                    <path d="M159.92928,72.8906753 L159.42528,72.8906753 C159.32448,72.8906753 159.24888,72.8410189 159.25392,72.7814312 L159.4908,70.641239 C159.4908,70.5766856 159.58656,70.5270292 159.68736,70.5270292 L160.19136,70.5270292 C160.29216,70.5270292 160.36776,70.5766856 160.36272,70.641239 L160.1208,72.7814312 C160.11576,72.8410189 160.03008,72.8906753 159.92928,72.8906753" id="Fill-180" fill="#407BFF" mask="url(#mask-2)"></path>
                    <path d="M174.94344,72.8906753 L174.43944,72.8906753 C174.33864,72.8906753 174.258,72.8410189 174.26808,72.7814312 L174.50496,70.641239 C174.50496,70.5766856 174.60072,70.5270292 174.70152,70.5270292 L175.20552,70.5270292 C175.30632,70.5270292 175.38192,70.5766856 175.37688,70.641239 L175.14,72.7814312 C175.12992,72.8410189 175.04424,72.8906753 174.94344,72.8906753" id="Fill-181" fill="#407BFF" mask="url(#mask-2)"></path>
                    <path d="M167.46408,72.8906753 L166.96008,72.8906753 C166.85928,72.8906753 166.78368,72.8410189 166.78872,72.7814312 L167.0256,70.641239 C167.0256,70.5766856 167.12136,70.5270292 167.22216,70.5270292 L167.72616,70.5270292 C167.82696,70.5270292 167.90256,70.5766856 167.89248,70.641239 L167.6556,72.7814312 C167.6556,72.8410189 167.56488,72.8906753 167.46408,72.8906753" id="Fill-182" fill="#407BFF" mask="url(#mask-2)"></path>
                    <path d="M161.41608,43.2457859 C158.48784,43.508965 154.01232,42.9627443 154.1484,47.3871323 C154.28448,51.8115203 153.41256,63.5304381 153.6444,69.0174737 C153.87624,74.5045093 152.42472,110.033686 154.77336,120.33243 C155.18664,122.144889 170.35704,121.911504 172.1916,121.737707 L172.1916,120.10401 C172.1916,120.10401 183.21408,118.644111 185.94072,119.110881 C185.70384,112.92369 179.6004,81.6699324 179.36352,72.8906753 C179.12664,64.1114183 180.1296,49.0257945 180.06912,46.6323545 C180.00864,44.2389145 175.18032,43.1861982 172.22184,43.2457859 C172.87704,45.4058407 171.43056,49.4627711 169.1172,53.986472 C163.42704,48.5242645 161.74872,45.8130234 161.41608,43.2457859" id="Fill-183" fill="#407BFF" mask="url(#mask-2)"></path>
                    <path d="M161.41608,43.2457859 C158.48784,43.508965 154.01232,42.9627443 154.1484,47.3871323 C154.28448,51.8115203 153.41256,63.5304381 153.6444,69.0174737 C153.87624,74.5045093 152.42472,110.033686 154.77336,120.33243 C155.18664,122.144889 170.35704,121.911504 172.1916,121.737707 L172.1916,120.10401 C172.1916,120.10401 183.21408,118.644111 185.94072,119.110881 C185.70384,112.92369 179.6004,81.6699324 179.36352,72.8906753 C179.12664,64.1114183 180.1296,49.0257945 180.06912,46.6323545 C180.00864,44.2389145 175.18032,43.1861982 172.22184,43.2457859 C172.87704,45.4058407 171.43056,49.4627711 169.1172,53.986472 C163.42704,48.5242645 161.74872,45.8130234 161.41608,43.2457859" id="Fill-184" fill="#ADCBF5" mask="url(#mask-2)"></path>
                    <path d="M155.84184,53.7381898 L153.96696,55.044154 C153.8208,58.8676992 153.62424,63.1530492 153.60408,66.4651331 C155.34792,62.6664161 156.33072,57.1843461 155.84184,53.7381898" id="Fill-185" fill="#2B4F9E" mask="url(#mask-2)"></path>
                    <path d="M161.81424,49.770641 C161.718984,49.9101755 161.616672,50.0442479 161.5068,50.1728581 L161.40096,50.2920335 L161.34552,50.3516212 L161.24472,50.4558997 L161.04312,50.6694224 L160.63992,51.1113646 C160.36776,51.4043376 160.10568,51.7072418 159.8436,52.0151117 C159.31944,52.6308514 158.81544,53.2580121 158.3316,53.8970904 C157.343256,55.1732607 156.422952,56.4990874 155.57472,57.8696049 C153.907992,60.4000966 152.703936,63.1982365 152.01648,66.1374007 C151.889472,66.7928656 151.810344,67.4567721 151.7796,68.1236579 C151.810848,68.4553629 151.908624,68.7776331 152.06688,69.0720958 C152.70696,70.4068606 153.476568,71.6775687 154.36512,72.8658471 C155.29752,74.1767769 156.35592,75.4529472 157.43952,76.7142205 C157.98384,77.3498228 158.54832,77.9655626 159.11784,78.5763367 C159.68736,79.1871108 160.28208,79.8127818 160.83648,80.3540369 L155.40336,85.5282371 C154.74312,84.8181501 154.15848,84.1726165 153.54864,83.4923234 L151.76952,81.4415128 C150.59016,80.0660296 149.45616,78.6359244 148.33728,77.1363002 C147.12264,75.55226 146.072304,73.8520238 145.2024,72.0614129 C144.94788,71.5067506 144.730656,70.9361982 144.55224,70.3532317 C144.447408,70.0061332 144.364752,69.653076 144.30528,69.2955497 C144.266472,69.0904686 144.23976,68.8829048 144.22464,68.6748443 C144.20448,68.4568526 144.195912,68.2383643 144.19944,68.0193794 C144.211536,66.9532559 144.304272,65.8891185 144.47664,64.8364022 C144.825408,62.8476621 145.389888,60.9016266 146.16,59.0315654 C146.884752,57.260817 147.726432,55.5392286 148.68,53.8772278 C149.60736,52.2385656 150.62544,50.674388 151.6788,49.1449699 C152.21304,48.3802609 152.75736,47.6304488 153.32688,46.890568 L154.18872,45.7832295 L154.63728,45.2270775 L154.86408,44.9490015 L154.98,44.8149291 L155.0304,44.7503758 L154.95984,44.8298261 C154.86912,44.9440359 154.78344,45.0582457 154.7028,45.1774211 L161.81424,49.770641 Z" id="Fill-186" fill="#407BFF" mask="url(#mask-2)"></path>
                    <path d="M161.81424,49.770641 C161.718984,49.9101755 161.616672,50.0442479 161.5068,50.1728581 L161.40096,50.2920335 L161.34552,50.3516212 L161.24472,50.4558997 L161.04312,50.6694224 L160.63992,51.1113646 C160.36776,51.4043376 160.10568,51.7072418 159.8436,52.0151117 C159.31944,52.6308514 158.81544,53.2580121 158.3316,53.8970904 C157.343256,55.1732607 156.422952,56.4990874 155.57472,57.8696049 C153.907992,60.4000966 152.703936,63.1982365 152.01648,66.1374007 C151.889472,66.7928656 151.810344,67.4567721 151.7796,68.1236579 C151.810848,68.4553629 151.908624,68.7776331 152.06688,69.0720958 C152.70696,70.4068606 153.476568,71.6775687 154.36512,72.8658471 C155.29752,74.1767769 156.35592,75.4529472 157.43952,76.7142205 C157.98384,77.3498228 158.54832,77.9655626 159.11784,78.5763367 C159.68736,79.1871108 160.28208,79.8127818 160.83648,80.3540369 L155.40336,85.5282371 C154.74312,84.8181501 154.15848,84.1726165 153.54864,83.4923234 L151.76952,81.4415128 C150.59016,80.0660296 149.45616,78.6359244 148.33728,77.1363002 C147.12264,75.55226 146.072304,73.8520238 145.2024,72.0614129 C144.94788,71.5067506 144.730656,70.9361982 144.55224,70.3532317 C144.447408,70.0061332 144.364752,69.653076 144.30528,69.2955497 C144.266472,69.0904686 144.23976,68.8829048 144.22464,68.6748443 C144.20448,68.4568526 144.195912,68.2383643 144.19944,68.0193794 C144.211536,66.9532559 144.304272,65.8891185 144.47664,64.8364022 C144.825408,62.8476621 145.389888,60.9016266 146.16,59.0315654 C146.884752,57.260817 147.726432,55.5392286 148.68,53.8772278 C149.60736,52.2385656 150.62544,50.674388 151.6788,49.1449699 C152.21304,48.3802609 152.75736,47.6304488 153.32688,46.890568 L154.18872,45.7832295 L154.63728,45.2270775 L154.86408,44.9490015 L154.98,44.8149291 L155.0304,44.7503758 L154.95984,44.8298261 C154.86912,44.9440359 154.78344,45.0582457 154.7028,45.1774211 L161.81424,49.770641 Z" id="Fill-187" fill="#ADCBF5" mask="url(#mask-2)"></path>
                    <path d="M169.12224,53.986472 C169.65144,64.5831544 172.52424,101.53747 172.19664,120.10401 L173.0736,119.9898 C173.0736,119.9898 171.7128,91.4373524 171.09792,78.9437943 C170.48304,66.4502362 169.12224,53.986472 169.12224,53.986472" id="Fill-188" fill="#2B4F9E" mask="url(#mask-2)"></path>
                    <path d="M160.41312,80.4434185 L155.0304,86.183702 C155.0304,88.1103715 153.66456,91.9637105 157.28328,93.3640219 C160.902,94.7643333 160.99776,84.6046274 160.41312,80.4434185" id="Fill-189" fill="#2B4F9E" mask="url(#mask-2)"></path>
                    <path d="M177.9624,80.2646554 L180.3312,86.114183 C180.40176,88.1004402 181.09224,92.0729547 179.69112,93.5874758 C178.29,95.101997 177.88176,84.5698679 177.9624,80.2646554" id="Fill-190" fill="#2B4F9E" mask="url(#mask-2)"></path>
                    <path d="M172.08072,57.6759448 L177.99264,57.6362197 C178.217928,57.6456544 178.40844,57.4738431 178.418016,57.2518789 C178.419024,57.2310232 178.418503,57.2101675 178.416,57.1893118 L178.0884,54.4284142 C178.04808,54.1821183 177.837408,53.9973964 177.5844,53.986472 L171.66744,54.0212315 C171.439128,54.0147761 171.24912,54.191553 171.242064,54.4164967 C171.24156,54.4338764 171.242568,54.4507596 171.24408,54.4681394 L171.57168,57.2340026 C171.61452,57.4812916 171.826704,57.665517 172.08072,57.6759448" id="Fill-191" fill="#FFFFFF" mask="url(#mask-2)"></path>
                    <path d="M172.08072,57.6759448 L177.99264,57.6362197 C178.217928,57.6456544 178.40844,57.4738431 178.418016,57.2518789 C178.419024,57.2310232 178.418503,57.2101675 178.416,57.1893118 L178.0884,54.4284142 C178.04808,54.1821183 177.837408,53.9973964 177.5844,53.986472 L171.66744,54.0212315 C171.439128,54.0147761 171.24912,54.191553 171.242064,54.4164967 C171.24156,54.4338764 171.242568,54.4507596 171.24408,54.4681394 L171.57168,57.2340026 C171.61452,57.4812916 171.826704,57.665517 172.08072,57.6759448 Z" id="Stroke-192" stroke="#4C76BA" stroke-width="0.5" mask="url(#mask-2)"></path>
                </g>
            </g>
        </g>
    </g>
</svg>