<?xml version="1.0" encoding="UTF-8"?>
<svg width="164px" height="151px" viewBox="0 0 164 151" version="1.1" xmlns="http://www.w3.org/2000/svg" xmlns:xlink="http://www.w3.org/1999/xlink">
    <title>Group 195</title>
    <g id="Symbols" stroke="none" stroke-width="1" fill="none" fill-rule="evenodd">
        <g id="Card-Auto-examen" transform="translate(-187.000000, -28.000000)">
            <g id="Group-193" transform="translate(187.566200, 28.808251)">
                <path d="M50.3538,106.960913 C50.03586,106.960913 49.7784,107.217591 49.7784,107.534566 C49.7784,107.85154 50.03586,108.108218 50.3538,108.108218 C50.67174,108.108218 50.9292,107.85154 50.9292,107.534566 C50.9271,107.220104 50.66922,106.966775 50.3538,106.969288 L50.3538,106.969288 L50.3538,106.960913 Z M50.3538,108.635811 C49.74606,108.635811 49.2534,108.144647 49.2534,107.538753 C49.2534,106.932859 49.74606,106.441695 50.3538,106.441695 C50.96154,106.441695 51.4542,106.932859 51.4542,107.538753 C51.4542,107.540009 51.4542,107.541684 51.4542,107.54294 C51.4542,108.146322 50.96322,108.635811 50.358,108.635811 C50.35674,108.635811 50.35506,108.635811 50.3538,108.635811 L50.3538,108.635811 Z" id="Fill-25" fill="#F0F0F0"></path>
                <polygon id="Fill-28" fill="#FFFFFF" points="42.0462 49.1811195 39.8664 49.1811195 35.49 100.366002 37.6698 100.366002"></polygon>
                <path d="M81.4338,140.211826 C126.40824,140.211826 162.8676,142.333922 162.8676,144.951787 C162.8676,147.569653 126.40824,149.691749 81.4338,149.691749 C36.45936,149.691749 0,147.569653 0,144.951787 C0,142.333922 36.45936,140.211826 81.4338,140.211826" id="Fill-44" fill="#F5F5F5"></path>
                <path d="M45.3138,13.112191 C42.1428,10.1434343 36.9138,9.57396895 34.9566,12.6641558 C32.9994,15.7543426 34.1166,19.0203937 30.1014,22.4455601 C27.3714,24.7862301 29.3958,31.9589808 44.9694,31.3015833 C52.3404,30.9917272 49.8456,23.3458178 49.6482,19.7322253 C49.4508,16.1186329 49.4382,11.6969022 45.3138,13.112191" id="Fill-45" fill="#263238"></path>
                <polygon id="Fill-46" fill="#B55B52" points="39.1776 139.165015 35.406 139.311568 35.3346 135.241566 39.1062 135.095013"></polygon>
                <path d="M35.1708,138.532741 L39.4338,138.532741 C39.58878,138.531066 39.7236,138.637422 39.7572,138.788163 L40.4964,142.158895 C40.55898,142.46247 40.36284,142.758927 40.05876,142.821736 C40.01886,142.829692 39.97854,142.83346 39.9378,142.833041 C38.4468,142.807918 37.7244,142.719986 35.847,142.719986 C34.692,142.719986 31.6974,142.841416 30.1014,142.841416 C28.5054,142.841416 28.3038,141.267012 28.9548,141.124645 C31.8948,140.483997 33.6042,139.604675 34.545,138.763039 C34.71762,138.611042 34.94064,138.528972 35.1708,138.532741" id="Fill-47" fill="#263238"></path>
                <polygon id="Fill-48" fill="#000000" points="35.3346 135.245753 35.3682 137.138388 39.1398 136.975086 39.1062 135.0992"></polygon>
                <path d="M29.7738,57.1913192 C28.9338,61.7051693 29.8998,83.7677632 31.1808,93.5114824 C32.886,106.450069 34.65,136.493552 34.65,136.493552 L39.69,136.192071 C39.69,136.192071 40.95,104.553247 39.921,94.1646926 C40.5048,80.7948193 41.9496,57.4425539 41.9496,57.4425539 L29.7738,57.1913192 Z" id="Fill-49" fill="#39A9A6"></path>
                <path d="M41.1138,71.9932303 C41.2902,68.6057491 38.8836,65.5951199 37.9134,71.9932303 C37.3002,76.0590452 38.5686,83.1857362 40.2318,88.2188047 C40.488,82.9805612 40.8156,77.1477289 41.1138,71.9932303" id="Fill-50" fill="#1F6C79"></path>
                <polygon id="Fill-51" fill="#B55B52" points="66.8892 126.506973 64.4364 128.843456 61.1142 125.292672 63.5628 122.960377"></polygon>
                <path d="M63.7938,128.906264 L66.3138,125.464349 C66.39906,125.339988 66.56622,125.303559 66.696,125.380604 L69.636,127.105749 C69.93378,127.30255 70.01484,127.70285 69.81702,127.999726 C69.81282,128.006007 69.80862,128.012288 69.804,128.018568 C68.9094,129.203559 68.418,129.726964 67.3134,131.242747 C66.633,132.172316 65.8476,133.453612 64.911,134.743284 C63.9744,136.032955 62.6934,135.107574 62.9706,134.483675 C64.2306,131.682408 63.6972,130.90358 63.63,129.567849 C63.60858,129.335038 63.66612,129.102227 63.7938,128.906264" id="Fill-52" fill="#263238"></path>
                <polygon id="Fill-53" fill="#000000" points="61.1142 125.296859 62.8278 127.122498 65.2596 124.769266 63.567 122.960377"></polygon>
                <path d="M35.6202,57.3127493 C35.6202,57.3127493 41.0466,85.7860153 42.4578,96.8403422 C43.2978,103.443628 61.8198,127.202056 61.8198,127.202056 L64.9824,123.88157 C64.9824,123.88157 58.2036,106.487755 50.0388,96.1703829 C49.7154,84.0776194 51.093,64.1714566 46.4058,57.5346733 L35.6202,57.3127493 Z" id="Fill-54" fill="#39A9A6"></path>
                <path d="M30.8574,35.4804538 C30.8574,37.9258049 30.744,40.3250963 30.5634,42.7495111 C30.3828,45.173926 30.1434,47.5857791 29.7528,50.0143812 L29.6814,50.4707909 L29.5848,50.9858221 C29.51214,51.3237327 29.43234,51.6545251 29.3454,51.9781991 C29.1606,52.6188476 28.9254,53.2343726 28.7154,53.8289614 C28.25592,54.9946904 27.73428,56.135296 27.153,57.2457534 C26.00808,59.4168399 24.70398,61.5008317 23.2512,63.4805612 C22.90764,63.9403207 22.25496,64.0353711 21.7938,63.6928545 C21.40152,63.401841 21.26544,62.8780166 21.4662,62.4337499 L21.4662,62.4086265 C22.4532,60.281506 23.4108,58.0999513 24.2466,55.9393329 C24.6666,54.8590237 25.0404,53.7661528 25.3596,52.694218 C25.5108,52.1582507 25.6452,51.6264706 25.7502,51.1072522 C25.8048,50.847643 25.8426,50.592221 25.8804,50.3409863 L25.9224,49.9683215 L25.9644,49.549597 C26.1786,47.2298633 26.3046,44.8766316 26.4222,42.5192127 C26.5398,40.1617937 26.5944,37.7834386 26.6616,35.4469559 L26.6616,35.4260196 C26.68008,34.2699213 27.63558,33.3474712 28.7952,33.3656238 C29.95482,33.384319 30.88008,34.3369172 30.8616,35.4930155 L30.8574,35.4804538 Z" id="Fill-55" fill="#B55B52"></path>
                <path d="M29.4882,32.4195777 C24.3306,33.9227987 24.9942,43.277104 24.9942,43.277104 L32.3274,45.2451092 C32.3274,45.2451092 33.5454,38.3947763 33.4362,35.9368635 C33.327,33.3826441 32.3316,31.5946904 29.4882,32.4195777" id="Fill-56" fill="#39A9A6"></path>
                <path d="M22.0122,61.8935953 L19.4292,64.0835245 L23.0496,65.5574347 C23.0496,65.5574347 24.171,63.853226 23.6502,62.2369494 L22.0122,61.8935953 Z" id="Fill-57" fill="#B55B52"></path>
                <path d="M19.887,67.424946 L21.5376,67.630121 C21.91476,67.6770181 22.27638,67.465981 22.4196,67.1150898 L23.0496,65.5574347 L19.4292,64.0835245 L19.1562,66.4995648 C19.10454,66.9555558 19.43004,67.3684182 19.887,67.424946" id="Fill-58" fill="#B55B52"></path>
                <path d="M27.8208,34.8523671 C27.5898,44.2317959 29.7528,51.0779415 29.778,57.1913192 L46.4058,57.5346733 C46.284,51.4129211 46.3344,47.4182893 48.9762,36.4477074 C49.43232,34.5496292 48.25884,32.6423391 46.35498,32.1876043 C46.24956,32.1620621 46.1433,32.1419634 46.0362,32.1264706 C45.0408,31.979917 43.9362,31.8417379 42.8148,31.7663675 C40.30194,31.5343941 37.77522,31.4812161 35.2548,31.6072522 C33.4824,31.7328695 31.5756,31.9924787 30.2148,32.1976537 C28.8813,32.3952917 27.87666,33.5095176 27.8208,34.8523671" id="Fill-59" fill="#39A9A6"></path>
                <path d="M43.3188,43.5199642 L38.388,43.4864663 C38.20026,43.494422 38.0415,43.3495434 38.03352,43.1623735 C38.03268,43.1447871 38.0331144,43.1272006 38.0352,43.1096142 L38.3082,40.781506 C38.34474,40.567119 38.5308,40.4096786 38.7492,40.4088412 L43.6758,40.4423391 C43.86102,40.431871 44.01978,40.5729812 44.03028,40.7580574 C44.03154,40.7769 44.0307,40.7961613 44.0286,40.8150039 L43.7556,43.1472994 C43.72074,43.3612676 43.53594,43.5187081 43.3188,43.5199642" id="Fill-60" fill="#FFFFFF"></path>
                <path d="M35.28,31.6114394 C35.28,31.6114394 32.5668,33.5040742 35.4354,38.25241 C37.79034,35.9686866 40.2591,33.8038809 42.8316,31.7663675 L35.28,31.6114394 Z" id="Fill-61" fill="#FFFFFF"></path>
                <path d="M42.2604,23.2746346 C41.7354,25.6864877 41.1642,30.116593 42.8316,31.7663675 C40.20954,32.796011 37.79202,34.2820643 35.6916,36.1546003 C33.8478,32.7796808 35.2716,31.6072522 35.2716,31.6072522 C37.9932,31.0210379 37.968,29.0153475 37.5354,27.1227128 L42.2604,23.2746346 Z" id="Fill-62" fill="#B55B52"></path>
                <path d="M41.748,23.6933591 C41.68248,25.1346088 41.30868,26.544873 40.6518,27.8303572 C40.194,28.7138659 38.9718,29.0865307 37.7412,29.1577138 C37.78194,28.4730993 37.71516,27.7868098 37.5438,27.1227128 L41.748,23.6933591 Z" id="Fill-63" fill="#000000"></path>
                <path d="M46.1958,20.3226269 C44.9358,24.1832668 44.5158,25.8414158 41.9958,27.348824 C38.2368,29.6141236 33.7554,27.2483301 33.8142,23.0987703 C33.873,19.3637478 35.9142,13.6816563 40.1436,13.0996292 C43.1739,12.6620621 45.98622,14.7565221 46.4247,17.7776194 C46.54902,18.6322361 46.47048,19.5040205 46.1958,20.3226269" id="Fill-64" fill="#B55B52"></path>
                <path d="M35.9268,15.2518732 C38.0268,15.8422747 43.1424,16.2819355 44.1672,15.6705977 C43.2054,17.1445079 44.121,21.1726376 45.6078,22.1482657 C47.6112,20.5445509 48.0564,16.667162 46.2042,14.7452165 C44.352,12.8232711 38.4972,10.5244736 35.9268,15.2518732" id="Fill-65" fill="#263238"></path>
                <path d="M46.7838,22.6842331 C46.51584,23.4274691 45.9585,24.0312698 45.2382,24.3591311 C44.289,24.7778556 43.659,23.9739045 43.7934,22.9982764 C43.9152,22.1231422 44.5578,20.8460325 45.5742,20.8292835 C46.31172,20.8393329 46.9014,21.4439711 46.89132,22.1792513 C46.8888,22.353022 46.85226,22.5242803 46.7838,22.6842331" id="Fill-66" fill="#B55B52"></path>
                <path d="M46.6746,56.5674197 L47.397,58.0706406 C47.4516,58.1836962 47.313,58.3009391 47.1198,58.2967519 L29.6772,57.9324615 C29.5302,57.9324615 29.4084,57.8529039 29.4,57.7565973 L29.2782,56.2701253 C29.2782,56.1696314 29.4042,56.0858865 29.568,56.0858865 L46.41,56.4376151 C46.515,56.4313342 46.61538,56.4807437 46.6746,56.5674197" id="Fill-67" fill="#263238"></path>
                <path d="M44.3772,58.3972457 L44.8266,58.3972457 C44.9148,58.3972457 44.9862,58.351186 44.982,58.2967519 L44.8098,56.3622447 C44.8098,56.3078105 44.7258,56.2575635 44.6376,56.2575635 L44.184,56.2575635 C44.0958,56.2575635 44.0286,56.299436 44.0328,56.3580574 L44.2008,58.2883774 C44.2092,58.351186 44.2848,58.3972457 44.3772,58.3972457" id="Fill-68" fill="#407BFF"></path>
                <path d="M30.9414,58.1208876 L31.395,58.1208876 C31.4832,58.1208876 31.5546,58.0790151 31.5504,58.0203937 L31.3782,56.0858865 C31.3782,56.0314523 31.2942,55.9853926 31.206,55.9812054 L30.7524,55.9812054 C30.6642,55.9812054 30.5928,56.0230778 30.6012,56.0816992 L30.7692,58.0120192 C30.7776,58.0706406 30.8532,58.1167003 30.9414,58.1208876" id="Fill-69" fill="#1F6C79"></path>
                <path d="M37.6572,58.2590667 L38.1108,58.2590667 C38.199,58.2590667 38.2704,58.2171942 38.2662,58.1585728 L38.094,56.2282528 C38.094,56.1696314 38.01,56.1235717 37.9218,56.1235717 L37.4682,56.1235717 C37.38,56.1235717 37.3128,56.1696314 37.317,56.2240656 L37.485,58.1585728 C37.4934,58.2088197 37.569,58.2590667 37.6572,58.2590667" id="Fill-70" fill="#1F6C79"></path>
                <path d="M40.152,20.000209 C40.068,20.3184396 39.8328,20.5361764 39.6228,20.4817422 C39.4128,20.427308 39.312,20.1258264 39.3918,19.8075957 C39.4716,19.4893651 39.711,19.2716284 39.921,19.3260626 C40.131,19.3804968 40.2318,19.6819784 40.152,20.000209" id="Fill-71" fill="#263238"></path>
                <path d="M36.5316,19.0790151 C36.4518,19.401433 36.2166,19.6149825 36.0066,19.5605483 C35.7966,19.5061141 35.6916,19.2088197 35.7756,18.8864018 C35.8596,18.563984 36.0906,18.3546217 36.3006,18.4048687 C36.5106,18.4551156 36.6156,18.7607845 36.5316,19.0790151" id="Fill-72" fill="#263238"></path>
                <path d="M36.3888,18.4467411 L35.6748,18.0280166 C35.6748,18.0280166 35.9184,18.7314738 36.3888,18.4467411" id="Fill-73" fill="#263238"></path>
                <path d="M37.3338,19.8704044 C36.8634,20.5265457 36.30522,21.1156911 35.6748,21.6206728 C35.94444,21.9389035 36.3405,22.1227235 36.7584,22.1231422 L37.3338,19.8704044 Z" id="Fill-74" fill="#A02724"></path>
                <path d="M37.5354,23.3751285 C37.50516,23.3491676 37.49214,23.30897 37.5018,23.2704474 C37.51776,23.2197817 37.57194,23.1913084 37.62276,23.20722 C37.62318,23.2076387 37.62318,23.2076387 37.6236,23.2076387 C38.41908,23.456361 39.28596,23.3131573 39.9588,22.8224122 C39.99954,22.787658 40.06044,22.792264 40.0953,22.8328803 C40.13016,22.8734965 40.12554,22.9342116 40.0848,22.9689657 C39.36408,23.511214 38.42286,23.6673982 37.5648,23.3876902 L37.5354,23.3751285 Z" id="Fill-75" fill="#263238"></path>
                <path d="M42.126,18.530486 C42.10038,18.5078749 42.07938,18.4810765 42.063,18.4509284 C41.88702,17.9903314 41.49936,17.6427901 41.0214,17.5171727 C40.91598,17.4987488 40.84542,17.398255 40.8639,17.2931551 C40.88238,17.1880553 40.98318,17.1177096 41.0886,17.1361334 C41.69634,17.2860368 42.19404,17.7198354 42.4242,18.3001875 C42.46242,18.4019376 42.41076,18.5154119 42.3087,18.5535159 C42.2478,18.5765457 42.17934,18.5677525 42.126,18.530486" id="Fill-76" fill="#263238"></path>
                <path d="M35.8176,17.044014 L35.7924,17.0188906 C35.71722,16.9435202 35.71722,16.8220901 35.7924,16.7467196 C36.24222,16.3259015 36.86592,16.1441751 37.4724,16.256812 C37.57572,16.2827729 37.6383,16.3878727 37.61226,16.490879 C37.61184,16.4925539 37.61142,16.49381 37.611,16.4954849 C37.58412,16.5984912 37.47912,16.6600437 37.3758,16.633664 C36.88986,16.5423821 36.38922,16.6906106 36.0318,17.0314523 C35.96964,17.0783495 35.8848,17.0833741 35.8176,17.044014" id="Fill-77" fill="#263238"></path>
                <path d="M48.972,35.0868528 C50.1942,36.6989421 51.3366,38.3235932 52.4454,40.0110529 C52.9956,40.8485019 53.5416,41.6859509 54.0582,42.5903958 C54.6147,43.5053089 55.11408,44.4533011 55.5534,45.4293479 C55.68654,45.7337607 55.8012,46.0452917 55.8978,46.3631036 C55.96794,46.6080574 56.0154,46.8588734 56.0406,47.1126204 C56.04774,47.2143705 56.04774,47.3165393 56.0406,47.4182893 L56.0406,47.6067154 C56.03304,47.6896228 56.02044,47.7721115 56.0028,47.8537628 L55.9734,47.9835674 L55.9734,48.0421888 L55.9734,48.0882485 L55.9398,48.1803679 C55.7424,48.6828373 55.587,49.189494 55.3518,49.6752144 C54.92592,50.6705225 54.41436,51.6277267 53.823,52.5351027 C53.214,53.4512719 52.50084,54.2941644 51.6978,55.0474497 C51.28872,55.4301639 50.84898,55.7785427 50.3832,56.0900737 C50.1438,56.2450018 49.9002,56.3957426 49.6482,56.5339217 L49.2492,56.726535 C49.098,56.7935309 48.9888,56.8395906 48.7704,56.9191482 L47.9724,55.0097645 C48.0291,54.9544929 48.08958,54.9025711 48.153,54.8548365 L48.384,54.6538487 C48.5394,54.5156696 48.6906,54.3649288 48.8376,54.2100007 C49.13664,53.8900952 49.4172,53.553022 49.6776,53.2008747 C50.19042,52.481506 50.63772,51.7177525 51.0132,50.9188262 C51.1896,50.5001017 51.3828,50.1065006 51.5298,49.6626527 C51.6768,49.2188047 51.8406,48.8252036 51.975,48.4064791 C52.1094,47.9877546 52.2144,47.5271577 52.3446,47.0916842 L52.3446,47.0121266 L52.3446,46.9702541 L52.3446,47.0079393 L52.3446,47.0916842 C52.3446,47.1419312 52.3236,47.2173016 52.3194,47.2466123 C52.3173,47.2788541 52.3173,47.3106771 52.3194,47.3429189 L52.3194,47.464349 L52.3194,47.4894725 C52.3194,47.4476 52.2018,47.2214888 52.1136,47.0456245 C51.7314,46.3296056 51.219,45.5047184 50.694,44.7175163 C50.169,43.9303142 49.623,43.1221759 49.0644,42.3307866 C47.9514,40.7438208 46.8048,39.1401059 45.6792,37.5657018 L48.972,35.0868528 Z" id="Fill-78" fill="#B55B52"></path>
                <path d="M49.8834,56.4250533 L46.6452,58.7071019 L45.192,55.4075528 C45.192,55.4075528 47.1576,54.3565543 48.7074,55.0600115 L49.8834,56.4250533 Z" id="Fill-79" fill="#B55B52"></path>
                <path d="M44.3898,58.9792728 L43.5792,57.8529039 C43.25916,57.4011001 43.35786,56.7776194 43.8018,56.4459896 L45.192,55.4075528 L46.6452,58.7071019 L45.7548,59.255631 C45.29784,59.5353389 44.70144,59.4147463 44.3898,58.9792728" id="Fill-80" fill="#B55B52"></path>
                <path d="M42.4914,34.0902885 C41.391,38.4492105 48.1782,45.9108811 48.1782,45.9108811 L53.886,40.0026784 C53.886,40.0026784 51.2778,34.4503915 47.8716,32.7084976 C45.4944,31.4941966 42.9786,32.168343 42.4914,34.0902885" id="Fill-81" fill="#39A9A6"></path>
                <path d="M40.0092,19.367935 L39.2952,18.9492105 C39.2952,18.9492105 39.5346,19.6526677 40.0092,19.367935" id="Fill-82" fill="#263238"></path>
                <path d="M32.7138,45.7350168 C32.65122,45.7345981 32.59494,45.6964942 32.571,45.6387102 C32.54244,45.5612462 32.58192,45.4754076 32.6592,45.4460969 L33.3144,45.1948622 C34.57104,44.7321717 35.4081,43.5409004 35.4144,42.2051693 L35.4606,36.0834171 C35.49252,34.9599793 34.60506,34.0232925 33.4782,33.9914695 C32.67222,33.9684396 31.9284,34.4206621 31.5798,35.1454742 L28.7406,40.5888927 C28.11606,41.7650898 28.28322,43.2034085 29.1606,44.2066724 L29.6226,44.730078 C29.68392,44.7866058 29.68728,44.882075 29.63058,44.9432088 C29.57388,45.0043426 29.47812,45.0076924 29.4168,44.9511646 C29.40924,44.9436275 29.4021,44.9356718 29.3958,44.9268785 L28.9338,44.3574132 C27.96528,43.2670546 27.77628,41.6922318 28.4592,40.4046539 L31.2984,34.9612354 C31.89522,33.818955 33.3081,33.375107 34.45386,33.9701145 C35.2338,34.3750211 35.72016,35.1814845 35.7126,36.0582936 L35.6664,42.1800458 C35.65926,43.6338573 34.75416,44.9327407 33.39,45.4460969 L32.7348,45.6931444 L32.7138,45.7350168 Z" id="Fill-83" fill="#263238"></path>
                <path d="M35.5656,37.448459 C35.48454,37.4463653 35.4186,37.3827192 35.4144,37.3019054 C35.25186,35.9799921 34.04478,35.0395369 32.71842,35.2015833 C32.03928,35.2849095 31.42734,35.6508747 31.0338,36.2090344 C30.99306,36.2818925 30.90108,36.3082721 30.828,36.2676559 C30.75492,36.2270396 30.72846,36.1353389 30.7692,36.0624809 C31.6113,34.8213814 33.30348,34.4960325 34.54836,35.3355751 C35.21196,35.7831916 35.64414,36.4996292 35.7294,37.2935309 C35.7294,37.3760196 35.66472,37.443853 35.5824,37.448459 L35.5656,37.448459 Z" id="Fill-84" fill="#263238"></path>
                <path d="M33.9276,34.1028502 C33.8772,34.1020128 33.83016,34.077308 33.8016,34.0358543 C33.6462,33.6925002 33.6462,33.2988992 33.8016,32.9555451 C34.02252,32.2713492 34.54332,31.724495 35.217,31.4690731 C35.2905,31.4401811 35.37324,31.4766101 35.40222,31.5498869 C35.40348,31.5536554 35.40474,31.557424 35.406,31.5611925 C35.4312,31.6386565 35.39046,31.7219827 35.3136,31.7496185 C34.73694,31.9853604 34.29342,32.4614502 34.0998,33.0518517 C33.97338,33.3135545 33.95658,33.6150362 34.0536,33.8893007 C34.09896,33.9592277 34.0788,34.0526033 34.00866,34.0978255 C34.00824,34.0982442 34.00782,34.0982442 34.0074,34.098663 C33.98136,34.1062 33.95406,34.1078749 33.9276,34.1028502" id="Fill-85" fill="#263238"></path>
                <path d="M32.3694,45.5047184 C32.298,45.7768893 32.3694,46.0364985 32.571,46.0825582 C32.7726,46.1286179 32.9574,45.9401918 33.0246,45.6638337 C33.0918,45.3874755 32.9994,45.1278663 32.8188,45.0859939 C32.6382,45.0441214 32.4366,45.2283602 32.3694,45.5047184" id="Fill-86" fill="#263238"></path>
                <path d="M44.289,38.2733462 C44.4234,38.9056202 44.877,39.3410937 45.2928,39.2531616 C45.7086,39.1652294 45.9354,38.5748279 45.7968,37.9467411 C45.6582,37.3186544 45.2088,36.8748064 44.793,36.9669258 C44.3772,37.0590452 44.1504,37.6578212 44.289,38.2733462" id="Fill-87" fill="#263238"></path>
                <path d="M45.6036,38.0765457 C45.52254,38.0790581 45.45492,38.0154119 45.4524,37.9341794 C45.4524,37.9341794 45.4524,37.9341794 45.4524,37.9341794 C45.3642,35.6186329 44.4822,32.7419956 42.7644,31.8919848 C42.69048,31.8547184 42.66066,31.7651113 42.6972,31.6909971 C42.73206,31.6177203 42.81942,31.586316 42.89292,31.6210701 C42.89502,31.6219075 42.8967,31.6231637 42.8988,31.6240012 C44.7384,32.5326333 45.6582,35.4427686 45.7506,37.9048687 C45.75774,37.9831702 45.69936,38.0522597 45.62082,38.059378 C45.61662,38.0597967 45.612,38.0597967 45.6078,38.0597967 L45.6036,38.0765457 Z" id="Fill-88" fill="#263238"></path>
                <path d="M43.8396,38.3277804 C43.9278,38.867935 44.3184,39.2531616 44.7132,39.1903529 C45.108,39.1275442 45.36,38.6376365 45.2718,38.0932947 C45.1836,37.5489528 44.7888,37.1679135 44.394,37.2307222 C43.9992,37.2935309 43.7514,37.7834386 43.8396,38.3277804" id="Fill-89" fill="#FFFFFF"></path>
                <path d="M43.806,38.3738401 C43.932,39.0437993 44.2848,39.5378942 44.5914,39.4792728 C44.898,39.4206514 45.0366,38.8344371 44.9106,38.1644779 C44.7846,37.4945187 44.4318,37.0004237 44.1252,37.0590452 C43.8186,37.1176666 43.6758,37.7038809 43.806,38.3738401" id="Fill-90" fill="#263238"></path>
                <path d="M29.1942,44.7133291 C29.127,44.9896872 29.2194,45.2492964 29.4,45.2911689 C29.5806,45.3330413 29.7822,45.1529898 29.8536,44.8724444 C29.925,44.5918989 29.8284,44.3406642 29.6478,44.2946046 C29.4672,44.2485449 29.2656,44.4411581 29.1942,44.7133291" id="Fill-91" fill="#263238"></path>
                <path d="M75.201,10.616593 C72.5424,11.0897516 72.2064,10.8468914 72.1728,8.94169495 C72.1392,7.03649847 71.1732,3.85837951 72.5172,2.8618152 C72.80826,2.58629448 73.26816,2.59843749 73.54452,2.88903229 C73.63104,2.97989551 73.69236,3.09169495 73.7226,3.21354378 C73.89312,2.77932648 74.37612,2.55614632 74.8188,2.70688714 C74.8734,2.31328611 74.9364,1.30416006 75.6588,1.03198913 C76.3812,0.759818208 77.0448,1.41302843 77.0448,1.41302843 C77.0448,1.41302843 76.9902,-0.140439469 78.0402,0.0103013516 C78.68196,0.11247013 79.1952,0.596096928 79.3338,1.22878965 C79.3338,1.22878965 79.9386,0.349468197 80.7576,0.697009533 C81.5766,1.04455087 81.4044,2.06623865 81.4044,2.06623865 C81.4044,2.06623865 82.2738,1.64751415 82.9206,2.12067284 C83.5674,2.59383152 83.097,3.35172287 83.097,3.35172287 C83.097,3.35172287 83.685,1.84431466 84.8064,2.67757642 C85.8144,3.43128052 84.8988,4.61208361 84.8988,4.61208361 C84.8988,4.61208361 86.0076,4.43203208 86.2764,4.98893567 C87.1836,6.88575765 83.727,9.00450363 83.6136,12.2077461 C78.3048,14.2092492 75.201,10.616593 75.201,10.616593" id="Fill-92" fill="#263238"></path>
                <path d="M56.0406,61.5251178 L54.2682,61.1985126 L51.9246,63.4303142 C51.66672,63.6752681 51.52476,64.017366 51.534,64.3724444 L51.5676,66.1980832 C51.576,66.8450125 52.07622,67.379305 52.7226,67.4333205 L53.5374,67.5045036 C54.14934,67.5622876 54.71382,67.1711989 54.873,66.5791225 L55.293,65.0884633 C55.293,65.0884633 57.6072,62.3625668 56.0406,61.5251178" id="Fill-93" fill="#FFB573"></path>
                <path d="M73.941,28.1360261 C72.7524,31.2052767 71.568,34.287089 70.4256,37.3772758 C69.2832,40.4674626 68.1492,43.5702112 67.0866,46.6227128 L66.8976,47.1879909 L66.7674,47.5564684 C66.717,47.6946475 66.6666,47.8370138 66.6204,47.9458822 C66.423,48.4441644 66.2256,48.8545144 66.0282,49.2690516 C65.6334,50.1065006 65.2344,50.8560175 64.8312,51.6139088 C64.0206,53.121317 63.1848,54.574291 62.3406,56.0230778 C60.6606,58.9248386 58.9806,61.7596035 57.2418,64.6362408 L51.8952,61.3199428 C53.6592,58.5856718 55.3602,55.7634686 56.9898,52.9454527 C57.792,51.5301639 58.5816,50.1106879 59.3166,48.7037735 C59.682,48.0003164 60.0348,47.2968592 60.3456,46.610151 C60.4926,46.2793587 60.6396,45.9401918 60.7362,45.6638337 C60.7698,45.584276 60.7824,45.5298418 60.8034,45.4754076 L60.8706,45.2576709 L61.0638,44.6463331 C62.076,41.430529 63.1386,38.3235932 64.1634,35.1705977 L67.2378,25.7451092 L73.941,28.1360261 Z" id="Fill-94" fill="#407BFF"></path>
                <path d="M73.941,28.1360261 C72.7524,31.2052767 71.568,34.287089 70.4256,37.3772758 C69.2832,40.4674626 68.1492,43.5702112 67.0866,46.6227128 L66.8976,47.1879909 L66.7674,47.5564684 C66.717,47.6946475 66.6666,47.8370138 66.6204,47.9458822 C66.423,48.4441644 66.2256,48.8545144 66.0282,49.2690516 C65.6334,50.1065006 65.2344,50.8560175 64.8312,51.6139088 C64.0206,53.121317 63.1848,54.574291 62.3406,56.0230778 C60.6606,58.9248386 58.9806,61.7596035 57.2418,64.6362408 L51.8952,61.3199428 C53.6592,58.5856718 55.3602,55.7634686 56.9898,52.9454527 C57.792,51.5301639 58.5816,50.1106879 59.3166,48.7037735 C59.682,48.0003164 60.0348,47.2968592 60.3456,46.610151 C60.4926,46.2793587 60.6396,45.9401918 60.7362,45.6638337 C60.7698,45.584276 60.7824,45.5298418 60.8034,45.4754076 L60.8706,45.2576709 L61.0638,44.6463331 C62.076,41.430529 63.1386,38.3235932 64.1634,35.1705977 L67.2378,25.7451092 L73.941,28.1360261 Z" id="Fill-95" fill="#76D6D5"></path>
                <polygon id="Fill-96" fill="#FFB573" points="57.9222 140.207639 54.1548 140.391877 55.9356 130.610473 59.5182 131.431173"></polygon>
                <polygon id="Fill-97" fill="#FFB573" points="84.9492 140.350005 81.1818 140.350005 81.1944 131.653097 84.9576 131.653097"></polygon>
                <path d="M80.8248,139.914489 L85.4154,139.914489 C85.56786,139.912019 85.69932,140.020469 85.7262,140.169953 L86.331,143.519749 C86.38224,143.83463 86.1672,144.131506 85.85136,144.182172 C85.81944,144.187615 85.78752,144.189709 85.7556,144.189709 C84.2772,144.164585 83.202,144.076653 81.3414,144.076653 C80.199,144.076653 76.7214,144.193896 75.159,144.193896 C73.5966,144.193896 73.437,142.636241 74.088,142.493874 C77.028,141.8616 79.2414,140.990654 80.2032,140.157392 C80.37372,140.003301 80.59464,139.917044 80.8248,139.914489" id="Fill-98" fill="#263238"></path>
                <polygon id="Fill-99" fill="#000000" points="55.9356 130.61466 55.1124 135.136885 58.695 135.957585 59.5182 131.43536"></polygon>
                <polygon id="Fill-100" fill="#000000" points="81.1902 136.133449 84.9576 136.133449 84.9576 131.653097 81.1902 131.653097"></polygon>
                <path d="M87.99,28.0271577 C85.05,41.2127922 85.8312,54.2267497 85.5162,57.0447656 L65.4108,55.7215962 C63.3108,39.8100651 65.6544,29.6601832 66.9858,25.4980617 C67.42764,24.0953346 68.64774,23.0765779 70.1106,22.8894081 C73.10016,22.562803 76.11114,22.4690087 79.1154,22.6088627 C81.14946,22.7302928 83.16798,23.0355429 85.1466,23.5216821 C87.17814,23.9852101 88.4499,26.0005311 87.99,28.0271577" id="Fill-101" fill="#1F6C79"></path>
                <path d="M81.9294,13.6732818 C81.2658,16.1563181 80.4804,20.5529254 81.7446,22.7763525 C81.942,23.1238938 81.564,23.4211882 81.5472,23.8231637 C81.501,25.0542137 79.8294,25.4226913 76.839,25.4394403 C73.8486,25.4561893 72.5676,24.2125775 73.3824,23.0401489 C73.50714,22.8613535 73.69698,22.7382485 73.9116,22.6967948 C76.713,22.0728953 76.7676,19.8829662 76.3854,17.7935309 L81.9294,13.6732818 Z" id="Fill-102" fill="#FFB573"></path>
                <path d="M76.6248,24.7569193 C77.4102,25.8460218 77.90874,27.114757 78.0738,28.4458822 C81.06,27.0473424 82.4838,23.6514867 82.4838,23.6514867 L81.585,22.6926076 C81.585,22.6926076 78.267,23.3165071 76.6248,24.7569193" id="Fill-103" fill="#000000"></path>
                <path d="M76.3308,24.7694811 C75.23124,25.661783 74.30346,26.7458607 73.5924,27.9685363 C71.505,26.6788648 72.1938,23.0024637 72.1938,23.0024637 L73.8948,22.6674841 C73.8948,22.6674841 74.655,23.366754 76.3308,24.7694811" id="Fill-104" fill="#000000"></path>
                <path d="M76.4652,24.6773617 L75.8226,24.7401704 L74.7348,25.4561893 C74.6655,25.8874755 74.74236,26.3296486 74.9532,26.7123628 C75.58488,26.8354678 76.23,26.8790151 76.8726,26.8421674 C77.30394,26.63448 77.6475,26.2814953 77.8428,25.845603 L77.0448,24.8281025 L76.4652,24.6773617 Z" id="Fill-105" fill="#263238"></path>
                <path d="M76.4652,24.6773617 C77.27202,25.6839754 77.8911,26.8270933 78.2922,28.0522812 C81.2784,26.6537413 83.0172,23.3123198 83.0172,23.3123198 L81.5766,22.0561463 C81.5766,22.0561463 78.1074,23.2453239 76.4652,24.6773617" id="Fill-106" fill="#1F6C79"></path>
                <path d="M76.4652,24.6773617 C75.31272,25.4021738 74.3043,26.3334171 73.4916,27.4241944 C71.3916,26.1387102 72.1938,22.6758586 72.1938,22.6758586 L73.8948,22.340879 C73.8948,22.340879 74.7936,23.2830091 76.4652,24.6773617" id="Fill-107" fill="#1F6C79"></path>
                <path d="M79.6698,15.3523671 L76.3938,17.7893437 C76.49292,18.2930692 76.54794,18.8043318 76.5576,19.3176881 C77.7378,19.2297559 79.4346,18.0615146 79.6404,16.838839 C79.7391,16.3489314 79.74918,15.8456245 79.6698,15.3523671" id="Fill-108" fill="#000000"></path>
                <path d="M82.53,9.5697817 C82.0554,13.267119 81.9672,15.4319247 79.9596,17.2366273 C76.9398,19.9122769 72.4584,17.9107738 71.8158,14.1464405 C71.2362,10.7589593 72.1098,5.28204282 75.852,4.04680554 C78.52068,3.14989766 81.4128,4.57984183 82.31244,7.23999858 C82.5657,7.98909671 82.64004,8.78676689 82.53,9.5697817" id="Fill-109" fill="#FFB573"></path>
                <path d="M81.6228,12.9112032 C80.7828,12.1030649 81.3078,8.23405055 81.732,7.12443062 C79.632,7.32541838 72.8448,7.31704389 73.101,5.44953262 C73.3572,3.58202134 75.8268,1.99505549 79.863,3.30566317 C83.223,4.39853412 84.063,6.06924488 84.063,7.43428675 C84.1134,10.2397409 81.6228,12.9112032 81.6228,12.9112032" id="Fill-110" fill="#263238"></path>
                <path d="M83.832,12.9530757 C83.433,13.7130606 82.75176,14.2871319 81.9336,14.5526033 C80.8626,14.8833956 80.3334,13.899393 80.6358,12.8442073 C80.9046,11.8978899 81.7908,10.5789078 82.8618,10.7128996 C83.9328,10.8468914 84.3234,12.0109455 83.832,12.9530757" id="Fill-111" fill="#FFB573"></path>
                <path d="M53.886,133.98958 L60.1146,135.358809 C60.1146,135.358809 66.171,111.696687 67.9686,100.131517 C68.5188,96.6142309 69.7956,91.5937242 70.959,86.3136082 C72.4248,79.6558886 74.2686,72.4538272 75.7806,66.8136082 C77.3766,60.8719075 78.561,56.6009176 78.561,56.6009176 L65.4108,55.7341579 C65.4108,55.7341579 59.2914,86.6820858 58.0566,98.0755794 C56.7672,109.917108 53.886,133.98958 53.886,133.98958" id="Fill-112" fill="#263238"></path>
                <path d="M70.959,86.3052337 C72.4248,79.6475141 74.2686,72.4454527 75.7806,66.8052337 L74.3988,63.8741622 C71.1354,67.7599256 70.2996,79.781506 70.959,86.3052337" id="Fill-113" fill="#000000"></path>
                <path d="M71.6772,56.1361334 C71.6772,56.1361334 74.3988,87.762395 75.4572,98.7120407 C76.6332,110.70431 79.7874,135.270877 79.7874,135.270877 L86.1126,135.270877 C86.1126,135.270877 86.3982,109.10897 85.2726,97.5270503 C85.113,74.756812 85.512,57.0489528 85.512,57.0489528 L71.6772,56.1361334 Z" id="Fill-114" fill="#263238"></path>
                <polygon id="Fill-115" fill="#1F6C79" points="78.981 135.41743 87.1038 135.41743 87.1038 132.997203 78.666 132.532419"></polygon>
                <polygon id="Fill-116" fill="#1F6C79" points="53.0712 133.964456 60.4926 135.597482 61.0218 133.206565 53.2518 131.255309"></polygon>
                <path d="M77.1078,10.2313664 C77.1078,10.5328481 76.9104,10.7673338 76.713,10.754772 C76.5156,10.7422103 76.3686,10.4867884 76.3896,10.1853067 C76.4106,9.88382508 76.587,9.64933936 76.7844,9.66190109 C76.9818,9.67446283 77.1288,9.92988477 77.1078,10.2313664" id="Fill-117" fill="#263238"></path>
                <path d="M73.6806,10.0220042 C73.6806,10.3234858 73.4832,10.5579715 73.2858,10.5454098 C73.0884,10.5328481 72.9414,10.2774261 72.9624,9.97594447 C72.9834,9.67446283 73.1598,9.43997711 73.3572,9.45253884 C73.5546,9.46510058 73.7016,9.70377354 73.6806,10.0220042" id="Fill-118" fill="#263238"></path>
                <path d="M74.466,10.2313664 C74.04264,11.1295305 73.49874,11.9665607 72.849,12.7185899 C73.3488,13.2545573 74.277,13.0870675 74.277,13.0870675 L74.466,10.2313664 Z" id="Fill-119" fill="#ED893E"></path>
                <path d="M75.5034,13.9789507 C76.19136,13.940428 76.83312,13.6226161 77.28,13.0996292 C77.31234,13.0657126 77.31234,13.0121158 77.28,12.9781991 C77.24472,12.9451199 77.18928,12.9451199 77.154,12.9781991 C76.64832,13.5535266 75.8982,13.8550082 75.1338,13.7905247 C75.0855,13.7855 75.04224,13.8210916 75.0372,13.8692449 C75.0372,13.8696636 75.0372,13.8696636 75.0372,13.8700823 C75.03468,13.9194918 75.07164,13.961783 75.1212,13.966389 C75.24804,13.9781132 75.37572,13.9823005 75.5034,13.9789507" id="Fill-120" fill="#263238"></path>
                <path d="M77.9436,9.18455516 C77.97342,9.18120537 78.00198,9.17115598 78.0276,9.15524445 C78.11034,9.10164771 78.1347,8.99152317 78.0822,8.90819699 C77.7777,8.4195455 77.25522,8.10759575 76.6794,8.07074799 C76.5807,8.08582207 76.51308,8.17794146 76.5282,8.275923 C76.54038,8.35380575 76.6017,8.41452081 76.6794,8.42666382 C77.13426,8.46016178 77.54502,8.70930285 77.784,9.09662302 C77.81592,9.15398827 77.87808,9.18790496 77.9436,9.18455516" id="Fill-121" fill="#263238"></path>
                <path d="M71.988,8.73651995 C72.04722,8.7323327 72.10056,8.69967219 72.1308,8.6485878 C72.34794,8.2537306 72.74148,7.98616564 73.1892,7.92838166 C73.28622,7.91958845 73.35972,7.83709972 73.3572,7.73995564 C73.35048,7.6419741 73.26648,7.56785987 73.1682,7.57246584 C72.59616,7.64155538 72.093,7.98323457 71.82,8.48947249 C71.77296,8.57405484 71.80278,8.68041086 71.8872,8.72814546 C71.9187,8.74238209 71.9544,8.74531316 71.988,8.73651995" id="Fill-122" fill="#263238"></path>
                <path d="M80.2872,140.589505 C79.6446,140.772036 79.1532,140.736707 78.9558,140.495296 C78.86466,140.381656 78.82308,140.209724 78.8466,140.041914 C78.8466,139.947705 78.8802,139.912376 78.9054,139.894712 C79.128,139.741622 79.8084,140.189116 80.2872,140.589505 M79.5522,140.954566 C79.88652,140.943379 80.21916,140.880376 80.5434,140.766148 C80.57826,140.75496 80.60472,140.71551 80.6106,140.66605 C80.61984,140.618946 80.6064,140.568897 80.577,140.542401 C80.4426,140.418751 79.2582,139.364785 78.8298,139.670965 C78.7353,139.740444 78.6744,139.874692 78.6702,140.02425 C78.63996,140.27096 78.7017,140.521792 78.834,140.689603 C79.04442,140.891564 79.2981,140.985184 79.5522,140.954566" id="Fill-123" fill="#1F6C79"></path>
                <path d="M79.8872364,138.91378 C79.9749714,138.914617 80.0592561,138.943091 80.1238251,138.993338 C80.4392766,139.219449 80.552642,139.851723 80.5871445,140.169953 C80.1484697,139.876846 79.6013585,139.252947 79.6802213,139.005899 C79.6802213,138.984963 79.6802213,138.930529 79.8379471,138.917967 L79.8872364,138.917967 L79.8872364,138.91378 Z M80.7054388,140.437937 C80.7226901,140.443799 80.7424058,140.443799 80.7596571,140.437937 C80.7936667,140.422026 80.8148611,140.391459 80.8138753,140.35838 C80.8138753,140.31232 80.7596571,139.227823 80.2618351,138.871908 C80.1400905,138.781463 79.9784216,138.740009 79.8182314,138.758852 C79.6555767,138.759271 79.5146093,138.85474 79.4781352,138.98915 C79.3647698,139.407875 80.2076169,140.245324 80.6561495,140.442124 C80.6729079,140.445055 80.6896662,140.443381 80.7054388,140.437937 L80.7054388,140.437937 Z" id="Fill-124" fill="#1F6C79"></path>
                <path d="M53.592,138.737916 L58.0104,139.994089 C58.15572,140.035543 58.25106,140.174559 58.2372,140.324882 L57.9096,143.703988 C57.86844,144.022638 57.57612,144.24833 57.2565,144.207295 C57.2271,144.203527 57.19854,144.197664 57.1704,144.189709 C55.755,143.770984 54.747,143.389945 52.9704,142.883288 C51.87,142.573432 48.2874,141.292135 46.9812,140.404439 C45.675,139.516743 46.4436,138.147514 47.061,138.398749 C49.8372,139.520931 51.7902,139.340879 52.941,138.817473 C53.14176,138.714886 53.37234,138.686831 53.592,138.737916" id="Fill-125" fill="#263238"></path>
                <path d="M52.9662,139.078103 C52.311,139.022705 51.8448,138.847279 51.7062,138.616456 C51.64866,138.499659 51.64866,138.359318 51.7062,138.242522 C51.7314,138.168658 51.765,138.154809 51.7944,138.150192 C52.0338,138.090178 52.5798,138.634922 52.9662,139.096569 L52.9662,139.078103 Z M52.185,139.1335 C52.50966,139.222137 52.84188,139.27338 53.1762,139.285844 C53.21316,139.288614 53.2476,139.266455 53.2644,139.230446 C53.28456,139.198593 53.28456,139.156121 53.2644,139.124268 C53.1594,138.995006 52.2228,137.850121 51.7566,137.947067 C51.65118,137.972458 51.56508,138.056478 51.5298,138.168658 C51.45588,138.344084 51.4668,138.548594 51.5592,138.713402 C51.71922,138.926221 51.93972,139.073948 52.185,139.1335 L52.185,139.1335 Z" id="Fill-126" fill="#1F6C79"></path>
                <path d="M53.1128581,137.502678 C53.222993,137.522777 53.3176704,137.568837 53.3769242,137.632483 C53.6860748,137.92559 53.557262,138.562051 53.4735338,138.888657 C53.0420111,138.507617 52.6298103,137.783224 52.8294701,137.5613 C52.8294701,137.540364 52.8874358,137.494304 53.0677736,137.511053 L53.1128581,137.502678 Z M53.5057369,139.15664 C53.5308554,139.160827 53.5579061,139.160827 53.5830246,139.15664 C53.6339056,139.148266 53.6731935,139.122724 53.6860748,139.089644 C53.6860748,139.047772 54.0853943,137.992586 53.6152278,137.531989 C53.4986522,137.418515 53.313806,137.342307 53.1064175,137.322627 C52.9009612,137.28536 52.6832676,137.344401 52.5782853,137.464993 C52.2562534,137.841845 52.9776047,138.830035 53.4477712,139.139891 C53.4645169,139.148684 53.4844828,139.154128 53.5057369,139.15664 L53.5057369,139.15664 Z" id="Fill-127" fill="#1F6C79"></path>
                <path d="M81.9924,22.4497473 C81.82986,22.4237864 81.67698,22.533911 81.65094,22.6963761 C81.64674,22.7198246 81.6459,22.7441107 81.648,22.767978 C81.795,25.0123413 78.288,29.0488455 77.448,41.1374218 C76.9482,48.490224 76.4904,71.4153905 76.8264,83.3406642 C76.84404,83.9092921 77.32116,84.3560712 77.8911,84.3385916 C77.97594,84.3355537 78.05952,84.3225732 78.141,84.2995434 C84.3402,82.5743984 87.2676,86.7574562 88.4604,81.8248816 C88.3974,75.9166788 86.604,54.7040956 87.066,49.6752144 C87.528,44.6463331 89.4474,30.9833527 89.9262,27.3404495 C90.3504,24.1748923 83.727,22.7637907 81.9924,22.4497473" id="Fill-128" fill="#407BFF"></path>
                <path d="M81.9924,22.4497473 C81.82986,22.4237864 81.67698,22.533911 81.65094,22.6963761 C81.64674,22.7198246 81.6459,22.7441107 81.648,22.767978 C81.795,25.0123413 78.288,29.0488455 77.448,41.1374218 C76.9482,48.490224 76.4904,71.4153905 76.8264,83.3406642 C76.84404,83.9092921 77.32116,84.3560712 77.8911,84.3385916 C77.97594,84.3355537 78.05952,84.3225732 78.141,84.2995434 C84.3402,82.5743984 87.2676,86.7574562 88.4604,81.8248816 C88.3974,75.9166788 86.604,54.7040956 87.066,49.6752144 C87.528,44.6463331 89.4474,30.9833527 89.9262,27.3404495 C90.3504,24.1748923 83.727,22.7637907 81.9924,22.4497473" id="Fill-129" fill="#76D6D5"></path>
                <path d="M86.079,32.6959359 C85.806,34.5634472 85.701,42.1088627 87.5028,45.7392041 C87.8052,43.2268571 88.2,40.2413514 88.5822,37.3647141 L86.079,32.6959359 Z" id="Fill-130" fill="#39A9A6"></path>
                <path d="M88.6536,65.3271362 L86.8644,65.5364985 L85.281,68.3545144 C85.10544,68.6631143 85.0689,69.0311732 85.1802,69.3678277 L85.7514,71.1013471 C85.95216,71.7160347 86.58804,72.0782313 87.2214,71.9387961 L88.0194,71.7713063 C88.62504,71.64862 89.05218,71.1059531 89.0274,70.4900093 L88.977,68.9491032 C88.977,68.9491032 90.3966,65.6788648 88.6536,65.3271362" id="Fill-131" fill="#FFB573"></path>
                <path d="M89.6364,25.9335352 C90.2076,27.6084332 90.7368,29.262395 91.2618,30.937293 C91.7868,32.612191 92.3118,34.287089 92.8074,35.961987 C93.303,37.636885 93.7818,39.3494682 94.2228,41.0955494 C94.4412,41.9706836 94.6428,42.8541923 94.836,43.7795734 C94.9242,44.2443576 95.0124,44.7175163 95.0838,45.2199857 C95.1174,45.4795949 95.1552,45.7182679 95.1762,46.0071878 L95.214,46.4259123 L95.235,46.8990709 C95.2434,47.0581863 95.2434,47.2173016 95.235,47.3764169 C95.235,47.5439067 95.235,47.703022 95.214,47.8328266 L95.1762,48.2515511 L95.13,48.6284031 C95.0712,49.1350598 94.9956,49.5956567 94.92,50.0562537 C94.7688,50.9690731 94.5924,51.8483945 94.4118,52.7193415 C94.0506,54.4612354 93.6474,56.1654441 93.24,57.8612784 C92.8326,59.5571126 92.4,61.2487596 91.98,62.9362193 L90.72,67.9985985 L84.6384,66.3530113 C85.5792,63.0827729 86.436,59.7539131 87.2298,56.4459896 C87.6162,54.7710916 87.9774,53.1296915 88.3008,51.4924787 C88.4604,50.6550297 88.6116,49.8594532 88.7208,49.0722511 C88.7838,48.6786501 88.8342,48.2892363 88.8678,47.9375077 C88.90056,47.6594746 88.91148,47.3797667 88.9014,47.1000587 L88.9014,46.9241944 L88.872,46.6980832 C88.872,46.5557169 88.8216,46.3672908 88.7964,46.2039883 C88.7376,45.8522597 88.662,45.4795949 88.578,45.0985556 C88.4058,44.336477 88.2,43.5492749 87.9774,42.7578856 C87.5574,41.1709198 87.024,39.5630177 86.4822,37.9634901 C85.4112,34.7644349 84.2058,31.5444435 82.9626,28.4123842 L89.6364,25.9335352 Z" id="Fill-132" fill="#407BFF"></path>
                <path d="M89.6364,25.9335352 C90.2076,27.6084332 90.7368,29.262395 91.2618,30.937293 C91.7868,32.612191 92.3118,34.287089 92.8074,35.961987 C93.303,37.636885 93.7818,39.3494682 94.2228,41.0955494 C94.4412,41.9706836 94.6428,42.8541923 94.836,43.7795734 C94.9242,44.2443576 95.0124,44.7175163 95.0838,45.2199857 C95.1174,45.4795949 95.1552,45.7182679 95.1762,46.0071878 L95.214,46.4259123 L95.235,46.8990709 C95.2434,47.0581863 95.2434,47.2173016 95.235,47.3764169 C95.235,47.5439067 95.235,47.703022 95.214,47.8328266 L95.1762,48.2515511 L95.13,48.6284031 C95.0712,49.1350598 94.9956,49.5956567 94.92,50.0562537 C94.7688,50.9690731 94.5924,51.8483945 94.4118,52.7193415 C94.0506,54.4612354 93.6474,56.1654441 93.24,57.8612784 C92.8326,59.5571126 92.4,61.2487596 91.98,62.9362193 L90.72,67.9985985 L84.6384,66.3530113 C85.5792,63.0827729 86.436,59.7539131 87.2298,56.4459896 C87.6162,54.7710916 87.9774,53.1296915 88.3008,51.4924787 C88.4604,50.6550297 88.6116,49.8594532 88.7208,49.0722511 C88.7838,48.6786501 88.8342,48.2892363 88.8678,47.9375077 C88.90056,47.6594746 88.91148,47.3797667 88.9014,47.1000587 L88.9014,46.9241944 L88.872,46.6980832 C88.872,46.5557169 88.8216,46.3672908 88.7964,46.2039883 C88.7376,45.8522597 88.662,45.4795949 88.578,45.0985556 C88.4058,44.336477 88.2,43.5492749 87.9774,42.7578856 C87.5574,41.1709198 87.024,39.5630177 86.4822,37.9634901 C85.4112,34.7644349 84.2058,31.5444435 82.9626,28.4123842 L89.6364,25.9335352 Z" id="Fill-133" fill="#76D6D5"></path>
                <path d="M73.8234,22.1356889 C74.09262,22.1336103 74.31228,22.3496722 74.3143834,22.6176559 C74.3148,22.7302928 74.27658,22.8395799 74.2056,22.9270933 C73.206,24.0827729 72.576,25.6697388 71.3916,30.7614287 C69.9636,36.9041171 66.9228,67.8101725 66.3516,82.9554377 C66.34068,83.4361334 65.94084,83.8175915 65.45868,83.806932 C65.4129,83.8054484 65.36754,83.8008425 65.3226,83.7928867 C62.3574,83.2485449 60.3246,84.6805826 60.0012,82.7837607 C59.6442,80.6901382 60.9756,60.691856 63.4662,51.2873037 C63.0756,42.9463117 64.4868,26.2140806 67.305,23.9906535 C68.8338,22.7554162 72.0846,22.1650147 73.8234,22.1356889" id="Fill-134" fill="#407BFF"></path>
                <path d="M73.8234,22.1356889 C74.09262,22.1336103 74.31228,22.3496722 74.3143834,22.6176559 C74.3148,22.7302928 74.27658,22.8395799 74.2056,22.9270933 C73.206,24.0827729 72.576,25.6697388 71.3916,30.7614287 C69.9636,36.9041171 66.9228,67.8101725 66.3516,82.9554377 C66.34068,83.4361334 65.94084,83.8175915 65.45868,83.806932 C65.4129,83.8054484 65.36754,83.8008425 65.3226,83.7928867 C62.3574,83.2485449 60.3246,84.6805826 60.0012,82.7837607 C59.6442,80.6901382 60.9756,60.691856 63.4662,51.2873037 C63.0756,42.9463117 64.4868,26.2140806 67.305,23.9906535 C68.8338,22.7554162 72.0846,22.1650147 73.8234,22.1356889" id="Fill-135" fill="#76D6D5"></path>
                <path d="M75.4572,26.2852638 C75.4572,26.2852638 71.8284,36.4477074 70.5516,44.9645638 C70.4508,47.2801102 71.5554,51.7646496 72.45,53.7200931 C74.319,49.6626527 75.4866,47.2717358 75.6714,44.9645638 C75.9696,41.4933376 76.461,26.3522597 76.461,26.3522597 L75.4572,26.2852638 Z" id="Fill-136" fill="#263238"></path>
                <path d="M83.0508,38.3738401 C82.95798,38.370909 82.88532,38.293445 82.88826,38.2009069 C82.89036,38.1418667 82.92354,38.08827 82.9752,38.0597967 L83.664,37.6996937 C84.9807,37.024291 85.74006,35.6069086 85.5708,34.1405354 L84.8232,27.3906965 C84.68754,26.1537843 83.57202,25.2606449 82.33176,25.3958929 C81.4863,25.4880123 80.76432,26.0453346 80.4636,26.8379801 L78.0444,33.1816563 C77.511,34.5580037 77.88732,36.1202648 78.9894,37.1051049 L79.569,37.6285105 C79.63284,37.6934128 79.63284,37.7976752 79.569,37.8629962 C79.50348,37.9266423 79.39932,37.9266423 79.3338,37.8629962 L78.7542,37.3437778 C77.55342,36.2630499 77.14728,34.5550727 77.7336,33.0518517 L80.1738,26.7207373 C80.68788,25.386681 82.18896,24.7204903 83.5275,25.2325904 C84.43134,25.5788755 85.06722,26.3979007 85.176,27.3571985 L85.9236,34.1028502 C86.10462,35.7099148 85.2684,37.2612891 83.8236,37.9969881 L83.1348,38.3529039 C83.11002,38.3688154 83.0802,38.3763525 83.0508,38.3738401" id="Fill-137" fill="#263238"></path>
                <path d="M85.134,28.8646152 C85.05126,28.8654441 84.9807,28.8043104 84.9702,28.7222404 C84.76944,27.6055021 83.83326,26.7672157 82.698,26.6872393 C81.7656,26.5699964 80.4972,26.8631036 79.989,28.0857791 C79.9596,28.1732925 79.86426,28.2206084 79.77606,28.1912977 C79.68828,28.161987 79.64082,28.0669365 79.67064,27.9790044 C79.67274,27.9727235 79.67526,27.9664426 79.6782,27.9601618 C80.44302,26.4854141 82.26246,25.907993 83.74212,26.6704903 C84.53172,27.0779093 85.10124,27.8115146 85.2978,28.6761807 C85.3104,28.7649503 85.24824,28.847439 85.1592,28.8604195 L85.134,28.8646152 Z" id="Fill-138" fill="#263238"></path>
                <path d="M82.8744,25.4017551 L82.8744,25.4017551 C82.7841,25.3975678 82.71438,25.3209412 82.71858,25.2309155 C82.71858,25.2292406 82.719,25.2275657 82.719,25.2258908 C82.7694,24.409378 82.6518,22.922906 81.879,22.5376795 C81.79668,22.4949696 81.76476,22.3936383 81.8076,22.3115683 C81.85044,22.2294983 81.95208,22.1976752 82.0344,22.2403851 C83.1516,22.8140377 83.0508,24.9997796 83.034,25.246827 C83.0298,25.3322468 82.96008,25.3996615 82.8744,25.4017551" id="Fill-139" fill="#263238"></path>
                <path d="M79.8294,37.7960003 C79.7874,38.1100437 79.59,38.3403422 79.3842,38.3110314 C79.1784,38.2817207 79.044,38.013737 79.086,37.7038809 C79.128,37.3940248 79.3212,37.1595391 79.527,37.1888498 C79.7328,37.2181605 79.8672,37.4861442 79.8294,37.7960003" id="Fill-140" fill="#263238"></path>
                <path d="M70.0644,31.0084761 C69.7998,31.6742481 69.2244,32.0762236 68.8044,31.9045466 C68.3844,31.7328695 68.2206,31.0670976 68.4852,30.3845766 C68.7498,29.7020557 69.3252,29.3168292 69.7452,29.4885062 C70.1652,29.6601832 70.3248,30.3427042 70.0644,31.0084761" id="Fill-141" fill="#263238"></path>
                <path d="M68.6826,30.5771899 L68.649,30.5771899 C68.5587,30.5583473 68.50074,30.4704152 68.5188,30.3803894 C69.0732,27.6293694 71.3664,23.2620729 73.3866,22.0058994 C73.45674,21.945603 73.563,21.9531401 73.62348,22.0230671 C73.68438,22.0934128 73.6764,22.1989314 73.60626,22.2596464 C73.59324,22.2705333 73.57854,22.2797452 73.563,22.2864448 C71.61,23.5133076 69.3882,27.7298633 68.8464,30.4390108 C68.83212,30.5181498 68.76324,30.5763525 68.6826,30.5771899" id="Fill-142" fill="#263238"></path>
                <path d="M70.5432,31.1466552 C70.35,31.7203078 69.8544,32.0762236 69.4344,31.9380445 C69.0144,31.7998654 68.8254,31.2178384 69.0144,30.6399986 C69.2034,30.0621588 69.7032,29.7104302 70.1232,29.8486093 C70.5432,29.9867884 70.7364,30.5688154 70.5432,31.1466552" id="Fill-143" fill="#FFFFFF"></path>
                <path d="M70.5726,31.2052767 C70.3164,31.9129211 69.8418,32.3944542 69.5184,32.2772114 C69.195,32.1599685 69.1404,31.4900093 69.4008,30.7781777 C69.6612,30.066346 70.1316,29.5890001 70.455,29.7062429 C70.7784,29.8234858 70.833,30.493445 70.5726,31.2052767" id="Fill-144" fill="#263238"></path>
                <path d="M83.4246,38.2565973 C83.3868,38.5664534 83.1852,38.7967519 82.9794,38.7716284 C82.7736,38.7465049 82.6392,38.4701467 82.6812,38.1602906 C82.7232,37.8504345 82.9206,37.620136 83.1264,37.6452595 C83.3322,37.6703829 83.4666,37.9425539 83.4246,38.2565973" id="Fill-145" fill="#263238"></path>
                <path d="M107.2386,20.1132646 C108.6414,23.9362193 104.9118,25.8581648 102.4674,31.4900093 C100.023,37.1218539 105.9198,43.8381948 114.9708,43.9847484 C124.0218,44.131302 124.3074,35.4888283 122.9046,29.2875184 C121.5018,23.0862086 124.4334,22.0770825 123.8118,17.3413084 C123.0138,11.1190624 114.0216,6.40422448 110.4516,12.1156267 C107.2764,11.8183323 106.0122,16.7718431 107.2386,20.1132646" id="Fill-146" fill="#263238"></path>
                <path d="M134.0472,71.5745058 L134.0472,71.0887854 C134.0388,70.8555558 133.98,70.627351 133.875,70.4188262 L132.3546,67.4291332 L130.5738,67.0941536 C129.3138,68.4466338 130.5738,71.1432195 130.5738,71.1432195 L130.5738,71.5745058 C130.57422,72.3005741 131.05764,72.9378727 131.7582,73.1363482 L131.9976,73.2075313 C132.86994,73.4369924 133.76412,72.917774 133.99428,72.0480832 C134.03502,71.8935738 134.05308,71.7340398 134.0472,71.5745058" id="Fill-147" fill="#FFC3BD"></path>
                <path d="M126.4998,33.1146604 L127.155,37.6955064 L127.8438,42.2637907 C128.0706,43.7921352 128.31,45.3121051 128.5536,46.8362623 L129.2802,51.3752359 L129.3684,51.8232711 C129.3978,51.9698246 129.4482,52.1582507 129.486,52.3215532 L129.612,52.8365844 L129.759,53.3683645 C129.948,54.0718216 130.179,54.8004023 130.3806,55.5206084 C130.8006,56.9652079 131.2836,58.4265565 131.7582,59.8795305 C132.7242,62.7812913 133.7322,65.6956138 134.8074,68.5596894 L128.8686,70.6533119 L125.895,61.8014759 C125.4036,60.3233784 124.9038,58.845281 124.4292,57.3378727 C124.194,56.5799814 123.9588,55.8304645 123.7362,55.0474497 L123.564,54.4654227 L123.4002,53.8582721 C123.3456,53.6489099 123.2868,53.4646711 123.2364,53.2343726 L123.081,52.5476645 L122.2032,47.941695 C121.92306,46.4229812 121.63074,44.9046861 121.3254,43.3859724 L120.4266,38.8302498 L119.49,34.3080252 L126.4998,33.1146604 Z" id="Fill-148" fill="#407BFF"></path>
                <path d="M126.4998,33.1146604 L127.155,37.6955064 L127.8438,42.2637907 C128.0706,43.7921352 128.31,45.3121051 128.5536,46.8362623 L129.2802,51.3752359 L129.3684,51.8232711 C129.3978,51.9698246 129.4482,52.1582507 129.486,52.3215532 L129.612,52.8365844 L129.759,53.3683645 C129.948,54.0718216 130.179,54.8004023 130.3806,55.5206084 C130.8006,56.9652079 131.2836,58.4265565 131.7582,59.8795305 C132.7242,62.7812913 133.7322,65.6956138 134.8074,68.5596894 L128.8686,70.6533119 L125.895,61.8014759 C125.4036,60.3233784 124.9038,58.845281 124.4292,57.3378727 C124.194,56.5799814 123.9588,55.8304645 123.7362,55.0474497 L123.564,54.4654227 L123.4002,53.8582721 C123.3456,53.6489099 123.2868,53.4646711 123.2364,53.2343726 L123.081,52.5476645 L122.2032,47.941695 C121.92306,46.4229812 121.63074,44.9046861 121.3254,43.3859724 L120.4266,38.8302498 L119.49,34.3080252 L126.4998,33.1146604 Z" id="Fill-149" fill="#76D6D5"></path>
                <path d="M125.5548,32.7629318 C125.7522,34.9947334 125.5758,40.5470203 123.3288,54.3104946 L107.7888,54.3104946 C108.0366,48.3311087 108.0534,44.5207158 105.4788,33.1104731 C105.24234,32.0732925 105.89418,31.0411367 106.93452,30.8053948 C106.974,30.7966015 107.0139,30.7886458 107.0538,30.7823649 C108.57126,30.5340613 110.1009,30.3674089 111.636,30.2840828 C113.988,30.116593 116.34882,30.116593 118.7004,30.2840828 C120.6324,30.459947 122.7282,30.8074884 123.9966,31.0377869 C124.84584,31.1985771 125.48298,31.9041278 125.5548,32.7629318" id="Fill-150" fill="#263238"></path>
                <path d="M112.3206,22.3534407 C112.7658,24.6187403 113.211,28.7724873 111.6192,30.2840828 C111.6192,30.2840828 113.61,32.6959359 116.6592,32.6959359 C119.7084,32.6959359 118.6878,30.2840828 118.6878,30.2840828 C116.1678,29.6811195 116.2182,27.8052337 116.6592,26.0465908 L112.3206,22.3534407 Z" id="Fill-151" fill="#FFC3BD"></path>
                <path d="M114.0888,23.8608489 L116.655,26.0424036 C116.54622,26.4540097 116.47314,26.8744091 116.4366,27.2985771 C115.4664,27.160398 113.946,26.3355107 113.736,25.2845122 C113.6394,24.7862301 114.0048,24.0953346 114.0888,23.8608489" id="Fill-152" fill="#000000"></path>
                <path d="M109.6452,17.9065865 C110.2374,21.6499836 110.4096,23.2453239 112.5012,24.9955923 C115.6512,27.6293694 120.1326,26.084276 120.6744,22.2403851 C121.1616,18.7817207 120.1074,13.2378083 116.2686,12.0946904 C113.52768,11.2635223 110.6301,12.8048472 109.79682,15.5374433 C109.56246,16.3045466 109.5108,17.1156159 109.6452,17.9065865" id="Fill-153" fill="#FFC3BD"></path>
                <path d="M110.271,20.6031723 C112.4214,18.4802391 113.1606,15.5282313 112.959,14.3223048 C115.0296,14.8959574 116.55,14.0836318 116.4576,13.7319032 C117.9192,15.1555665 120.5694,16.2819355 120.2712,14.7494038 C119.973,13.2168721 118.0116,10.3904817 113.9208,11.3996078 C109.83,12.4087338 108.255,16.5959788 108.3138,18.2960003 C108.3726,19.9960218 110.271,20.6031723 110.271,20.6031723" id="Fill-154" fill="#263238"></path>
                <path d="M115.0338,18.3294983 C115.0632,18.6393544 115.248,18.8696529 115.4538,18.8529039 C115.6596,18.8361549 115.794,18.5681712 115.7646,18.2625023 C115.7352,17.9568335 115.5462,17.7223477 115.3446,17.7390967 C115.143,17.7558457 115.0338,18.0238294 115.0338,18.3294983" id="Fill-155" fill="#263238"></path>
                <path d="M118.524,17.9987059 C118.5534,18.3043748 118.7424,18.5388605 118.944,18.5179243 C119.1456,18.4969881 119.2842,18.2373789 119.2548,17.93171 C119.2254,17.6260411 119.0364,17.3915554 118.8348,17.4083044 C118.6332,17.4250533 118.4946,17.693037 118.524,17.9987059" id="Fill-156" fill="#263238"></path>
                <path d="M118.7508,17.4334278 L119.469,17.1528824 C119.469,17.1528824 119.1414,17.7642202 118.7508,17.4334278" id="Fill-157" fill="#263238"></path>
                <path d="M117.5076,18.6519161 C117.84696,19.3260626 118.2783,19.9499621 118.7886,20.5068657 C118.49292,20.7622876 118.0998,20.8753432 117.7134,20.8167218 L117.5076,18.6519161 Z" id="Fill-158" fill="#ED847E"></path>
                <path d="M116.151,22.1650147 C116.30346,22.1754828 116.45634,22.1754828 116.6088,22.1650147 C116.65836,22.1583151 116.69364,22.1139303 116.6886,22.0645208 C116.68692,22.0184611 116.64786,21.9824508 116.60124,21.9841257 C116.5983,21.9841257 116.59494,21.9845444 116.592,21.9849632 C115.8171,22.0745702 115.04514,21.7915124 114.513,21.2228846 C114.4752,21.1885492 114.41682,21.1914802 114.38238,21.2291654 C114.35592,21.2584761 114.35088,21.3016048 114.3702,21.3359402 C114.82926,21.8379909 115.47018,22.1365414 116.151,22.1650147" id="Fill-159" fill="#263238"></path>
                <path d="M108.8136,20.9507136 C109.09416,21.6286286 109.63134,22.1687832 110.3088,22.4539346 C111.2076,22.8224122 111.7746,22.0352101 111.6192,21.1433269 C111.4806,20.3058779 110.8422,19.146011 109.893,19.16276 C109.1979,19.1966767 108.66198,19.7858221 108.696,20.4788111 C108.70398,20.6421137 108.74388,20.8024852 108.8136,20.9507136" id="Fill-160" fill="#FFC3BD"></path>
                <path d="M113.8368,16.7215962 C113.91072,16.7475571 113.99346,16.7241085 114.0426,16.6629747 C114.5718,16.0139518 115.6512,16.0767604 115.6596,16.0767604 C115.75872,16.0817851 115.84398,16.0076709 115.8528,15.9092706 C115.86204,15.8125453 115.79106,15.7267068 115.69404,15.7174948 C115.6911,15.7170761 115.68774,15.7166574 115.6848,15.7166574 C115.6344,15.7166574 114.4038,15.641287 113.7612,16.4368635 C113.69904,16.5147463 113.70996,16.6278019 113.7864,16.6922855 L113.8368,16.7215962 Z" id="Fill-161" fill="#263238"></path>
                <path d="M119.7882,16.3405569 C119.88774,16.346419 119.97342,16.2710486 119.9793,16.1718109 C119.9835,16.1069086 119.952,16.0449374 119.8974,16.0097645 C119.4207,15.6743662 118.81086,15.5885277 118.2594,15.779466 C118.16742,15.8196636 118.12458,15.9256009 118.1628,16.018139 C118.20102,16.1102584 118.30644,16.1538058 118.39842,16.1161205 C118.39968,16.1152831 118.40094,16.1148644 118.4022,16.1144457 C118.84026,15.9691482 119.32116,16.042425 119.6958,16.3112462 C119.72352,16.3292513 119.75544,16.3393007 119.7882,16.3405569" id="Fill-162" fill="#263238"></path>
                <polygon id="Fill-163" fill="#FFC3BD" points="132.9846 140.994841 136.8528 140.810602 135.7062 132.101132 131.8422 132.289558"></polygon>
                <polygon id="Fill-164" fill="#000000" points="135.7062 132.10532 136.2984 136.594046 132.4302 136.778285 131.838 132.289558"></polygon>
                <path d="M123.3288,54.3104946 C123.3288,54.3104946 128.1966,83.7258908 130.179,95.1947549 C132.2454,107.120029 136.899,135.187132 136.899,135.187132 L131.7834,136.024581 C131.7834,136.024581 124.887,107.928167 122.1234,96.2457534 C119.1246,83.4955923 111.8586,66.3990709 111.9342,54.3439926 L123.3288,54.3104946 Z" id="Fill-165" fill="#1F6C79"></path>
                <path d="M115.5126,63.3381948 C114.7818,62.2788219 113.3748,60.7923499 112.2954,59.5696743 C113.274,67.0648429 116.0754,75.7617508 118.6332,83.952002 C119.3136,77.713007 118.9272,68.2498332 115.5126,63.3381948" id="Fill-166" fill="#000000"></path>
                <polygon id="Fill-167" fill="#FFC3BD" points="109.1202 140.404439 112.9506 140.404439 113.2068 131.560978 109.3722 131.560978"></polygon>
                <path d="M113.1312,139.826589 L108.8262,139.826589 C108.67206,139.825343 108.5406,139.93798 108.5196,140.090396 L108.0282,143.482064 C107.99334,143.822487 108.24198,144.1269 108.58344,144.161235 C108.60402,144.163329 108.62502,144.164585 108.6456,144.164585 C110.145,144.135275 110.8674,144.047342 112.7616,144.047342 C113.925,144.047342 116.3316,144.168772 117.9402,144.168772 C119.5488,144.168772 119.6202,142.585994 118.965,142.43944 C115.962,141.798792 114.765,140.911096 113.7696,140.061085 C113.59068,139.9116 113.36472,139.828693 113.1312,139.826589" id="Fill-168" fill="#263238"></path>
                <polygon id="Fill-169" fill="#000000" points="113.2026 131.565165 113.0724 136.125075 109.242 136.125075 109.3722 131.565165"></polygon>
                <path d="M118.9566,54.3104946 C118.9566,54.3104946 117.4026,84.1027428 116.3526,95.7014115 C115.2564,107.769052 113.9376,135.115949 113.9376,135.115949 L108.7548,135.115949 C108.7548,135.115949 107.8308,107.873733 108.192,95.9735824 C108.5826,82.9931229 105.4536,66.365573 107.5662,54.3104946 L118.9566,54.3104946 Z" id="Fill-170" fill="#1F6C79"></path>
                <polygon id="Fill-171" fill="#263238" points="108.3054 135.300188 114.3828 135.413243 114.4752 131.720093 108.2802 132.10532"></polygon>
                <path d="M115.2522,139.785176 C115.31016,139.782868 115.36728,139.799027 115.4202,139.831343 C115.45632,139.857312 115.479,139.908096 115.479,139.964073 C115.4979,140.112961 115.458,140.264157 115.374,140.362262 C115.143,140.650805 114.513,140.702742 113.6646,140.506533 C114.15978,140.142969 114.69696,139.898862 115.2522,139.785176 Z M114.5676,140.875868 C114.89478,140.917418 115.22238,140.803155 115.4958,140.5527 C115.62138,140.399195 115.6827,140.169515 115.6596,139.94099 C115.6533,139.803066 115.5966,139.678993 115.5084,139.612051 C115.038,139.254258 113.5092,140.327637 113.337,140.454596 C113.30424,140.479987 113.28576,140.530194 113.2908,140.581554 C113.29584,140.634069 113.3244,140.675619 113.3622,140.68543 C113.75868,140.801424 114.1623,140.86548 114.5676,140.875868 L114.5676,140.875868 Z" id="Fill-172" fill="#1F6C79"></path>
                <path d="M114.2946,138.825848 L114.3492,138.825848 C114.513,138.825848 114.5256,138.905405 114.5256,138.930529 C114.5718,139.190138 113.9586,139.834974 113.4924,140.115519 C113.52852,139.682558 113.69862,139.271371 113.9796,138.938903 C114.06738,138.86437 114.17952,138.824173 114.2946,138.825848 M113.379,140.375128 L113.4168,140.375128 C113.8746,140.169953 114.7776,139.345066 114.7062,138.91378 C114.7062,138.809099 114.618,138.683482 114.366,138.658358 C114.18372,138.637422 114.00102,138.693531 113.862,138.813286 C113.3832,139.211074 113.295,140.241137 113.2908,140.283009 C113.28744,140.31567 113.30214,140.347493 113.3286,140.366754 C113.34456,140.373454 113.36178,140.376385 113.379,140.375128" id="Fill-173" fill="#1F6C79"></path>
                <path d="M136.8066,139.826599 L132.5016,139.826599 C132.37182,139.818644 132.26052,139.917044 132.25254,140.046011 C132.25128,140.061085 132.25212,140.07574 132.2538,140.090396 L132.4722,143.482064 C132.5247,143.862266 132.84348,144.14993 133.2282,144.164585 C134.7234,144.135275 135.429,144.047342 137.319,144.047342 C138.4866,144.047342 140.9184,144.168772 142.527,144.168772 C144.1356,144.168772 143.8878,142.585994 143.1906,142.43944 C140.0532,141.798792 138.684,140.911096 137.4954,140.061085 C137.29506,139.914532 137.05482,139.83288 136.8066,139.826599" id="Fill-174" fill="#263238"></path>
                <path d="M138.9276,139.785208 C138.98556,139.781745 139.0431,139.797906 139.0956,139.831381 C139.13256,139.856776 139.15692,139.907566 139.1586,139.964128 C139.1733,140.112458 139.13424,140.261365 139.0536,140.362368 C138.8184,140.650948 138.1884,140.702893 137.34,140.506658 C137.8356,140.144202 138.37236,139.900063 138.9276,139.785208 M138.243,140.876041 C138.57144,140.917019 138.9003,140.803319 139.1754,140.552831 C139.29972,140.398152 139.36062,140.169597 139.3392,139.941042 C139.33164,139.802523 139.27284,139.678434 139.1838,139.61206 C138.7134,139.254221 137.1888,140.327739 137.0166,140.454714 C136.98216,140.478378 136.962,140.529168 136.9662,140.581689 C136.97334,140.632479 137.00106,140.67288 137.0376,140.685578 C137.43408,140.801587 137.8377,140.865652 138.243,140.876041" id="Fill-175" fill="#1F6C79"></path>
                <path d="M137.97,138.825848 L138.0246,138.825848 C138.1884,138.825848 138.201,138.905405 138.2052,138.930529 C138.2472,139.190138 137.634,139.834974 137.1678,140.115519 C137.2056,139.682977 137.37528,139.272208 137.655,138.938903 C137.7432,138.864789 137.85492,138.82501 137.97,138.825848 Z M137.0586,140.375128 L137.0964,140.375128 C137.55,140.169953 138.453,139.345066 138.3816,138.91378 C138.3816,138.809099 138.2934,138.683482 138.0414,138.658358 C137.86038,138.637422 137.67894,138.69395 137.5416,138.813286 C137.0586,139.211074 136.9704,140.241137 136.9662,140.283009 C136.96536,140.315251 136.97922,140.346237 137.004,140.366754 C137.02122,140.373872 137.04012,140.376803 137.0586,140.375128 L137.0586,140.375128 Z" id="Fill-176" fill="#1F6C79"></path>
                <polygon id="Fill-177" fill="#263238" points="131.355 136.263254 137.3568 135.300188 136.6806 132.101132 130.7334 133.499672"></polygon>
                <path d="M115.2732,17.7642202 L115.9914,17.4836748 C115.9914,17.4836748 115.668,18.0950125 115.2732,17.7642202" id="Fill-178" fill="#263238"></path>
                <path d="M107.5368,53.4018624 L107.142,54.7920278 C107.0874,54.8967089 107.2134,55.0097645 107.394,55.0097645 L123.4044,55.0097645 C123.5472,55.0097645 123.6606,54.9385814 123.669,54.8506492 L123.8118,53.4646711 C123.8118,53.3683645 123.6984,53.2846196 123.5472,53.2846196 L107.793,53.2846196 C107.69304,53.2758264 107.5956,53.3206299 107.5368,53.4018624" id="Fill-179" fill="#263238"></path>
                <path d="M109.7082,55.1563181 L109.2882,55.1563181 C109.2042,55.1563181 109.1412,55.1144457 109.1454,55.0641987 L109.3428,53.2594961 C109.3428,53.2050619 109.4226,53.1631895 109.5066,53.1631895 L109.9266,53.1631895 C110.0106,53.1631895 110.0736,53.2050619 110.0694,53.2594961 L109.8678,55.0641987 C109.8636,55.1144457 109.7922,55.1563181 109.7082,55.1563181" id="Fill-180" fill="#407BFF"></path>
                <path d="M122.22,55.1563181 L121.8,55.1563181 C121.716,55.1563181 121.6488,55.1144457 121.6572,55.0641987 L121.8546,53.2594961 C121.8546,53.2050619 121.9344,53.1631895 122.0184,53.1631895 L122.4384,53.1631895 C122.5224,53.1631895 122.5854,53.2050619 122.5812,53.2594961 L122.3838,55.0641987 C122.3754,55.1144457 122.304,55.1563181 122.22,55.1563181" id="Fill-181" fill="#407BFF"></path>
                <path d="M115.9872,55.1563181 L115.5672,55.1563181 C115.4832,55.1563181 115.4202,55.1144457 115.4244,55.0641987 L115.6218,53.2594961 C115.6218,53.2050619 115.7016,53.1631895 115.7856,53.1631895 L116.2056,53.1631895 C116.2896,53.1631895 116.3526,53.2050619 116.3442,53.2594961 L116.1468,55.0641987 C116.1468,55.1144457 116.0712,55.1563181 115.9872,55.1563181" id="Fill-182" fill="#407BFF"></path>
                <path d="M110.9472,30.1584654 C108.507,30.3803894 104.7774,29.9197924 104.8908,33.6506277 C105.0042,37.381463 104.2776,47.2633613 104.4708,51.890267 C104.664,56.5171727 103.4544,86.4769108 105.4116,95.1612569 C105.756,96.6896013 118.398,96.4928008 119.9268,96.3462472 L119.9268,94.9686436 C119.9268,94.9686436 129.1122,93.7375936 131.3844,94.1311946 C131.187,88.9138874 126.1008,62.5593673 125.9034,55.1563181 C125.706,47.7532689 126.5418,35.0324186 126.4914,33.0141665 C126.441,30.9959144 122.4174,30.1082185 119.952,30.1584654 C120.498,31.979917 119.2926,35.4008962 117.3648,39.2154764 C112.623,34.6095068 111.2244,32.3232711 110.9472,30.1584654" id="Fill-183" fill="#407BFF"></path>
                <path d="M110.9472,30.1584654 C108.507,30.3803894 104.7774,29.9197924 104.8908,33.6506277 C105.0042,37.381463 104.2776,47.2633613 104.4708,51.890267 C104.664,56.5171727 103.4544,86.4769108 105.4116,95.1612569 C105.756,96.6896013 118.398,96.4928008 119.9268,96.3462472 L119.9268,94.9686436 C119.9268,94.9686436 129.1122,93.7375936 131.3844,94.1311946 C131.187,88.9138874 126.1008,62.5593673 125.9034,55.1563181 C125.706,47.7532689 126.5418,35.0324186 126.4914,33.0141665 C126.441,30.9959144 122.4174,30.1082185 119.952,30.1584654 C120.498,31.979917 119.2926,35.4008962 117.3648,39.2154764 C112.623,34.6095068 111.2244,32.3232711 110.9472,30.1584654" id="Fill-184" fill="#76D6D5"></path>
                <path d="M106.302,39.0061141 L104.7396,40.1073595 C104.6178,43.3315382 104.454,46.9451306 104.4372,49.7380231 C105.8904,46.5347806 106.7094,41.9120621 106.302,39.0061141" id="Fill-185" fill="#39A9A6"></path>
                <path d="M111.279,35.6605053 C111.19962,35.7781669 111.11436,35.8912225 111.0228,35.9996722 L110.9346,36.1001661 L110.8884,36.150413 L110.8044,36.2383452 L110.6364,36.4183967 L110.3004,36.7910615 C110.0736,37.038109 109.8552,37.2935309 109.6368,37.5531401 C109.2,38.0723585 108.78,38.6012075 108.3768,39.1401059 C107.55318,40.2162279 106.78626,41.3342223 106.0794,42.489902 C104.69046,44.623722 103.68708,46.9832346 103.1142,49.4616649 C103.00836,50.0143812 102.94242,50.5742159 102.9168,51.1365629 C102.94284,51.4162709 103.02432,51.6880231 103.1562,51.9363267 C103.6896,53.0618581 104.33094,54.1333741 105.0714,55.1353819 C105.8484,56.2408146 106.7304,57.3169365 107.6334,58.3804968 C108.087,58.9164641 108.5574,59.4356825 109.032,59.9507136 C109.5066,60.4657448 110.0022,60.9933376 110.4642,61.4497473 L105.9366,65.8128566 C105.3864,65.2140806 104.8992,64.6697388 104.391,64.0960862 L102.9084,62.366754 C101.9256,61.2068871 100.9806,60.0009606 100.0482,58.7364126 C99.036,57.4006814 98.16072,55.9669687 97.4358,54.4570482 C97.2237,53.9893329 97.04268,53.5082185 96.894,53.0166359 C96.80664,52.7239475 96.73776,52.4262344 96.6882,52.1247527 C96.65586,51.9518195 96.6336,51.7767927 96.621,51.6013471 C96.6042,51.417527 96.59706,51.2332883 96.6,51.0486307 C96.61008,50.1496292 96.68736,49.2523026 96.831,48.3646067 C97.12164,46.6876151 97.59204,45.0466338 98.2338,43.4697173 C98.83776,41.9765457 99.53916,40.5248279 100.3338,39.123357 C101.1066,37.7415661 101.955,36.4225839 102.8328,35.1329125 C103.278,34.4880767 103.7316,33.8558027 104.2062,33.2319032 L104.9244,32.2981476 L105.2982,31.8291762 L105.4872,31.5946904 L105.5838,31.4816348 L105.6258,31.4272006 L105.567,31.4941966 C105.4914,31.5905032 105.42,31.6868098 105.3528,31.7873037 L111.279,35.6605053 Z" id="Fill-186" fill="#407BFF"></path>
                <path d="M111.279,35.6605053 C111.19962,35.7781669 111.11436,35.8912225 111.0228,35.9996722 L110.9346,36.1001661 L110.8884,36.150413 L110.8044,36.2383452 L110.6364,36.4183967 L110.3004,36.7910615 C110.0736,37.038109 109.8552,37.2935309 109.6368,37.5531401 C109.2,38.0723585 108.78,38.6012075 108.3768,39.1401059 C107.55318,40.2162279 106.78626,41.3342223 106.0794,42.489902 C104.69046,44.623722 103.68708,46.9832346 103.1142,49.4616649 C103.00836,50.0143812 102.94242,50.5742159 102.9168,51.1365629 C102.94284,51.4162709 103.02432,51.6880231 103.1562,51.9363267 C103.6896,53.0618581 104.33094,54.1333741 105.0714,55.1353819 C105.8484,56.2408146 106.7304,57.3169365 107.6334,58.3804968 C108.087,58.9164641 108.5574,59.4356825 109.032,59.9507136 C109.5066,60.4657448 110.0022,60.9933376 110.4642,61.4497473 L105.9366,65.8128566 C105.3864,65.2140806 104.8992,64.6697388 104.391,64.0960862 L102.9084,62.366754 C101.9256,61.2068871 100.9806,60.0009606 100.0482,58.7364126 C99.036,57.4006814 98.16072,55.9669687 97.4358,54.4570482 C97.2237,53.9893329 97.04268,53.5082185 96.894,53.0166359 C96.80664,52.7239475 96.73776,52.4262344 96.6882,52.1247527 C96.65586,51.9518195 96.6336,51.7767927 96.621,51.6013471 C96.6042,51.417527 96.59706,51.2332883 96.6,51.0486307 C96.61008,50.1496292 96.68736,49.2523026 96.831,48.3646067 C97.12164,46.6876151 97.59204,45.0466338 98.2338,43.4697173 C98.83776,41.9765457 99.53916,40.5248279 100.3338,39.123357 C101.1066,37.7415661 101.955,36.4225839 102.8328,35.1329125 C103.278,34.4880767 103.7316,33.8558027 104.2062,33.2319032 L104.9244,32.2981476 L105.2982,31.8291762 L105.4872,31.5946904 L105.5838,31.4816348 L105.6258,31.4272006 L105.567,31.4941966 C105.4914,31.5905032 105.42,31.6868098 105.3528,31.7873037 L111.279,35.6605053 Z" id="Fill-187" fill="#76D6D5"></path>
                <path d="M117.369,39.2154764 C117.81,48.1510572 120.204,79.3125345 119.931,94.9686436 L120.6618,94.872337 C120.6618,94.872337 119.5278,70.7956782 119.0154,60.2605698 C118.503,49.7254613 117.369,39.2154764 117.369,39.2154764" id="Fill-188" fill="#39A9A6"></path>
                <path d="M110.1114,61.5251178 L105.6258,66.365573 C105.6258,67.990224 104.4876,71.2395262 107.5032,72.4203293 C110.5188,73.6011324 110.5986,65.0340291 110.1114,61.5251178" id="Fill-189" fill="#39A9A6"></path>
                <path d="M124.7358,61.3743769 L126.7098,66.3069516 C126.7686,67.9818496 127.344,71.3316456 126.1764,72.6087553 C125.0088,73.885865 124.6686,65.0047184 124.7358,61.3743769" id="Fill-190" fill="#39A9A6"></path>
                <path d="M119.8344,42.3265994 L124.761,42.2931014 C124.94874,42.3010572 125.1075,42.1561785 125.11548,41.9690087 C125.11632,41.9514222 125.115886,41.9338358 125.1138,41.9162494 L124.8408,39.5881412 C124.8072,39.3804538 124.63164,39.2246883 124.4208,39.2154764 L119.49,39.2447871 C119.29974,39.2393437 119.1414,39.3884096 119.13552,39.5780918 C119.1351,39.5927471 119.13594,39.6069838 119.1372,39.6216391 L119.4102,41.9539346 C119.4459,42.1624594 119.62272,42.3178062 119.8344,42.3265994" id="Fill-191" fill="#FFFFFF"></path>
                <path d="M119.8344,42.3265994 L124.761,42.2931014 C124.94874,42.3010572 125.1075,42.1561785 125.11548,41.9690087 C125.11632,41.9514222 125.115886,41.9338358 125.1138,41.9162494 L124.8408,39.5881412 C124.8072,39.3804538 124.63164,39.2246883 124.4208,39.2154764 L119.49,39.2447871 C119.29974,39.2393437 119.1414,39.3884096 119.13552,39.5780918 C119.1351,39.5927471 119.13594,39.6069838 119.1372,39.6216391 L119.4102,41.9539346 C119.4459,42.1624594 119.62272,42.3178062 119.8344,42.3265994 Z" id="Stroke-192" stroke="#39A9A6" stroke-width="0.5"></path>
            </g>
        </g>
    </g>
</svg>