<svg id="Calque_1" data-name="Calque 1" xmlns="http://www.w3.org/2000/svg" viewBox="0 0 1080 1080"><defs><style>.cls-1{fill:#05223a;}</style></defs><path class="cls-1" d="M419.91,32h-327a61.37,61.37,0,0,0-61.3,61.3v196.2a61.37,61.37,0,0,0,61.3,61.3h327a61.37,61.37,0,0,0,61.3-61.3V93.27A61.37,61.37,0,0,0,419.91,32Zm25.9,257.5a25.93,25.93,0,0,1-25.9,25.9h-327A25.93,25.93,0,0,1,67,289.47V93.27a25.93,25.93,0,0,1,25.9-25.9h327a25.93,25.93,0,0,1,25.9,25.9Z"/><path class="cls-1" d="M419.91,468h-327a61.37,61.37,0,0,0-61.3,61.31V987.06a61.37,61.37,0,0,0,61.3,61.3h327a61.37,61.37,0,0,0,61.3-61.3V529.27A61.37,61.37,0,0,0,419.91,468Zm25.9,519.1a25.93,25.93,0,0,1-25.9,25.9h-327A25.93,25.93,0,0,1,67,987.06V529.27a25.93,25.93,0,0,1,25.9-25.91h327a25.93,25.93,0,0,1,25.9,25.91Z"/><path class="cls-1" d="M986.7,729.56h-327a61.38,61.38,0,0,0-61.31,61.3v196.2a61.38,61.38,0,0,0,61.31,61.3h327a61.37,61.37,0,0,0,61.3-61.3V790.86A61.37,61.37,0,0,0,986.7,729.56Zm25.9,257.5a25.93,25.93,0,0,1-25.9,25.9h-327a25.93,25.93,0,0,1-25.91-25.9V790.86A25.93,25.93,0,0,1,659.71,765h327a25.93,25.93,0,0,1,25.9,25.9Z"/><path class="cls-1" d="M986.7,32h-327a61.38,61.38,0,0,0-61.31,61.3V551.06a61.38,61.38,0,0,0,61.31,61.31h327a61.37,61.37,0,0,0,61.3-61.31V93.27A61.37,61.37,0,0,0,986.7,32Zm25.9,519.09A25.93,25.93,0,0,1,986.7,577h-327a25.94,25.94,0,0,1-25.91-25.91V93.27a25.93,25.93,0,0,1,25.91-25.9h327a25.93,25.93,0,0,1,25.9,25.9Z"/></svg>