<svg id="Calque_1" data-name="Calque 1" xmlns="http://www.w3.org/2000/svg" viewBox="0 0 1080 1080"><defs><style>.cls-1{fill:#05223a;}</style></defs><path class="cls-1" d="M279.36,368.46H200.61a19.67,19.67,0,0,0-19.68,19.65v78.6a19.67,19.67,0,0,0,19.68,19.65h78.75a19.67,19.67,0,0,0,19.69-19.65v-78.6A19.67,19.67,0,0,0,279.36,368.46Zm-19.69,78.6H220.3v-39.3h39.37Z"/><path class="cls-1" d="M704,447.06H363.29c-14.09,0-25.52,8.8-25.52,19.65s11.43,19.65,25.52,19.65H704c14.09,0,25.52-8.8,25.52-19.65S718.11,447.06,704,447.06Z"/><path class="cls-1" d="M279.36,572.81H200.61a19.67,19.67,0,0,0-19.68,19.65v78.59a19.67,19.67,0,0,0,19.68,19.65h78.75a19.67,19.67,0,0,0,19.69-19.65V592.46A19.67,19.67,0,0,0,279.36,572.81ZM259.67,651.4H220.3V612.11h39.37Z"/><path class="cls-1" d="M279.36,777.15H200.61a19.67,19.67,0,0,0-19.68,19.65v78.59A19.66,19.66,0,0,0,200.61,895h78.75a19.67,19.67,0,0,0,19.69-19.65V796.8A19.67,19.67,0,0,0,279.36,777.15Zm-19.69,78.6H220.3v-39.3h39.37Z"/><path class="cls-1" d="M526.51,855.75H357.45a19.65,19.65,0,1,0,0,39.29H526.51a19.65,19.65,0,1,0,0-39.29Z"/><path class="cls-1" d="M999,194.75a74.88,74.88,0,0,0-102.19,27.33l-18.95,32.76h0l-26.51,45.83V105.18a67,67,0,0,0-66.94-66.81H122.94A67,67,0,0,0,56,105.18V977.57a67,67,0,0,0,66.94,66.8H784.41a67,67,0,0,0,66.94-66.8V602.28a18.9,18.9,0,0,0-.2-2.62L1007.43,329.5l19-32.75A74.68,74.68,0,0,0,999,194.75Zm-46.58,30.5a35.4,35.4,0,0,1,39.86,51.85l-9.1,15.74L921.8,257.47l9.1-15.74A35.25,35.25,0,0,1,952.42,225.25Zm-239.62,535-61.38-35.37L902.11,291.5l61.38,35.37Zm-72.67,3.5,44.58,25.69-53.57,41.23ZM812,977.57a27.56,27.56,0,0,1-27.56,27.5H122.93a27.57,27.57,0,0,1-27.56-27.5V105.18a27.57,27.57,0,0,1,27.56-27.51H784.41A27.56,27.56,0,0,1,812,105.18V368.46c0,.09,0,.17,0,.25L648.45,651.4h-291a19.65,19.65,0,1,0,0,39.3H625.72l-18.24,31.53a19.6,19.6,0,0,0-2.46,7.22L585.75,872.78A19.69,19.69,0,0,0,617.28,891L732,802.63a19.55,19.55,0,0,0,5-5.73L812,667.38Z"/></svg>