<svg id="Calque_1" data-name="Calque 1" xmlns="http://www.w3.org/2000/svg" viewBox="0 0 1080 1080"><defs><style>.cls-1{fill:#05223a;}</style></defs><rect class="cls-1" x="159.7" y="273.41" width="34.57" height="34.57"/><path class="cls-1" d="M196.27,310H157.7V271.41h38.57Zm-34.57-4h30.57V275.41H161.7Z"/><path class="cls-1" d="M937.58,187H384.42v.61L354.32,176a101.27,101.27,0,0,0-93.84,9.07l-45-14.93a98.44,98.44,0,0,0-77,14.26,85.94,85.94,0,0,0-49.13-14.73H38.7A17.3,17.3,0,0,0,21.41,187c0,32.61,5,72.7,44.51,94l5.15,2.42L30.73,356.05a72.06,72.06,0,0,0,62.59,107.5H193A17.24,17.24,0,0,1,206.42,470L328.67,620.56a17.16,17.16,0,0,1,3.89,10.84V895.71A17.28,17.28,0,0,0,349.85,913H419a17.28,17.28,0,0,0,17-13.93l45.93-231.7a17.23,17.23,0,0,1,17.66-13.66h379l40.49,40.49L885.94,892.86A17.31,17.31,0,0,0,903,913h69.15a17.27,17.27,0,0,0,16.52-12.19l69.15-224.72a17.18,17.18,0,0,0-.49-11.53l-24.39-60.7a51.74,51.74,0,0,1,0-38.9l24.38-60.35a17.26,17.26,0,0,0,1.26-6.48V308A121.14,121.14,0,0,0,937.58,187ZM56.69,204.26H89.57a46.2,46.2,0,0,1,23.25,4.88c-1,1.33-1.9,2.66-2.8,4L87.89,253.06l-6.43-3C66.39,242,58.87,228.55,56.69,204.26ZM1024,359.84h0v34.57a34.58,34.58,0,0,1-69.15,0V377.12A69.21,69.21,0,0,0,885.72,308H833.86v34.57h51.86a34.61,34.61,0,0,1,34.57,34.58v17.28A69.1,69.1,0,0,0,1024,454.25v40.52l-23.1,57.2a86.06,86.06,0,0,0,0,64.79l22.1,55-63.6,206.67h-36L954.6,691.09A17.24,17.24,0,0,0,949.78,676l-90.6-90.6a87,87,0,0,1-25.34-61.23v-26.1H799.27v26.1a121.72,121.72,0,0,0,35.49,85.69l9.22,9.23h-344A52.32,52.32,0,0,0,448,660.37l-43.22,218H367.13v-247a51.92,51.92,0,0,0-11.65-32.63L233.29,448.19A51.7,51.7,0,0,0,193.06,429H93.37A37.6,37.6,0,0,1,56,391.64a38,38,0,0,1,4.93-18.73l78.67-141.86c14.69-22.33,42.11-33.27,66.52-27.67L258,220.66a17.34,17.34,0,0,0,16.29-2.92,67,67,0,0,1,67.33-9.62l30.3,11.66c-14.45,28.75-29.54,34.77-40.45,36.34H298v34.57h34.57c.71,0,1.42,0,2.15-.1,32.46-4,56.82-26.62,74.34-69H937.58A86.53,86.53,0,0,1,1024,308Z"/><path class="cls-1" d="M972.15,915H903a19.32,19.32,0,0,1-19-22.47L916.9,694.88,877.73,655.7H499.54a15.25,15.25,0,0,0-15.71,12.07L437.91,899.45A19.32,19.32,0,0,1,419,915H349.85a19.31,19.31,0,0,1-19.29-19.28V631.4a15.15,15.15,0,0,0-3.44-9.57L204.87,471.23A15.25,15.25,0,0,0,193,465.55H93.32A74.05,74.05,0,0,1,29,355.07l39.29-70.81L65,282.7C24.59,261,19.41,220.14,19.41,187A19.31,19.31,0,0,1,38.7,167.69H89.35A87.91,87.91,0,0,1,138.48,182a100.92,100.92,0,0,1,77.46-13.81l.17,0,44.09,14.63a103.24,103.24,0,0,1,94.88-8.73L383.18,185h554.4a123.14,123.14,0,0,1,123,123V498.12a19.13,19.13,0,0,1-1.41,7.24l-24.37,60.35a49.7,49.7,0,0,0,0,37.4l24.39,60.71a19.29,19.29,0,0,1,.54,12.87L990.58,901.4A19.17,19.17,0,0,1,972.15,915ZM878.56,651.7h.82l41.81,41.8L887.92,893.19A15.3,15.3,0,0,0,903,911h69.15a15.2,15.2,0,0,0,14.61-10.78l69.15-224.71a15.28,15.28,0,0,0-.43-10.2l-24.4-60.71a53.71,53.71,0,0,1,0-40.39l24.37-60.35a15.13,15.13,0,0,0,1.12-5.74V308a119.14,119.14,0,0,0-119-119H386.42v1.53l-32.81-12.63a99.3,99.3,0,0,0-92,8.88l-.81.53-45.83-15.21a96.92,96.92,0,0,0-75.34,14l-1.12.75-1.11-.75a84.27,84.27,0,0,0-48-14.39H38.7A15.31,15.31,0,0,0,23.41,187c0,32,4.94,71.46,43.41,92.18l7,3.3L32.48,357A70.05,70.05,0,0,0,93.33,461.55H193A19.22,19.22,0,0,1,208,468.71L330.23,619.3a19.17,19.17,0,0,1,4.33,12.1V895.71A15.3,15.3,0,0,0,349.85,911H419a15.33,15.33,0,0,0,15-12.32L479.92,667a19.22,19.22,0,0,1,19.71-15.27Zm82.31,228.72H921.06l31.57-189.66a15.33,15.33,0,0,0-4.26-13.31l-90.6-90.59a89,89,0,0,1-25.93-62.65v-24.1H801.27v24.1a119.74,119.74,0,0,0,34.9,84.28l12.64,12.64H499.51c-24.2,0-44.53,16.26-49.54,39.67L406.44,880.42H365.13v-249A49.9,49.9,0,0,0,353.94,600L231.74,449.45A49.7,49.7,0,0,0,193.06,431H93.37A39.59,39.59,0,0,1,54,391.65a40.24,40.24,0,0,1,5.19-19.73l78.74-142c14.9-22.65,43.12-34.38,68.63-28.53l.19,0,51.86,17.29a15.31,15.31,0,0,0,14.4-2.59,69.19,69.19,0,0,1,69.33-9.92l32.33,12.45-1,2c-7.3,14.52-19.59,34.2-42,37.42l-.28,0H300v30.57h32.57c.65,0,1.29,0,2-.09,31.66-3.91,55.45-26.1,72.68-67.82l.51-1.23H937.58A88.53,88.53,0,0,1,1026,308v86.43a36.58,36.58,0,0,1-73.15,0V377.12A67.22,67.22,0,0,0,885.72,310H835.86v30.57h49.86a36.62,36.62,0,0,1,36.57,36.57v17.29A67.09,67.09,0,0,0,1023,452.52l3-1.74v44.38l-23.24,57.56a84,84,0,0,0,0,63.29l22.36,55.65-.21.68Zm-35.09-4h32.13l63-204.58L999,617.51a88,88,0,0,1,0-66.29l23-56.84V457.63a71.11,71.11,0,0,1-103.72-63.22V377.12a32.61,32.61,0,0,0-32.57-32.57H831.86V306h53.86a71.22,71.22,0,0,1,71.14,71.14v17.29a32.58,32.58,0,0,0,65.15,0V308a84.53,84.53,0,0,0-84.43-84.43H410.38c-17.79,42.37-42.47,64.95-75.43,69a22.1,22.1,0,0,1-2.39.12H296V254.12h35.28c9.6-1.41,23.8-6.48,37.8-33.27L340.85,210a65.21,65.21,0,0,0-65.36,9.32,19.29,19.29,0,0,1-18.16,3.26l-51.77-17.25c-23.88-5.44-50.27,5.57-64.27,26.78L62.66,373.88A36.2,36.2,0,0,0,58,391.64,35.57,35.57,0,0,0,93.38,427h99.68a53.69,53.69,0,0,1,41.78,19.93L357,597.49a53.89,53.89,0,0,1,12.09,33.89v245h34L446.05,660c5.33-24.9,27.77-42.86,53.47-42.86H839.15l-5.81-5.81a123.77,123.77,0,0,1-36.07-87.11v-28.1h38.57v28.1A85,85,0,0,0,860.6,584l90.59,90.59a19.32,19.32,0,0,1,5.39,16.8Zm-837-620.76-8.22-3.84c-15.88-8.55-23.6-22.72-25.81-47.38l-.2-2.18h35a47.81,47.81,0,0,1,24.2,5.09l2.12,1.06-1.39,1.91c-1.06,1.47-1.93,2.71-2.71,3.9Zm-6.37-7.39,4.69,2.19,21.3-38.38c.45-.69.93-1.39,1.45-2.14a43.4,43.4,0,0,0-20.12-3.68H58.9C61.22,228.05,68.3,240.69,82.36,248.27Z"/></svg>