<svg id="Calque_1" data-name="Calque 1" xmlns="http://www.w3.org/2000/svg" viewBox="0 0 1080 1080"><defs><style>.cls-1{fill:#1f6c79;}</style></defs><path class="cls-1" d="M1018,215.24a77.64,77.64,0,0,0-55.28-22.94H860.51V150.22A78.3,78.3,0,0,0,782.29,72H116.68a78.3,78.3,0,0,0-78.22,78.21V631.39a78.31,78.31,0,0,0,78.22,78.22H218.9V872a18.1,18.1,0,0,0,30.85,12.78L304.6,829.9H654.52l175.14,175.15a18.09,18.09,0,0,0,30.85-12.78V829.9H962.73A78.3,78.3,0,0,0,1041,751.69V270.52A77.69,77.69,0,0,0,1018,215.24ZM255,828.35V691.54A18.08,18.08,0,0,0,237,673.47H116.68a42.12,42.12,0,0,1-42.07-42.08V150.22a42.12,42.12,0,0,1,42.07-42.07H782.29a42.13,42.13,0,0,1,42.08,42.07V631.39a42.13,42.13,0,0,1-42.08,42.08H417.41a18,18,0,0,0-12.78,5.29Zm749.77-76.66a42.13,42.13,0,0,1-42.08,42.07H842.44a18.1,18.1,0,0,0-18.07,18.07V948.64L674.78,799.05A18,18,0,0,0,662,793.76H340.75l84.14-84.15h357.4a78.31,78.31,0,0,0,78.22-78.22V228.44H962.73a42.13,42.13,0,0,1,42.08,42.08Z"/><path class="cls-1" d="M619.93,270.52a18.1,18.1,0,0,1-18.07,18.07h-425a18.08,18.08,0,0,1,0-36.15h425A18.1,18.1,0,0,1,619.93,270.52Z"/><path class="cls-1" d="M740.22,390.81a18.1,18.1,0,0,1-18.07,18.07H176.82a18.07,18.07,0,0,1,0-36.14H722.15A18.09,18.09,0,0,1,740.22,390.81Z"/><path class="cls-1" d="M499.64,511.1a18.09,18.09,0,0,1-18.08,18.07H176.82a18.07,18.07,0,0,1,0-36.14H481.56A18.1,18.1,0,0,1,499.64,511.1Z"/></svg>