<svg xmlns="http://www.w3.org/2000/svg" viewBox="0 0 1080 1080"><path d="M540.28 327.74c-134.76 0-244.38 109.63-244.38 244.38S405.52 816.5 540.28 816.5s244.38-109.63 244.38-244.38S675 327.74 540.28 327.74zm0 450.42c-113.61 0-206-92.43-206-206s92.43-206 206-206 206 92.42 206 206-92.4 206-206 206z"/><path d="M1041.66 314.58a83.59 83.59 0 00-83.52-83.4h-149l-59.08-118a19.09 19.09 0 00-17.15-10.59H346.83a19.05 19.05 0 00-17.15 10.57l-59 118.09-148.78.2a83.62 83.62 0 00-83.37 83.48v579A83.59 83.59 0 00122 977.36h836.48a83.62 83.62 0 0083.52-83.54zm-38 579.27A45.25 45.25 0 01958.48 939H122a45.22 45.22 0 01-45.18-45.16v-579A45.24 45.24 0 01122 269.72l160.61-.22a19.09 19.09 0 0017.14-10.59l59-118H721l59.08 118.05a19.11 19.11 0 0017.16 10.59h160.9c25.12 0 45.55 20.25 45.55 45.13z"/></svg>
