<svg xmlns="http://www.w3.org/2000/svg" viewBox="0 0 1080 1080"><path d="M279.36 368.46h-78.75a19.67 19.67 0 00-19.68 19.65v78.6a19.67 19.67 0 0019.68 19.65h78.75a19.67 19.67 0 0019.69-19.65v-78.6a19.67 19.67 0 00-19.69-19.65zm-19.69 78.6H220.3v-39.3h39.37zM704 447.06H363.29c-14.09 0-25.52 8.8-25.52 19.65s11.43 19.65 25.52 19.65H704c14.09 0 25.52-8.8 25.52-19.65s-11.41-19.65-25.52-19.65zM279.36 572.81h-78.75a19.67 19.67 0 00-19.68 19.65v78.59a19.67 19.67 0 0019.68 19.65h78.75a19.67 19.67 0 0019.69-19.65v-78.59a19.67 19.67 0 00-19.69-19.65zm-19.69 78.59H220.3v-39.29h39.37zM279.36 777.15h-78.75a19.67 19.67 0 00-19.68 19.65v78.59A19.66 19.66 0 00200.61 895h78.75a19.67 19.67 0 0019.69-19.65V796.8a19.67 19.67 0 00-19.69-19.65zm-19.69 78.6H220.3v-39.3h39.37zM526.51 855.75H357.45a19.65 19.65 0 100 39.29h169.06a19.65 19.65 0 100-39.29z"/><path d="M999 194.75a74.88 74.88 0 00-102.19 27.33l-18.95 32.76-26.51 45.83V105.18a67 67 0 00-66.94-66.81H122.94A67 67 0 0056 105.18v872.39a67 67 0 0066.94 66.8h661.47a67 67 0 0066.94-66.8V602.28a18.9 18.9 0 00-.2-2.62l156.28-270.16 19-32.75a74.68 74.68 0 00-27.43-102zm-46.58 30.5a35.4 35.4 0 0139.86 51.85l-9.1 15.74-61.38-35.37 9.1-15.74a35.25 35.25 0 0121.52-16.48zm-239.62 535l-61.38-35.37L902.11 291.5l61.38 35.37zm-72.67 3.5l44.58 25.69-53.57 41.23zM812 977.57a27.56 27.56 0 01-27.56 27.5H122.93a27.57 27.57 0 01-27.56-27.5V105.18a27.57 27.57 0 0127.56-27.51h661.48A27.56 27.56 0 01812 105.18v263.53L648.45 651.4h-291a19.65 19.65 0 100 39.3h268.27l-18.24 31.53a19.6 19.6 0 00-2.46 7.22l-19.27 143.33A19.69 19.69 0 00617.28 891L732 802.63a19.55 19.55 0 005-5.73l75-129.52z"/></svg>
