<svg id="Calque_1" data-name="Calque 1" xmlns="http://www.w3.org/2000/svg" viewBox="0 0 1080 1080"><defs><style>.cls-1{fill:#1f6c79;}</style></defs><path class="cls-1" d="M763.67,21.22H712.13c-161.83,0-293.49,131.65-293.49,293.48a293.09,293.09,0,0,0,6.42,61.11h-57a18.12,18.12,0,0,0-2.87-.25H159.55c-77.22,0-140,62.82-140,140.05V829.22c0,77.22,62.83,140,140.05,140H282.48l84.37,84.37a17.87,17.87,0,0,0,30.5-12.62l0-71.75h202c77.22,0,140.05-62.83,140.05-140V688.7a17.6,17.6,0,0,0-.36-3.58V608.19h24.56a294.29,294.29,0,0,0,74.49-9.55l1.38-.36,77.15,77.1a17.87,17.87,0,0,0,30.5-12.63v-119l.92-.75a297,297,0,0,0,77.15-95.12,290.31,290.31,0,0,0,31.89-133.17C1057.15,152.87,925.5,21.22,763.67,21.22Zm-59.93,808A104.44,104.44,0,0,1,599.42,933.54H379.55a17.88,17.88,0,0,0-17.86,17.85l0,46.52-53.2-53.2-.19-.44a17.86,17.86,0,0,0-16.38-10.73H159.55A104.44,104.44,0,0,1,55.23,829.22V515.61A104.44,104.44,0,0,1,159.55,411.28h58.14a4.94,4.94,0,0,0,1.51.26H435.08c39.18,111.77,144.19,192.85,268.3,196.51V808.84a4.86,4.86,0,0,0,.36,1.84ZM918.57,520.73A18,18,0,0,0,911.46,535v84.64l-54.1-54.07a17.86,17.86,0,0,0-17.88-4.44,257.83,257.83,0,0,1-75.81,11.33H712.13C570,572.46,454.37,456.83,454.37,314.7S570,56.94,712.13,56.94h51.54c142.13,0,257.76,115.63,257.76,257.76C1021.43,396.4,983.93,471.5,918.57,520.73Z"/><path class="cls-1" d="M763.38,329l-1.92.46V378.7a17.86,17.86,0,1,1-35.72,0V329.78a36.07,36.07,0,0,1,28.4-35.34,48,48,0,0,0-7.1-94.69c-1.16-.08-2.31-.12-3.46-.12a48,48,0,0,0-48,48,17.87,17.87,0,0,1-35.73,0,84,84,0,0,1,26.6-61.21A83.72,83.72,0,1,1,763.38,329Z"/><path class="cls-1" d="M761.46,459.26a17.87,17.87,0,1,1-5.23-12.63A18.1,18.1,0,0,1,761.46,459.26Z"/><path class="cls-1" d="M594.88,670.37A17.88,17.88,0,0,1,577,688.24H147.33a17.87,17.87,0,0,1,0-35.73H577A17.88,17.88,0,0,1,594.88,670.37Z"/><path class="cls-1" d="M462.52,556.33a17.89,17.89,0,0,1-17.87,17.87H147.33a17.87,17.87,0,0,1,0-35.73H444.65A17.89,17.89,0,0,1,462.52,556.33Z"/><path class="cls-1" d="M594.41,784.77a17.89,17.89,0,0,1-17.87,17.87H146.85a17.87,17.87,0,0,1,0-35.73H576.54A17.89,17.89,0,0,1,594.41,784.77Z"/></svg>