<svg id="Calque_1" data-name="Calque 1" xmlns="http://www.w3.org/2000/svg" viewBox="0 0 1080 1080"><defs><style>.cls-1{fill:#1f6c79;}</style></defs><path class="cls-1" d="M819.29,675.58c-61.53-52.85-151.56-79.65-267.58-79.65s-206.06,26.8-267.59,79.65C222.93,728.14,191.91,805,191.91,903.94a21.29,21.29,0,0,0,21.27,21.27H890.23a21.29,21.29,0,0,0,21.27-21.27C911.5,805,880.48,728.15,819.29,675.58ZM234.92,882.67l.6-8c5.8-78,35.73-137.58,89-177.12,52.75-39.17,129.19-59,227.22-59s174.46,19.86,227.21,59c53.24,39.54,83.18,99.13,89,177.12l.6,8Z"/><path class="cls-1" d="M551.7,151.92c-104.52,0-183.34,80.46-183.34,187.16,0,110.09,82.25,199.65,183.34,199.65S735,449.17,735,339.09C735,232.38,656.23,151.92,551.7,151.92Zm0,344.28c-77.63,0-140.8-70.48-140.8-157.11,0-40.39,14.14-77.18,39.81-103.59s61.59-41.05,101-41.05c80.27,0,140.8,62.19,140.8,144.64C692.5,425.72,629.34,496.2,551.7,496.2Z"/></svg>