<svg id="Calque_1" data-name="Calque 1" xmlns="http://www.w3.org/2000/svg" viewBox="0 0 1080 1080"><defs><style>.cls-1{fill:#1f6c79;}</style></defs><path class="cls-1" d="M865.24,799.69l-.33-.15-.3-.19c-3.69-2.4-23.13-16.46-42.54-57.55-35.51-75.14-43-180.59-43-255.83,0-.26,0-.52,0-.79V485A239.86,239.86,0,0,0,637.9,267.48L635,266.15V204.51a91.16,91.16,0,0,0-91-91.14h-8a91.16,91.16,0,0,0-91,91.14v61.64l-2.94,1.33A240.18,240.18,0,0,0,300.89,486c0,75.24-7.45,180.69-43,255.83-19.4,41.07-38.84,55.14-42.54,57.54l-.3.2-.33.15c-8.42,3.9-12.72,12.89-10.71,22.38,1.95,9.15,10.55,15.8,20.47,15.8H414.77l.07,4.92a125.18,125.18,0,0,0,250.33,0l.07-4.92H855.48c9.92,0,18.52-6.65,20.47-15.8C878,812.58,873.66,803.58,865.24,799.69ZM485.61,204.51A50.51,50.51,0,0,1,536,154h8a50.5,50.5,0,0,1,50.41,50.49v48.14l-6-1.25a241,241,0,0,0-96.75,0l-6,1.24ZM624.59,843a84.61,84.61,0,0,1-169.18,0l-.13-5.12H624.72ZM273,797.22l4.94-7.7c4.51-7,8.88-14.71,13-22.82,33.53-66.12,50.53-160.57,50.53-280.73,0-109.64,89.06-198.85,198.53-198.85s198.54,89.24,198.54,198.94c0,.25,0,.49,0,.74V487c.1,119.68,17.1,213.79,50.53,279.71,4.1,8.09,8.48,15.76,13,22.82l4.94,7.7Z"/></svg>