<svg id="Calque_1" data-name="Calque 1" xmlns="http://www.w3.org/2000/svg" viewBox="0 0 1080 1080"><defs><style>.cls-1{fill:#2b4f9e;}</style></defs><path class="cls-1" d="M940.33,459.73,601.33,180c-14.18-11.71-28.6-17.65-42.84-17.65-19.37,0-42,12-42,46V383.66l-2.84.16a493.16,493.16,0,0,0-147,30.71c-46.35,17.52-88.26,41.75-124.57,72C163.37,552.2,120,639.18,120,731.47a293,293,0,0,0,24,116c3.05,7.12,11.4,11.91,20.77,11.91s17.72-4.79,20.78-11.91c24.49-57.19,68.49-107,127.24-144.1,58.41-36.88,127.73-58.88,200.47-63.62l3.2-.21V813.37c0,34,22.62,46,42,46,14.24,0,28.66-5.94,42.84-17.64L940.34,562C956.89,548.35,966,530.18,966,510.87S956.88,473.38,940.33,459.73Zm-31.48,77.78-339,279.72c-1.56,1.28-3.07,2.42-4.49,3.38l-4,2.71-.62-4.82a39.94,39.94,0,0,1-.3-5.13V621.2c0-4.63-2.24-9-6.3-12.32a25.12,25.12,0,0,0-15.66-5.27h-.27c-88.33.81-172.7,23.85-244,66.62-49.91,30-90.37,67.42-120.26,111.36l-4.08,6-1.35-7.12a263,263,0,0,1-4.61-49c0-170.84,168.13-311.36,374.78-313.26,12-.11,21.72-8,21.72-17.6V208.37a40.38,40.38,0,0,1,.29-5.11l.59-4.85,4.06,2.72c1.43,1,2.95,2.11,4.49,3.38l339,279.72c8.53,7,13.23,16.5,13.23,26.64S917.37,530.47,908.85,537.51Z"/></svg>