<svg id="Calque_1" data-name="Calque 1" xmlns="http://www.w3.org/2000/svg" viewBox="0 0 1080 1080"><defs><style>.cls-1{fill:#2b4f9e;stroke:#fff;stroke-miterlimit:10;stroke-width:5px;}</style></defs><path class="cls-1" d="M914.81,839.29l-.38-.17-.35-.22c-4.25-2.77-26.65-19-49-66.32-40.92-86.6-49.51-208.12-49.51-294.82,0-.3,0-.6,0-.91v-.19A276.41,276.41,0,0,0,652.82,226l-3.39-1.53v-71c0-57.92-47-105-104.84-105h-9.18c-57.8,0-104.84,47.11-104.84,105v71L427.18,226A276.78,276.78,0,0,0,264.45,477.76c0,86.7-8.59,208.22-49.51,294.82-22.35,47.33-44.76,63.54-49,66.3l-.35.24-.38.17c-9.7,4.49-14.66,14.85-12.34,25.79,2.25,10.54,12.16,18.21,23.59,18.21H395.68l.09,5.67a144.25,144.25,0,0,0,288.48,0l.08-5.67H903.56c11.43,0,21.34-7.67,23.59-18.21C929.47,854.14,924.51,843.77,914.81,839.29ZM477.32,153.4a58.21,58.21,0,0,1,58.09-58.18h9.18a58.2,58.2,0,0,1,58.09,58.18v55.48l-6.93-1.44a277.58,277.58,0,0,0-111.49,0l-6.94,1.43ZM637.48,889.19a97.51,97.51,0,0,1-195,0l-.15-5.9H637.63ZM232.3,836.44l5.69-8.87a302.49,302.49,0,0,0,15-26.3c38.64-76.2,58.23-185,58.23-323.51C311.2,351.41,413.83,248.6,540,248.6s228.8,102.84,228.8,229.26c0,.29,0,.56,0,.85v.22c.11,137.92,19.7,246.37,58.23,322.34a302.48,302.48,0,0,0,15,26.3l5.69,8.87Z"/></svg>