<svg id="Calque_1" data-name="Calque 1" xmlns="http://www.w3.org/2000/svg" viewBox="0 0 1080 1080"><defs><style>.cls-1{fill:#2b4f9e;}</style></defs><path class="cls-1" d="M540.28,327.74c-134.76,0-244.38,109.63-244.38,244.38S405.52,816.5,540.28,816.5,784.66,706.87,784.66,572.12,675,327.74,540.28,327.74Zm0,450.42c-113.61,0-206-92.43-206-206s92.43-206,206-206,206,92.42,206,206S653.88,778.16,540.28,778.16Z"/><path class="cls-1" d="M1041.66,314.58a83.59,83.59,0,0,0-83.52-83.4h-149l-59.08-118a19.09,19.09,0,0,0-17.15-10.59H346.83a19.05,19.05,0,0,0-17.15,10.57l-59,118.09-148.78.2a83.62,83.62,0,0,0-83.37,83.48v579A83.59,83.59,0,0,0,122,977.36H958.48A83.62,83.62,0,0,0,1042,893.82Zm-38,579.27A45.25,45.25,0,0,1,958.48,939H122a45.22,45.22,0,0,1-45.18-45.16v-579A45.24,45.24,0,0,1,122,269.72l160.61-.22a19.09,19.09,0,0,0,17.14-10.59l59-118H721l59.08,118.05a19.11,19.11,0,0,0,17.16,10.59H958.14c25.12,0,45.55,20.25,45.55,45.13Z"/></svg>