<svg id="Calque_1" data-name="Calque 1" xmlns="http://www.w3.org/2000/svg" viewBox="0 0 1080 1080"><defs><style>.cls-1{fill:#2b4f9e;stroke:#fff;stroke-miterlimit:10;stroke-width:5px;}</style></defs><path class="cls-1" d="M855.71,709.41c-72.5-64.36-178.56-97-315.25-97s-242.76,32.63-315.26,97C153.12,773.4,116.57,867,116.57,987.46c0,14.29,11.25,25.91,25.06,25.91H939.28c13.82,0,25.06-11.62,25.06-25.91C964.34,867,927.79,773.42,855.71,709.41ZM167.24,961.57l.71-9.8c6.83-95,42.1-167.53,104.82-215.68,62.15-47.7,152.2-71.87,267.69-71.87S746,688.39,808.14,736.09c62.72,48.15,98,120.71,104.84,215.68l.7,9.8Z"/><path class="cls-1" d="M540.45,71.76c-123.14,0-216,98-216,227.89,0,134.06,96.9,243.12,216,243.12s216-109.06,216-243.1C756.45,169.74,663.6,71.76,540.45,71.76Zm0,419.22C449,491,374.57,405.16,374.57,299.67c0-49.18,16.65-94,46.9-126.14s72.56-50,119-50c94.57,0,165.88,75.73,165.88,176.12C706.33,405.16,631.92,491,540.45,491Z"/></svg>