<svg id="Calque_1" data-name="Calque 1" xmlns="http://www.w3.org/2000/svg" viewBox="0 0 1080 1080"><defs><style>.cls-1{fill:#2b4f9e;}</style></defs><path class="cls-1" d="M855.71,709.41c-72.5-64.36-178.56-97-315.25-97s-242.76,32.63-315.26,97C153.12,773.4,116.57,867,116.57,987.46c0,14.29,11.25,25.91,25.06,25.91H939.28c13.82,0,25.06-11.62,25.06-25.91C964.34,867,927.79,773.42,855.71,709.41Zm-271.7-44L539.76,780,495.55,665.53q21.78-1.31,44.91-1.31Q562.89,664.22,584,665.44ZM354.27,798.37h18.46a45.44,45.44,0,1,1-18.46,0ZM168,951.77c6.83-95,42.1-167.53,104.82-215.68q29.87-22.9,68.23-38.55v56.62a91.5,91.5,0,1,0,46,.26V682.17a492.89,492.89,0,0,1,61-12.07l69,178.62V961.57H167.24ZM563,961.57V847.48l68.59-177.57c72.68,9.73,131.84,31.87,176.55,66.18,62.72,48.15,98,120.71,104.84,215.68l.7,9.8Z"/><path class="cls-1" d="M540.45,542.77c119.11,0,216-109.06,216-243.1,0-129.93-92.85-227.91-216-227.91s-216,98-216,227.89C324.45,433.71,421.35,542.77,540.45,542.77Zm-119-369.24c30.32-32.22,72.56-50,119-50,94.57,0,165.88,75.73,165.88,176.12C706.33,405.16,631.92,491,540.45,491S374.57,405.16,374.57,299.67C374.57,250.49,391.22,205.69,421.47,173.53Z"/></svg>