<svg height="200" width="500" xmlns="http://www.w3.org/2000/svg" viewBox="0 0 1080 351">
    <defs>
        <style>.cls-1{fill:#43b0ad;}.cls-2{fill:#fff;}.cls-3{fill:#1d49b8;}</style>
    </defs>
    <rect class="cls-1" x="24" y="22.62" width="307.76" height="307.76" rx="34.1"/>
    <path class="cls-2"
          d="M179.29,160.09c37.74,0,71.49-19.67,85.88-48.9,2.42-4.9-1.77-10.33-8-10.33a8.82,8.82,0,0,0-7.94,4.47c-12,23.68-39.52,39.31-70,39.31s-57.92-15.63-70-39.31a8.8,8.8,0,0,0-7.93-4.47c-6.2,0-10.39,5.43-8,10.33C107.81,140.42,141.56,160.09,179.29,160.09Z"/>
    <path class="cls-2"
          d="M236.47,162.2l-57.34,49.23v-.06l-57.3-49.2c-4.42-3.79-10.81-.26-10.81,6v76.43c0,4.22,3,7.63,6.81,7.63s6.81-3.41,6.81-7.63V179.84L178.3,217l55.31-37.05v64.67c0,4.22,3,7.63,6.81,7.63s6.81-3.41,6.81-7.63V168.22l-.33-1.5a6.83,6.83,0,0,0-3.4-5.29A6.47,6.47,0,0,0,236.47,162.2Z"/>
    <path class="cls-3"
          d="M179.19,220.26h-.5a23,23,0,0,1-14.59-5.84L111,168.54c.12-4.22,1.59-6,2.23-6.65,3.54-3.56,11.69-2.14,19.18,5.3L170,200.88a14.43,14.43,0,0,0,19.17,0l37.45-33.73a21.58,21.58,0,0,1,9.88-6.46c1.49-.4,5.25-1.13,8,1.23a8.34,8.34,0,0,1,2.63,6.21c-26.78,24.82-47.23,42.1-52.87,46.29C187.57,219.4,182.46,220.25,179.19,220.26Z"/>
    <path class="cls-3"
          d="M446.73,230.72a76.84,76.84,0,0,1-18.86-2.29,48.89,48.89,0,0,1-15.72-6.83,7.25,7.25,0,0,1-2.78-9.32,5.89,5.89,0,0,1,3.28-3.06c1.46-.57,3.15-.23,5.05,1a47.41,47.41,0,0,0,13.52,6,58.94,58.94,0,0,0,15.51,1.92q12.09,0,17.86-4.34a13.5,13.5,0,0,0,5.76-11.3,11.05,11.05,0,0,0-4.12-9q-4.14-3.33-13.8-5.34L437.19,185q-13.51-2.85-20.14-9.39T410.44,158a26.94,26.94,0,0,1,4.77-15.8,31.15,31.15,0,0,1,13.3-10.6,48.29,48.29,0,0,1,19.64-3.77,58.48,58.48,0,0,1,16.58,2.28,42.26,42.26,0,0,1,13.88,7,6.44,6.44,0,0,1,2.85,4.13,6.67,6.67,0,0,1-.72,4.49,5.75,5.75,0,0,1-3.41,2.77q-2.28.7-5.27-1.14A40.1,40.1,0,0,0,460.68,142,46.86,46.86,0,0,0,448,140.34q-10.53,0-16.72,4.69a15,15,0,0,0-6.19,12.53,12.39,12.39,0,0,0,3.84,9.54q3.84,3.56,12.81,5.4l15.08,3.13q14.24,3,21.21,9.19t7,16.72a25.7,25.7,0,0,1-4.7,15.37,30.4,30.4,0,0,1-13.24,10.17Q458.54,230.71,446.73,230.72Z"/>
    <path class="cls-3"
          d="M530.84,230.72q-10.68,0-18.43-4.49a30.77,30.77,0,0,1-12-12.67,41.19,41.19,0,0,1-4.27-19.28q0-16.5,9.4-26.05t25.33-9.53a40,40,0,0,1,10.46,1.49,31.14,31.14,0,0,1,10.18,4.91,5.26,5.26,0,0,1,2.63,3.63,6.23,6.23,0,0,1-.71,4.13,5.25,5.25,0,0,1-3.06,2.56,5.71,5.71,0,0,1-4.56-.79,24.45,24.45,0,0,0-7-3.48,23.81,23.81,0,0,0-6.83-1.07q-10.11,0-15.59,6.34c-3.65,4.21-5.48,10.23-5.48,18s1.83,13.87,5.48,18.29,8.85,6.62,15.59,6.62a24.18,24.18,0,0,0,13.8-4.41,5.33,5.33,0,0,1,4.49-.72,5,5,0,0,1,2.84,2.64,6.72,6.72,0,0,1,.57,4.12,5.26,5.26,0,0,1-2.63,3.63,30,30,0,0,1-9.89,4.7A40,40,0,0,1,530.84,230.72Z"/>
    <path class="cls-3"
          d="M588.34,230.72a28.52,28.52,0,0,1-13-2.85,23.5,23.5,0,0,1-9-7.69,18.8,18.8,0,0,1-3.34-11q0-7.68,3.91-12.09c2.61-2.94,6.93-5.09,13-6.41s14.16-2,24.41-2h4.84V185c0-5.4-1.14-9.3-3.42-11.66s-6-3.57-11.24-3.57a41.92,41.92,0,0,0-9.47,1.15,44.39,44.39,0,0,0-10.17,3.83c-2,.95-3.63,1.1-4.91.43a5.21,5.21,0,0,1-2.63-3.12,6.42,6.42,0,0,1,.14-4.42,6,6,0,0,1,3.55-3.41,63.14,63.14,0,0,1,12.39-4.2,53.61,53.61,0,0,1,11.53-1.35q14.22,0,21.06,6.76t6.83,21.13v36.57q0,7.28-6.69,7.27t-6.83-7.27v-5.25a20.26,20.26,0,0,1-8,9.39A23.82,23.82,0,0,1,588.34,230.72Zm2.84-10.25A16.92,16.92,0,0,0,604,215.06a19.09,19.09,0,0,0,5.13-13.67v-3.85h-4.7a102.27,102.27,0,0,0-16.29,1q-5.91,1-8.4,3.34a8.47,8.47,0,0,0-2.49,6.47,11.23,11.23,0,0,0,3.7,8.76Q584.65,220.46,591.18,220.47Z"/>
    <path class="cls-3"
          d="M649.68,230.43q-7.12,0-7.12-7.27V166.24q0-7.26,7-7.26t7,7.26v5.27a23.9,23.9,0,0,1,9.75-9.55,29.36,29.36,0,0,1,13.88-3.26q24.61,0,24.62,27.89v36.57q0,7.28-7.12,7.27t-7.26-7.27V187.44c0-6-1.16-10.34-3.49-13.08s-5.95-4.14-10.88-4.14q-8.68,0-13.88,5.48t-5.19,14.45v33Q656.94,230.44,649.68,230.43Z"/>
    <path class="cls-1"
          d="M733.93,230.43q-7.83,0-7.83-7.83V137.06q0-8,8-8h50.67c4.08,0,6.11,1.95,6.11,5.84q0,6.12-6.11,6.12H740.9v32h41q6.12,0,6.12,5.84,0,6.12-6.12,6.11h-41V222.6Q740.9,230.43,733.93,230.43Z"/>
    <path class="cls-1"
          d="M829.71,230.72c-7.4,0-13-2.15-16.72-6.41s-5.63-10.54-5.63-18.79V135.36q0-7.26,7.12-7.26t7.26,7.26v69.31q0,14.09,11.38,14.08a17,17,0,0,0,2.28-.14,14.91,14.91,0,0,1,2-.14,2.42,2.42,0,0,1,2.42.93c.48.71.71,2.15.71,4.33q0,5.84-5.4,6.7c-1,.09-1.88.16-2.78.2S830.56,230.72,829.71,230.72Z"/>
    <path class="cls-1"
          d="M880.37,230.72a36,36,0,0,1-18.22-4.42,30.13,30.13,0,0,1-11.88-12.46q-4.2-8-4.2-19.13t4.2-19.15a30.1,30.1,0,0,1,11.88-12.45,36,36,0,0,1,18.22-4.41,35.42,35.42,0,0,1,17.94,4.41,30.58,30.58,0,0,1,12,12.45q4.26,8,4.27,19.15t-4.27,19.13a30.6,30.6,0,0,1-12,12.46A35.43,35.43,0,0,1,880.37,230.72Zm0-11.11a17.7,17.7,0,0,0,14.24-6.41q5.4-6.39,5.4-18.49t-5.4-18.44a17.82,17.82,0,0,0-14.24-6.33q-9,0-14.37,6.33t-5.41,18.44q0,12.09,5.41,18.49A17.84,17.84,0,0,0,880.37,219.61Z"/>
    <path class="cls-1"
          d="M961.21,230.72q-10.68,0-18.43-4.49a30.77,30.77,0,0,1-12-12.67,41.19,41.19,0,0,1-4.27-19.28q0-16.5,9.39-26.05t25.34-9.53a40,40,0,0,1,10.46,1.49,31,31,0,0,1,10.17,4.91,5.25,5.25,0,0,1,2.64,3.63,6.23,6.23,0,0,1-.71,4.13,5.31,5.31,0,0,1-3.06,2.56,5.71,5.71,0,0,1-4.56-.79,24.58,24.58,0,0,0-7-3.48,23.87,23.87,0,0,0-6.84-1.07q-10.1,0-15.58,6.34c-3.65,4.21-5.48,10.23-5.48,18s1.83,13.87,5.48,18.29,8.85,6.62,15.58,6.62a24.18,24.18,0,0,0,13.81-4.41,5.31,5.31,0,0,1,4.48-.72,5,5,0,0,1,2.85,2.64,6.72,6.72,0,0,1,.57,4.12,5.26,5.26,0,0,1-2.63,3.63,30,30,0,0,1-9.9,4.7A39.86,39.86,0,0,1,961.21,230.72Z"/>
    <path class="cls-1"
          d="M1004.19,230.43q-7.12,0-7.12-7.27v-87.8q0-7.26,7.12-7.26t7.26,7.26v54.93h.28l26.62-26.47a30.45,30.45,0,0,1,4.13-3.56,8.24,8.24,0,0,1,4.83-1.28c2.94,0,4.87,1.1,5.77,3.27s.31,4.37-1.78,6.55l-24.91,24.62,27.47,27.18a6,6,0,0,1,2.13,4.56,5.24,5.24,0,0,1-1.85,3.77,6.23,6.23,0,0,1-4.26,1.5,9.2,9.2,0,0,1-5.2-1.29,31.26,31.26,0,0,1-4.49-3.83l-28.46-27.62h-.28v25.47Q1011.45,230.44,1004.19,230.43Z"/>
</svg>
