<svg id="Calque_1" data-name="Calque 1" xmlns="http://www.w3.org/2000/svg" viewBox="0 0 1080 1080">
    <defs>
        <style>.cls-1{fill:#43b0ad;}.cls-2{fill:#fff;}.cls-3{fill:#1d49b8;}</style>
    </defs>
    <rect class="cls-1" x="43.42" y="39.21" width="993.58" height="993.58" rx="87.12"/>
    <path class="cls-2"
          d="M540.21,483c121.84,0,230.78-63.5,277.26-157.87,7.8-15.82-5.72-33.34-25.74-33.34-11.13,0-21.18,5.66-25.63,14.41-38.9,76.46-127.6,126.91-225.89,126.91s-187-50.45-225.89-126.91c-4.45-8.75-14.5-14.41-25.63-14.41-20,0-33.54,17.52-25.74,33.34C309.43,419.53,418.38,483,540.21,483Z"/>
    <path class="cls-2"
          d="M725.34,489.84,540.21,648.78v-.22l-185-158.81C341,477.5,320.34,488.89,320.34,509V755.81c0,13.6,9.84,24.62,22,24.62s22-11,22-24.62v-209L537.55,666.61,716.11,547v208.8c0,13.6,9.84,24.62,22,24.62s22-11,22-24.62V509.26L759,504.41c0-.62-1-11.88-11-17.07A20.89,20.89,0,0,0,725.34,489.84Z"/>
    <path class="cls-3"
          d="M540.62,677.28l-1.6,0c-17.1-.35-33.61-7-47.1-18.83L320.32,510.31c.39-13.62,5.13-19.4,7.19-21.47,11.43-11.51,37.75-6.91,61.92,17.12L510.91,614.71a46.56,46.56,0,0,0,61.89-.09L693.73,505.71c10.29-11.18,21.58-18.08,31.88-20.84,4.81-1.29,17-3.65,26,4,8.24,7,8.5,17.83,8.5,20C673.63,589,607.61,644.79,589.41,658.32,567.68,674.49,551.19,677.26,540.62,677.28Z"/>
</svg>
