<svg xmlns="http://www.w3.org/2000/svg" viewBox="0 0 1080 1080"><path d="M1016.62 103.61c-24.21-39.67-67.13-63.36-114.83-63.36a20.7 20.7 0 100 41.4c33 0 62.68 16.21 79.36 43.36 15.18 24.62 16.68 53.86 4.1 80.18l-.5 1.05-.61 1-140.25 228.63v.05c-.23.4-.52.91-.88 1.48-15.8 29.93-46.17 47.75-81.53 47.75H761c-35.18 0-65.8-17.9-81.92-47.87L679 437l-.3-.39-.49-.79-143.69-228.48-.49-1c-13-26-11.85-55.35 3.09-80.64l.09-.15c16.57-27.53 46.36-44 79.69-44a20.7 20.7 0 00.21-41.4c-48 0-91 24-115.18 64.09a124.17 124.17 0 00-3.44 123.16l.08.14.31.42 144.51 230.31c16.85 31.18 45.33 53.77 80.2 63.6l16.32 4.6v319.87c0 22.4-14.18 44.44-38.89 60.47-23.35 15.14-54 23.48-86.25 23.48s-62.9-8.34-86.24-23.48c-24.72-16-38.89-38.07-38.89-60.47V500.12c0-70.41-73.24-125.56-166.75-125.56s-166.74 55.15-166.74 125.56V770.6l-16.4 4.55a139.71 139.71 0 00-71.83 47.43 128.21 128.21 0 00-28.1 80.22c0 73.22 61.66 132.78 137.45 132.78S314.72 976 314.72 902.8c0-59.55-41.6-112.19-101.16-128l-16.65-4.42V500.12c0-22.4 14.18-44.45 38.89-60.48 23.35-15.14 54-23.48 86.25-23.48s62.89 8.34 86.24 23.48c24.71 16 38.89 38.08 38.89 60.48v348.67l.11.53.08 1.68c1.53 32 18.66 61.91 48.24 84.2 31.21 23.53 73.23 36.49 118.31 36.49 93.5 0 166.75-55.16 166.75-125.56V526.77l16.46-4.52c35.44-9.73 65.44-33.54 82.31-65.32l.69-1.22 140.44-228.86c.21-.39.49-.87.83-1.41a124.28 124.28 0 00-4.78-121.83zM273.33 902.8c0 50.28-43.09 91.17-96.06 91.17s-96.05-40.89-96.05-91.17 43.09-91.17 96.05-91.17 96.06 40.9 96.06 91.17z"/></svg>
