<svg id="Calque_1" data-name="Calque 1" xmlns="http://www.w3.org/2000/svg" viewBox="0 0 1080 1080"><defs><style>.cls-1{fill:#fff;}</style></defs><path class="cls-1" d="M560.71,218.71H852.58a16.43,16.43,0,0,0,5.84-1.13c15.83-6,15.83-29,0-35.05a16.43,16.43,0,0,0-5.84-1.13H560.71a16.43,16.43,0,0,0-5.84,1.13c-15.83,6-15.83,29,0,35.05A16.43,16.43,0,0,0,560.71,218.71Z"/><path class="cls-1" d="M962.5,64.34H524.71a91.61,91.61,0,0,0-91.52,91.51V456.4H229.26v-.47h-17.1a84.71,84.71,0,0,0-84.62,84.61v50.79H111.45V403.71a68.15,68.15,0,1,0-35.8-.32v188A50.81,50.81,0,0,0,26,642.1V845.19A50.84,50.84,0,0,0,76.76,896h50.78v50.77a84.72,84.72,0,0,0,84.62,84.62H719.9a84.72,84.72,0,0,0,84.63-84.62V896H855.3a50.85,50.85,0,0,0,50.78-50.79V642.1a50.84,50.84,0,0,0-50.78-50.77H804.53V540.54c0-.44,0-.87,0-1.32h158A91.61,91.61,0,0,0,1054,447.71V155.85A91.61,91.61,0,0,0,962.5,64.34ZM60.64,337.79a33.49,33.49,0,1,1,33.48,33.5A33.48,33.48,0,0,1,60.64,337.79Zm66.9,524.34H76.76a17,17,0,0,1-16.92-16.94V642.1a17,17,0,0,1,16.92-16.93h50.78Zm677-237H855.3a17,17,0,0,1,16.92,16.93V845.19a17,17,0,0,1-16.92,16.94H804.53ZM770.67,946.75a50.83,50.83,0,0,1-50.77,50.77H212.16a50.84,50.84,0,0,1-50.78-50.77V540.54a50.84,50.84,0,0,1,50.78-50.77h221V642.29a18.61,18.61,0,0,0,10.67,16.8,18.88,18.88,0,0,0,7.88,1.75,18.53,18.53,0,0,0,11.86-4.3L604.39,539.22H770.65c0,.44,0,.88,0,1.32Zm246.25-499a54.48,54.48,0,0,1-54.42,54.42H597.67a18.58,18.58,0,0,0-11.87,4.3L470.29,602.72V155.85a54.47,54.47,0,0,1,54.42-54.41H962.5a54.47,54.47,0,0,1,54.42,54.41Z"/><path class="cls-1" d="M618.34,760.57H313.71a16.94,16.94,0,0,0-16.93,16.93v16.92c0,93.32,75.93,169.24,169.25,169.24s169.25-75.92,169.25-169.24V777.5A17,17,0,0,0,618.34,760.57ZM466,929.82c-74.66,0-135.4-60.74-135.4-135.4h270.8C601.43,869.08,540.68,929.82,466,929.82Z"/><path class="cls-1" d="M364.49,659a67.71,67.71,0,1,0-67.71,67.69A67.78,67.78,0,0,0,364.49,659Zm-101.56,0a33.85,33.85,0,1,1,33.85,33.84A33.9,33.9,0,0,1,262.93,659Z"/><path class="cls-1" d="M635.28,591.33A67.7,67.7,0,1,0,703,659,67.77,67.77,0,0,0,635.28,591.33Zm0,101.54A33.85,33.85,0,1,1,669.14,659,33.89,33.89,0,0,1,635.28,692.87Z"/><path class="cls-1" d="M560.68,304.24H852.54a16.19,16.19,0,0,0,5.84-1.14c15.83-6,15.83-29,0-35.05a16.39,16.39,0,0,0-5.84-1.13H560.68a16.43,16.43,0,0,0-5.84,1.13c-15.83,6-15.83,29,0,35.05A16.23,16.23,0,0,0,560.68,304.24Z"/><path class="cls-1" d="M558.82,390.24H787.14a12.36,12.36,0,0,0,7.41-2.92c10.91-8.39,10.91-23.1,0-31.49a12.34,12.34,0,0,0-7.41-2.91H558.82a12.34,12.34,0,0,0-7.4,2.91c-10.91,8.39-10.91,23.1,0,31.49A12.35,12.35,0,0,0,558.82,390.24Z"/></svg>