<svg xmlns="http://www.w3.org/2000/svg" viewBox="0 0 1080 1080"><path d="M192.9 173.12a19.77 19.77 0 1019.76 19.77 19.8 19.8 0 00-19.76-19.77zm0 0a19.77 19.77 0 1019.76 19.77 19.8 19.8 0 00-19.76-19.77zm0 0a19.77 19.77 0 1019.76 19.77 19.8 19.8 0 00-19.76-19.77zm0 0a19.77 19.77 0 1019.76 19.77 19.8 19.8 0 00-19.76-19.77zm0 0a19.77 19.77 0 1019.76 19.77 19.8 19.8 0 00-19.76-19.77zm0 0a19.77 19.77 0 1019.76 19.77 19.8 19.8 0 00-19.76-19.77zm0 0a19.77 19.77 0 1019.76 19.77 19.8 19.8 0 00-19.76-19.77zm0 0a19.77 19.77 0 1019.76 19.77 19.8 19.8 0 00-19.76-19.77zm0 0a19.77 19.77 0 1019.76 19.77 19.8 19.8 0 00-19.76-19.77zm0 0a19.77 19.77 0 1019.76 19.77 19.8 19.8 0 00-19.76-19.77zM963.83 58.06H116.18a58.2 58.2 0 00-58.13 58.12V691.5a58.2 58.2 0 0058.13 58.12h327.35V829h-95.3a19.8 19.8 0 00-19.62 17.31l-19.18 153.41a19.77 19.77 0 0019.62 22.22H751a19.75 19.75 0 0019.61-22.22L751.4 846.3a19.8 19.8 0 00-19.62-17.3h-95.3v-79.38h327.35A58.19 58.19 0 001022 691.5V116.18a58.19 58.19 0 00-58.17-58.12zM97.6 116.18a18.6 18.6 0 0118.58-18.59h404.05V595h-37.9l-.56-8.41a134.44 134.44 0 00-80.36-114.44l-10.88-4.8 7.57-9.17a115.65 115.65 0 10-178.37 0l7.57 9.17-10.89 4.8a134.44 134.44 0 00-80.34 114.44l-.56 8.41H97.6zm173 384.14h76.72A95.17 95.17 0 01442 585l1.11 10H174.74l1.12-10a95.16 95.16 0 0194.69-84.68zm-37.81-115.66a76.13 76.13 0 1176.12 76.12 76.22 76.22 0 01-76.12-76.12zm481.54 483.86l14.24 113.89H351.45l14.22-113.89h77.86v18.59a19.79 19.79 0 0019.76 19.77h153.43a19.79 19.79 0 0019.76-19.77v-18.59zm-231.28-1.17V749.62H597v117.73zM982.41 691.5a18.6 18.6 0 01-18.58 18.59H116.18A18.6 18.6 0 0197.6 691.5v-56.94h884.81zM732.73 500.32h76.72A95.15 95.15 0 01904.14 585l1.12 10H636.92l1.08-10a95.16 95.16 0 0194.73-84.68zM695 384.66a76.13 76.13 0 1176.13 76.12A76.21 76.21 0 01695 384.66zM982.41 595H944.5l-.55-8.41a134.49 134.49 0 00-80.36-114.44l-10.88-4.8 7.57-9.17a115.67 115.67 0 10-178.37 0l7.57 9.17-10.88 4.8a134.48 134.48 0 00-80.37 114.44l-.55 8.41h-37.91V97.59h404.06a18.6 18.6 0 0118.58 18.59zM192.9 212.66a19.77 19.77 0 10-19.78-19.77 19.79 19.79 0 0019.78 19.77zm0-39.54a19.77 19.77 0 1019.76 19.77 19.8 19.8 0 00-19.76-19.77zm0 0a19.77 19.77 0 1019.76 19.77 19.8 19.8 0 00-19.76-19.77zm0 0a19.77 19.77 0 1019.76 19.77 19.8 19.8 0 00-19.76-19.77zm0 0a19.77 19.77 0 1019.76 19.77 19.8 19.8 0 00-19.76-19.77zm0 0a19.77 19.77 0 1019.76 19.77 19.8 19.8 0 00-19.76-19.77zm0 0a19.77 19.77 0 1019.76 19.77 19.8 19.8 0 00-19.76-19.77zm0 0a19.77 19.77 0 1019.76 19.77 19.8 19.8 0 00-19.76-19.77zm0 0a19.77 19.77 0 1019.76 19.77 19.8 19.8 0 00-19.76-19.77z"/><path d="M212.66 192.89a19.77 19.77 0 11-19.76-19.77 19.79 19.79 0 0119.76 19.77z"/></svg>
